<svg width="189" height="16" viewBox="0 0 189 16" fill="none" xmlns="http://www.w3.org/2000/svg">
<path d="M95.2639 0.884766C95.2639 0.608623 95.0401 0.384766 94.7639 0.384766C94.4878 0.384766 94.2639 0.608623 94.2639 0.884766L95.2639 0.884766ZM94.4104 14.8866C94.6056 15.0818 94.9222 15.0818 95.1175 14.8866L98.2994 11.7046C98.4947 11.5093 98.4947 11.1927 98.2994 10.9975C98.1042 10.8022 97.7876 10.8022 97.5923 10.9975L94.7639 13.8259L91.9355 10.9975C91.7402 10.8022 91.4236 10.8022 91.2284 10.9975C91.0331 11.1927 91.0331 11.5093 91.2284 11.7046L94.4104 14.8866ZM94.2639 0.884766L94.2639 14.533L95.2639 14.533L95.2639 0.884766L94.2639 0.884766Z" fill="white"/>
<path d="M114.099 5.43408L188.027 5.43409" stroke="white" stroke-width="0.5"/>
<path d="M0.500977 5.43408L74.4289 5.43409" stroke="white" stroke-width="0.5"/>
</svg>

