<svg width="44" height="66" viewBox="0 0 44 66" fill="none" xmlns="http://www.w3.org/2000/svg">
<path d="M11.7151 29.7244C11.1002 30.1963 11.9153 34.2432 12.5016 34.8152C13.0879 35.3872 18.1071 39.8917 18.1071 39.8917L19.6372 37.6752C19.6372 37.6752 12.5016 29.1381 11.7151 29.7244Z" fill="url(#paint0_linear_5696_12008)"/>
<path d="M0.676758 65.5885L34.496 42.1367C35.068 41.7363 35.5256 37.7037 34.8392 37.2318C34.1528 36.7599 0.676758 65.5885 0.676758 65.5885Z" fill="url(#paint1_linear_5696_12008)"/>
<path d="M43.9763 0.56665L26.0156 29.8385L27.3741 31.0111L43.9763 0.56665Z" fill="url(#paint2_linear_5696_12008)"/>
<path d="M43.2617 0.152003L11.7161 29.7242C11.6647 29.7685 11.6235 29.8234 11.5952 29.8851C11.5669 29.9468 11.5523 30.0138 11.5523 30.0817C11.5523 30.1496 11.5669 30.2166 11.5952 30.2783C11.6235 30.34 11.6647 30.3949 11.7161 30.4392L19.6383 37.6749L0.0617063 65.0163C0.0107995 65.1007 -0.00952159 65.2 0.00415413 65.2976C0.0178299 65.3951 0.0646749 65.485 0.13681 65.5521C0.208946 65.6192 0.301973 65.6595 0.400273 65.6661C0.498573 65.6726 0.596155 65.6452 0.676609 65.5883L34.8248 37.9752C34.8798 37.9306 34.9245 37.8746 34.9556 37.8109C34.9867 37.7473 35.0035 37.6776 35.0049 37.6068C35.0062 37.5359 34.9921 37.4657 34.9635 37.4009C34.9348 37.3361 34.8924 37.2783 34.8391 37.2316L26.0875 29.8815L43.9052 0.681092C43.9754 0.59576 44.0088 0.486054 43.998 0.376102C43.9873 0.266151 43.9333 0.164963 43.848 0.0948C43.7627 0.0246375 43.653 -0.00875762 43.543 0.00196938C43.4331 0.0126964 43.3319 0.0666703 43.2617 0.152003Z" fill="#F3FC1F"/>
<defs>
<linearGradient id="paint0_linear_5696_12008" x1="10.8599" y1="38.4731" x2="18.9952" y2="31.1201" gradientUnits="userSpaceOnUse">
<stop stop-color="#3AD889"/>
<stop offset="0.15" stop-color="#35CE81"/>
<stop offset="0.4" stop-color="#29B36D"/>
<stop offset="0.71" stop-color="#15884C"/>
<stop offset="1" stop-color="#005B29"/>
</linearGradient>
<linearGradient id="paint1_linear_5696_12008" x1="37.4847" y1="35.1312" x2="2.52858" y2="68.0409" gradientUnits="userSpaceOnUse">
<stop stop-color="#3AD889"/>
<stop offset="0.36" stop-color="#23A763"/>
<stop offset="0.79" stop-color="#0A7039"/>
<stop offset="1" stop-color="#005B29"/>
</linearGradient>
<linearGradient id="paint2_linear_5696_12008" x1="5638.55" y1="3354.03" x2="7894.59" y2="3354.03" gradientUnits="userSpaceOnUse">
<stop stop-color="#3AD889"/>
<stop offset="0.36" stop-color="#23A763"/>
<stop offset="0.79" stop-color="#0A7039"/>
<stop offset="1" stop-color="#005B29"/>
</linearGradient>
</defs>
</svg>
