<svg width="24" height="24" viewBox="0 0 24 24" fill="none" xmlns="http://www.w3.org/2000/svg">
<path fill-rule="evenodd" clip-rule="evenodd" d="M0 5C0 2.23858 2.23858 0 5 0H19C21.7614 0 24 2.23858 24 5V19C24 21.7614 21.7614 24 19 24H5C2.23858 24 0 21.7614 0 19V5ZM16.0001 19H7.99964C7.98897 18.993 7.9775 18.9873 7.96546 18.983C7.33151 18.8331 6.99967 18.4194 6.99967 17.777V7.21718C6.99967 6.48327 7.48633 6.00033 8.22622 6.00033H13.1533V6.15227V8.60189C13.1533 9.32495 13.6447 9.80856 14.3774 9.8089H16.9993V12.9544V17.8157C16.9993 18.3407 16.7065 18.7653 16.2318 18.9332C16.1819 18.9504 16.1308 18.9642 16.0797 18.978L16.0796 18.978C16.053 18.9852 16.0265 18.9923 16.0001 19ZM12.0005 11.3574H9.73437C9.55461 11.3574 9.41723 11.4253 9.34238 11.588C9.22277 11.8478 9.41962 12.1188 9.72719 12.1195C10.5426 12.1208 11.358 12.1208 12.1735 12.1195H14.2739C14.4423 12.1195 14.5736 12.0574 14.6498 11.9058C14.7831 11.6437 14.592 11.3588 14.2804 11.3581C13.5205 11.3565 12.7606 11.3563 12.0005 11.3574ZM11.9875 13.6426H14.2674C14.441 13.6426 14.5749 13.5805 14.6535 13.4231C14.7807 13.1644 14.5913 12.8805 14.2879 12.8805C13.8042 12.8792 13.3204 12.8796 12.8368 12.8801H12.8361C12.5943 12.8803 12.3524 12.8805 12.1106 12.8805H9.72822C9.55939 12.8805 9.4285 12.9429 9.35229 13.0938C9.21867 13.3553 9.41039 13.6412 9.72173 13.6419C10.2433 13.6442 10.7659 13.6437 11.2888 13.6431H11.289C11.5215 13.6428 11.754 13.6426 11.9865 13.6426H11.9875ZM12.0033 15.166H14.2701C14.4502 15.166 14.5869 15.0982 14.6607 14.9327C14.7756 14.6766 14.5831 14.405 14.2848 14.4043C13.3669 14.4027 12.4489 14.4027 11.531 14.4043H9.72514C9.55017 14.4043 9.41757 14.4721 9.34375 14.6312C9.22209 14.8906 9.41688 15.165 9.72309 15.1657C10.4827 15.1672 11.2424 15.1673 12.0022 15.166H12.0033ZM11.233 16.6894H12.7435C12.9284 16.6894 13.0668 16.5992 13.1269 16.4466C13.2295 16.1851 13.0384 15.9287 12.735 15.9284H9.7518C9.48353 15.9284 9.30752 16.0834 9.30923 16.3133C9.31094 16.5432 9.4866 16.6898 9.7477 16.6901L11.233 16.6894ZM16.7358 9.04685L13.9229 6.2625L13.9222 6.36593V8.59783C13.9222 8.90204 14.0702 9.04685 14.3777 9.04685H16.7358Z" fill="white"/>
</svg>
