<svg width="401" height="108" viewBox="0 0 401 108" fill="none" xmlns="http://www.w3.org/2000/svg">
<path d="M40.7909 16.9914C35.6507 16.7846 31.3169 20.8057 31.1128 25.9711C31.1128 25.988 31.1111 26.0033 31.1111 26.0219V35.0524H51.8507V50.3383H31.1111V108H12.4431V50.3383H0V35.0524H12.4431V24.62C12.4431 10.0325 24.8878 0.31541 38.7143 0.31541C45.0471 0.179791 51.2046 2.40732 55.999 6.57081L49.0858 19.7682C46.5975 18.1526 43.7431 17.1948 40.7876 16.988" fill="url(#paint0_linear_2714_11626)"/>
<path d="M360.431 16.6818C355.291 16.475 350.957 20.4961 350.753 25.6615C350.753 25.6784 350.752 25.6937 350.752 25.7123V34.7429H371.491V50.0288H350.752V107.69H332.084V50.0288H319.641V34.7429H332.084V24.3104C332.084 9.72292 344.528 0.0058474 358.355 0.0058474C364.688 -0.129771 370.845 2.09775 375.64 6.26125L368.726 19.4586C366.238 17.8431 363.384 16.8853 360.428 16.6785" fill="url(#paint1_linear_2714_11626)"/>
<path d="M130.789 34.3486V107.295H116.272L113.504 98.9607H111.441C108.674 102.434 102.453 107.991 90.0096 107.991C70.6533 107.991 60.9718 94.0971 60.9718 73.9476V34.3486H81.0282V69.0839C81.0282 78.1162 81.7182 90.6202 94.1664 90.6202C100.388 90.6202 110.758 87.1484 110.758 68.3923V34.3486H130.789Z" fill="url(#paint2_linear_2714_11626)"/>
<path d="M171.999 48.0077C165.776 48.0077 163.013 50.7879 163.013 54.2597C163.013 59.125 169.236 60.5151 174.073 61.9018C187.211 64.682 200.344 68.8489 200.344 84.1314C200.344 99.4123 187.899 107.753 172.689 107.753C156.096 107.753 142.963 97.3322 142.268 82.048H160.243C160.924 88.3204 166.424 92.9263 172.687 92.4686C180.291 92.4686 181.674 88.3017 181.674 85.5215C181.674 79.9645 176.834 78.5728 171.302 77.1844C163.006 75.1094 144.34 71.6274 144.34 54.9548C144.336 40.3656 158.173 33.4202 171.999 33.4202C188.592 33.4202 198.962 43.1475 199.654 55.6481H181.679C181.679 52.1746 179.614 48.0077 171.999 48.0077Z" fill="url(#paint3_linear_2714_11626)"/>
<path d="M278.781 75.861H225.547C227.61 86.9708 236.607 91.1395 244.903 91.1395C250.243 91.4005 255.385 89.0755 258.731 84.8881H277.398C272.285 98.816 258.991 107.997 244.213 107.806C223.909 107.747 207.495 91.1666 207.552 70.7705C207.552 70.3858 207.559 69.9977 207.572 69.6113C206.898 49.9727 222.2 33.5012 241.752 32.8233C242.343 32.8013 242.933 32.7962 243.523 32.8064C262.191 32.8064 281.548 46.0022 278.781 75.8627V75.861ZM226.93 61.279H259.423C257.976 54.0939 251.499 49.0661 244.213 49.4711C236.438 48.9593 229.314 53.8262 226.93 61.279Z" fill="url(#paint4_linear_2714_11626)"/>
<path d="M299.745 107.621C304.404 107.621 308.181 103.826 308.181 99.1444C308.181 94.4631 304.404 90.6681 299.745 90.6681C295.087 90.6681 291.31 94.4631 291.31 99.1444C291.31 103.826 295.087 107.621 299.745 107.621Z" fill="url(#paint5_linear_2714_11626)"/>
<path d="M391.244 23.7591C395.902 23.7591 399.678 19.9644 399.678 15.2835C399.678 10.6025 395.902 6.80786 391.244 6.80786C386.585 6.80786 382.809 10.6025 382.809 15.2835C382.809 19.9644 386.585 23.7591 391.244 23.7591Z" fill="url(#paint6_linear_2714_11626)"/>
<path d="M401 33.4202H382.46V107.756H401V33.4202Z" fill="url(#paint7_linear_2714_11626)"/>
<defs>
<linearGradient id="paint0_linear_2714_11626" x1="-234.966" y1="46.7627" x2="400.73" y2="46.7627" gradientUnits="userSpaceOnUse">
<stop stop-color="#FEF16E"/>
<stop offset="1" stop-color="#B1FFBF"/>
</linearGradient>
<linearGradient id="paint1_linear_2714_11626" x1="-234.966" y1="46.7627" x2="400.73" y2="46.7627" gradientUnits="userSpaceOnUse">
<stop stop-color="#FEF16E"/>
<stop offset="1" stop-color="#B1FFBF"/>
</linearGradient>
<linearGradient id="paint2_linear_2714_11626" x1="-234.966" y1="46.7627" x2="400.73" y2="46.7627" gradientUnits="userSpaceOnUse">
<stop stop-color="#FEF16E"/>
<stop offset="1" stop-color="#B1FFBF"/>
</linearGradient>
<linearGradient id="paint3_linear_2714_11626" x1="-234.966" y1="46.7627" x2="400.73" y2="46.7627" gradientUnits="userSpaceOnUse">
<stop stop-color="#FEF16E"/>
<stop offset="1" stop-color="#B1FFBF"/>
</linearGradient>
<linearGradient id="paint4_linear_2714_11626" x1="-234.966" y1="46.7627" x2="400.73" y2="46.7627" gradientUnits="userSpaceOnUse">
<stop stop-color="#FEF16E"/>
<stop offset="1" stop-color="#B1FFBF"/>
</linearGradient>
<linearGradient id="paint5_linear_2714_11626" x1="-234.966" y1="46.7627" x2="400.73" y2="46.7627" gradientUnits="userSpaceOnUse">
<stop stop-color="#FEF16E"/>
<stop offset="1" stop-color="#B1FFBF"/>
</linearGradient>
<linearGradient id="paint6_linear_2714_11626" x1="-234.966" y1="46.7627" x2="400.73" y2="46.7627" gradientUnits="userSpaceOnUse">
<stop stop-color="#FEF16E"/>
<stop offset="1" stop-color="#B1FFBF"/>
</linearGradient>
<linearGradient id="paint7_linear_2714_11626" x1="-234.966" y1="46.7627" x2="400.73" y2="46.7627" gradientUnits="userSpaceOnUse">
<stop stop-color="#FEF16E"/>
<stop offset="1" stop-color="#B1FFBF"/>
</linearGradient>
</defs>
</svg>
