<svg width="833" height="398" viewBox="0 0 833 398" fill="none" xmlns="http://www.w3.org/2000/svg">
<rect x="271.584" y="0.584337" width="289.831" height="396.181" rx="8.76506" fill="url(#paint0_radial_5286_11636)" fill-opacity="0.5" stroke="url(#paint1_linear_5286_11636)" stroke-width="1.16867"/>
<rect x="397.217" y="300.349" width="147.253" height="31.5542" transform="rotate(-90 397.217 300.349)" fill="url(#paint2_linear_5286_11636)"/>
<path d="M457.666 173.078L431.732 133.291L431.916 118.793C432.642 99.0524 426.345 80.1419 414.037 65.1051L412.5 67.0407C401.318 82.067 394.876 99.592 393.995 117.38L393.741 134.218L364.372 176.844L392.267 167.234L430.025 165.849L457.666 173.078Z" fill="url(#paint3_linear_5286_11636)"/>
<path d="M369.252 357.361H388.007V352.903H374.552V327.718H369.252V357.361ZM402.771 357.793C408.461 357.793 411.666 354.424 412.344 351.075L412.405 350.849H407.619L407.578 350.993C407.085 352.452 405.421 353.807 402.873 353.807C399.545 353.807 397.45 351.548 397.368 347.727H412.611V346.083C412.611 339.509 408.749 335.134 402.524 335.134C396.3 335.134 392.294 339.653 392.294 346.515V346.535C392.294 353.458 396.238 357.793 402.771 357.793ZM402.586 339.14C405.297 339.14 407.27 340.865 407.639 344.316H397.429C397.84 340.968 399.874 339.14 402.586 339.14ZM418.232 357.361H423.347V344.727C423.347 341.584 425.217 339.448 428.154 339.448C431.072 339.448 432.51 341.194 432.51 344.296V357.361H437.625V343.269C437.625 338.215 434.893 335.134 430.106 335.134C426.799 335.134 424.58 336.654 423.45 338.996H423.347V335.586H418.232V357.361ZM452.141 357.793C455.285 357.793 457.688 356.231 458.921 353.664H459.044V357.361H464.159V327.718H459.044V339.324H458.921C457.688 336.716 455.202 335.134 452.121 335.134C446.656 335.134 443.144 339.427 443.144 346.453V346.473C443.144 353.479 446.636 357.793 452.141 357.793ZM453.682 353.479C450.395 353.479 448.362 350.808 448.362 346.473V346.453C448.362 342.118 450.416 339.448 453.682 339.448C456.825 339.448 459.044 342.201 459.044 346.453V346.473C459.044 350.746 456.846 353.479 453.682 353.479Z" fill="white"/>
<circle cx="413.03" cy="123.331" r="12.3646" transform="rotate(20.0723 413.03 123.331)" fill="#3AD889" stroke="url(#paint4_linear_5286_11636)" stroke-width="1.75301"/>
<path d="M415.796 124.591C415.108 123.78 414.326 123.046 413.612 122.254C413.267 121.874 412.934 121.463 412.689 121.02C412.335 120.389 412.506 119.679 413.032 119.24C413.287 119.023 413.605 118.894 413.939 118.876C414.273 118.857 414.604 118.949 414.881 119.137C415.44 119.512 415.673 120.247 415.446 120.901C415.421 120.986 415.383 121.073 415.339 121.192L418.102 122.202C418.141 122.098 418.188 121.985 418.222 121.874C418.774 120.17 418.006 118.268 416.382 117.385C416.314 117.352 416.255 117.303 416.211 117.24L416.858 115.471L416.348 115.285C416.105 115.19 415.853 115.104 415.578 115.003L415.447 114.956L414.795 116.741L414.811 116.746C414.752 116.749 414.693 116.742 414.636 116.724C414.047 116.561 413.453 116.557 412.852 116.65C411.374 116.871 410.411 117.698 409.909 119.12C409.442 120.447 409.691 121.588 410.648 122.586C411.165 123.124 411.726 123.623 412.225 124.177C412.65 124.645 413.067 125.134 413.388 125.676C413.709 126.218 413.545 126.99 413.03 127.432C412.778 127.645 412.464 127.77 412.134 127.79C411.805 127.809 411.479 127.72 411.204 127.538C410.93 127.354 410.723 127.085 410.615 126.773C410.506 126.461 410.502 126.123 410.603 125.808C410.634 125.708 410.675 125.611 410.725 125.475L407.967 124.468C407.652 125.249 407.582 126.037 407.783 126.842C408.069 127.997 408.793 128.81 409.825 129.376L409.163 131.186L410.573 131.702L411.223 129.922C411.283 129.916 411.343 129.922 411.4 129.939C413.676 130.506 415.542 129.5 416.228 127.315C416.536 126.342 416.478 125.389 415.796 124.591Z" fill="#F3FC1F"/>
<rect x="0.5" y="44.5" width="248" height="339" rx="7.5" fill="url(#paint5_radial_5286_11636)" fill-opacity="0.5" stroke="url(#paint6_linear_5286_11636)"/>
<path d="M161 168.5C160.5 159.333 165.4 140.3 189 137.5C188.667 147.833 182.6 168.5 161 168.5Z" fill="url(#paint7_linear_5286_11636)" fill-opacity="0.5"/>
<path d="M58.5 118.5C74 115.167 106.5 116.8 112.5 150C99.3333 153.667 70.1 152.5 58.5 118.5Z" fill="url(#paint8_linear_5286_11636)" fill-opacity="0.5"/>
<path d="M83.5964 350H88.1316V339.646H98.7663V335.955H88.1316V328.449H99.7683V324.635H83.5964V350ZM109.166 350.316C111.627 350.316 113.701 349.086 114.774 347.135H114.879V350H119.256V337.186C119.256 333.441 116.25 330.98 111.592 330.98C106.864 330.98 103.998 333.459 103.735 336.764L103.717 336.975H107.778L107.813 336.816C108.094 335.445 109.36 334.479 111.434 334.479C113.649 334.479 114.879 335.621 114.879 337.502V338.785L110.01 339.084C105.492 339.365 102.926 341.352 102.926 344.656V344.691C102.926 348.014 105.44 350.316 109.166 350.316ZM107.285 344.516V344.498C107.285 343.021 108.463 342.09 110.625 341.949L114.879 341.686V343.092C114.879 345.307 112.981 346.977 110.467 346.977C108.551 346.977 107.285 346.045 107.285 344.516ZM124.769 350H129.146V339.189C129.146 336.43 130.64 334.865 133.119 334.865C133.857 334.865 134.525 334.971 134.894 335.111V331.156C134.56 331.068 134.051 330.98 133.506 330.98C131.361 330.98 129.814 332.334 129.234 334.584H129.146V331.367H124.769V350ZM139.124 350H143.501V338.592C143.501 336.324 144.978 334.672 147.087 334.672C149.126 334.672 150.392 335.973 150.392 338.064V350H154.646V338.486C154.646 336.236 156.087 334.672 158.197 334.672C160.341 334.672 161.536 335.99 161.536 338.293V350H165.913V337.203C165.913 333.477 163.505 330.98 159.831 330.98C157.142 330.98 154.927 332.422 154.031 334.742H153.925C153.24 332.352 151.359 330.98 148.757 330.98C146.296 330.98 144.38 332.316 143.589 334.355H143.501V331.367H139.124V350Z" fill="white"/>
<path fill-rule="evenodd" clip-rule="evenodd" d="M58.5 118.008C56.5272 118.337 56.5274 118.338 56.5275 118.339L56.5279 118.341L56.529 118.347L56.532 118.364L56.5418 118.42C56.5501 118.465 56.562 118.529 56.5779 118.61C56.6097 118.771 56.6574 119.001 56.7243 119.292C56.858 119.874 57.0685 120.701 57.3813 121.718C58.0063 123.749 59.0433 126.547 60.6996 129.652C64.0139 135.866 69.8319 143.352 79.8056 148.338C89.6559 153.263 97.9447 154.119 103.835 153.698C106.773 153.488 109.098 152.962 110.71 152.479C111.515 152.237 112.143 152.006 112.58 151.83L112.642 151.804C122.126 160.276 137.517 183.433 129.983 215.826C124.985 237.32 122.444 251.473 122.444 262.79C122.444 274.202 125.026 282.682 130.103 292.836L132.786 291.495C127.863 281.648 125.444 273.628 125.444 262.79C125.444 251.858 127.904 238.011 132.905 216.505C133.873 212.346 134.477 208.331 134.774 204.472C143.227 201.617 159.309 191.223 161.276 170.754C161.308 170.753 161.343 170.753 161.379 170.751C161.719 170.741 162.205 170.719 162.807 170.669C164.011 170.57 165.694 170.363 167.637 169.928C171.505 169.062 176.519 167.269 180.826 163.529C185.278 159.663 187.759 153.204 189.141 148.051C189.847 145.421 190.294 143.02 190.566 141.277C190.702 140.404 190.794 139.692 190.853 139.195C190.882 138.946 190.903 138.751 190.917 138.616C190.924 138.548 190.929 138.495 190.933 138.458L190.937 138.415L190.938 138.402L190.938 138.398L190.938 138.397C190.938 138.396 190.938 138.396 188.946 138.221L190.938 138.396C190.986 137.854 190.811 137.315 190.452 136.905C190.094 136.495 189.584 136.248 189.04 136.223L188.946 138.221C189.04 136.223 189.039 136.223 189.038 136.223L189.036 136.223L189.031 136.222L189.017 136.222L188.975 136.22C188.941 136.219 188.894 136.218 188.836 136.217C188.72 136.215 188.557 136.214 188.352 136.217C187.941 136.222 187.359 136.244 186.638 136.306C185.199 136.431 183.196 136.719 180.902 137.373C176.31 138.683 170.507 141.474 165.771 147.381C161.121 153.18 159.362 158.551 158.796 162.544C158.514 164.533 158.53 166.165 158.621 167.321C158.645 167.619 158.674 167.886 158.704 168.119L158.445 168.11C157.722 187.643 143.303 197.947 134.954 201.213C135.825 175.282 122.918 156.823 114.376 149.333L114.375 149.329L114.372 149.329L114.371 149.328C114.375 149.327 114.375 149.327 114.375 149.327L114.375 149.325L114.374 149.321L114.371 149.307L114.362 149.262C114.354 149.225 114.343 149.173 114.328 149.107C114.298 148.974 114.255 148.784 114.195 148.542C114.076 148.059 113.893 147.368 113.635 146.515C113.118 144.808 112.294 142.44 111.059 139.765C108.597 134.432 104.455 127.773 97.7572 122.749C90.9065 117.611 80.8679 116.013 72.8712 115.613C68.8178 115.411 65.1757 115.512 62.5472 115.664C61.2316 115.74 60.1663 115.829 59.4261 115.899C59.0559 115.934 58.7667 115.965 58.568 115.987C58.4686 115.998 58.3918 116.007 58.3387 116.013L58.277 116.02L58.2598 116.022L58.2547 116.023L58.253 116.023C58.2524 116.023 58.2518 116.023 58.5 118.008ZM58.5 118.008L58.2518 116.023C57.7115 116.091 57.222 116.376 56.8966 116.812C56.5711 117.249 56.4377 117.8 56.5272 118.337L58.5 118.008ZM60.9794 119.78C61.0464 120.017 61.1213 120.271 61.2044 120.541C61.7687 122.375 62.7139 124.929 64.229 127.77C67.2576 133.448 72.5395 140.233 81.5944 144.761C90.7727 149.35 98.341 150.08 103.55 149.708C106.163 149.522 108.198 149.056 109.56 148.648C109.733 148.596 109.895 148.545 110.046 148.495C109.976 148.246 109.897 147.972 109.806 147.675C109.332 146.11 108.571 143.919 107.427 141.441C105.131 136.467 101.345 130.44 95.3572 125.949C89.5221 121.573 80.5321 120.001 72.6716 119.608C68.7966 119.415 65.3029 119.512 62.7778 119.657C62.1047 119.696 61.5015 119.739 60.9794 119.78ZM181.998 141.22C183.838 140.695 185.458 140.442 186.665 140.321C186.649 140.431 186.632 140.545 186.613 140.661C186.358 142.302 185.937 144.557 185.278 147.015C183.931 152.036 181.696 157.476 178.204 160.509C174.567 163.667 170.246 165.245 166.763 166.024C165.089 166.399 163.635 166.583 162.586 166.674C162.537 165.792 162.547 164.579 162.756 163.106C163.227 159.789 164.712 155.096 168.892 149.883C172.986 144.777 177.99 142.363 181.998 141.22Z" fill="url(#paint9_linear_5286_11636)"/>
<path d="M176.374 154.825C176.055 154.178 175.662 153.567 175.324 152.93C175.159 152.623 175.008 152.298 174.92 151.967C174.791 151.494 175.02 151.056 175.438 150.854C175.641 150.752 175.872 150.721 176.094 150.763C176.317 150.806 176.519 150.921 176.67 151.09C176.976 151.429 177.008 151.95 176.751 152.342C176.72 152.394 176.682 152.445 176.633 152.516L178.283 153.634C178.325 153.572 178.374 153.506 178.415 153.439C179.058 152.41 178.867 151.033 177.945 150.186C177.905 150.153 177.875 150.111 177.856 150.063L178.572 149.006L178.268 148.8C178.124 148.698 177.973 148.6 177.808 148.488L177.731 148.436L177.008 149.501L177.018 149.508C176.978 149.5 176.941 149.485 176.907 149.464C176.546 149.26 176.156 149.159 175.746 149.122C174.738 149.024 173.969 149.409 173.406 150.26C172.88 151.056 172.856 151.847 173.321 152.66C173.572 153.098 173.858 153.519 174.096 153.965C174.298 154.343 174.491 154.732 174.613 155.141C174.735 155.55 174.5 156.031 174.088 156.237C173.888 156.335 173.661 156.366 173.441 156.324C173.222 156.282 173.022 156.171 172.871 156.005C172.721 155.839 172.63 155.629 172.61 155.406C172.59 155.183 172.643 154.96 172.761 154.77C172.798 154.709 172.841 154.652 172.896 154.571L171.249 153.455C170.914 153.917 170.738 154.423 170.738 154.986C170.736 155.791 171.077 156.444 171.662 156.986L170.929 158.067L171.771 158.638L172.492 157.575C172.532 157.581 172.57 157.595 172.605 157.616C174.007 158.363 175.399 158.009 176.21 156.686C176.572 156.098 176.691 155.461 176.374 154.825Z" fill="#F3FC1F"/>
<path d="M88.7467 131.274C87.6117 131.838 86.54 132.531 85.4212 133.129C84.8838 133.419 84.3135 133.687 83.7311 133.843C82.9013 134.071 82.1296 133.671 81.7729 132.937C81.5939 132.581 81.537 132.176 81.611 131.785C81.685 131.394 81.8858 131.037 82.1824 130.772C82.776 130.233 83.6909 130.174 84.3819 130.623C84.4731 130.677 84.5624 130.745 84.6882 130.83L86.6453 127.926C86.5359 127.852 86.4192 127.765 86.3007 127.693C84.4899 126.569 82.0719 126.911 80.5876 128.536C80.53 128.605 80.4554 128.659 80.371 128.692L78.5114 127.439L78.1502 127.975C77.9715 128.228 77.8001 128.494 77.6048 128.784L77.5126 128.921L79.3885 130.185L79.3996 130.169C79.3862 130.238 79.3605 130.304 79.3236 130.364C78.9674 130.999 78.7921 131.684 78.7281 132.404C78.5601 134.176 79.2411 135.526 80.7398 136.512C82.14 137.431 83.53 137.469 84.9573 136.65C85.7259 136.205 86.4638 135.701 87.2469 135.282C87.909 134.925 88.593 134.583 89.3112 134.367C90.0293 134.151 90.8742 134.561 91.2382 135.284C91.4121 135.636 91.4671 136.035 91.3949 136.42C91.3227 136.806 91.1272 137.158 90.8379 137.424C90.5466 137.688 90.1775 137.85 89.786 137.886C89.3946 137.922 89.002 137.83 88.6675 137.623C88.5599 137.559 88.4597 137.483 88.3175 137.387L86.364 140.286C87.1769 140.874 88.068 141.18 89.0558 141.177C90.4716 141.177 91.6179 140.574 92.5669 139.543L94.4702 140.826L95.469 139.344L93.5985 138.083C93.6087 138.013 93.6327 137.945 93.669 137.884C94.9746 135.416 94.3466 132.972 92.0178 131.554C90.982 130.92 89.8635 130.715 88.7467 131.274Z" fill="#F3FC1F"/>
<rect x="584.5" y="44.5" width="248" height="339" rx="7.5" fill="url(#paint10_radial_5286_11636)" fill-opacity="0.5" stroke="url(#paint11_linear_5286_11636)"/>
<path d="M670.474 350.439C676.661 350.439 680.388 347.434 680.388 342.705V342.688C680.388 338.732 678.085 336.588 672.811 335.498L670.069 334.936C667.011 334.303 665.622 333.248 665.622 331.455V331.438C665.622 329.416 667.468 328.027 670.438 328.01C673.286 328.01 675.237 329.328 675.536 331.543L675.571 331.754H679.913L679.895 331.455C679.632 327.113 676.011 324.195 670.474 324.195C665.007 324.195 661.087 327.219 661.069 331.684V331.701C661.069 335.48 663.53 337.801 668.522 338.838L671.247 339.4C674.517 340.086 675.835 341.105 675.835 343.004V343.021C675.835 345.201 673.831 346.625 670.632 346.625C667.45 346.625 665.218 345.271 664.884 343.092L664.849 342.881H660.507L660.524 343.145C660.823 347.697 664.655 350.439 670.474 350.439ZM692.247 350.369C693.125 350.369 693.899 350.281 694.409 350.211V346.924C694.11 346.941 693.776 346.994 693.354 346.994C691.754 346.994 690.946 346.414 690.946 344.586V334.742H694.409V331.367H690.946V326.639H686.499V331.367H683.862V334.742H686.499V344.955C686.499 348.787 688.344 350.369 692.247 350.369ZM704.65 350.316C707.111 350.316 709.186 349.086 710.258 347.135H710.363V350H714.74V337.186C714.74 333.441 711.734 330.98 707.076 330.98C702.348 330.98 699.482 333.459 699.219 336.764L699.201 336.975H703.262L703.297 336.816C703.578 335.445 704.844 334.479 706.918 334.479C709.133 334.479 710.363 335.621 710.363 337.502V338.785L705.494 339.084C700.977 339.365 698.41 341.352 698.41 344.656V344.691C698.41 348.014 700.924 350.316 704.65 350.316ZM702.77 344.516V344.498C702.77 343.021 703.947 342.09 706.109 341.949L710.363 341.686V343.092C710.363 345.307 708.465 346.977 705.951 346.977C704.035 346.977 702.77 346.045 702.77 344.516ZM720.447 350H724.824V343.531L726.3 341.984L732.189 350H737.234L729.552 339.383L736.935 331.367H731.873L724.912 339.102H724.824V324.635H720.447V350ZM748.214 350.369C753.083 350.369 755.825 347.486 756.405 344.621L756.458 344.428H752.362L752.327 344.551C751.905 345.799 750.481 346.959 748.302 346.959C745.454 346.959 743.661 345.025 743.591 341.756H756.634V340.35C756.634 334.725 753.329 330.98 748.003 330.98C742.677 330.98 739.249 334.848 739.249 340.719V340.736C739.249 346.66 742.624 350.369 748.214 350.369ZM748.056 334.408C750.376 334.408 752.064 335.885 752.38 338.838H743.644C743.995 335.973 745.735 334.408 748.056 334.408Z" fill="white"/>
<circle cx="724.531" cy="212.53" r="10.58" transform="rotate(20.0723 724.531 212.53)" fill="#3AD889" stroke="url(#paint12_linear_5286_11636)" stroke-width="1.5"/>
<circle cx="702.5" cy="222.5" r="8.21714" transform="rotate(20.0723 702.5 222.5)" fill="#3AD889" stroke="url(#paint13_linear_5286_11636)" stroke-width="1.5"/>
<circle cx="719" cy="236" r="6.26776" transform="rotate(20.0723 719 236)" fill="#3AD889" stroke="url(#paint14_linear_5286_11636)" stroke-width="1.5"/>
<path d="M726.897 213.609C726.308 212.914 725.639 212.286 725.029 211.609C724.734 211.284 724.448 210.933 724.239 210.553C723.936 210.014 724.083 209.406 724.533 209.03C724.75 208.844 725.023 208.734 725.309 208.718C725.595 208.703 725.878 208.781 726.114 208.942C726.593 209.263 726.792 209.891 726.598 210.451C726.576 210.524 726.544 210.598 726.507 210.701L728.871 211.564C728.904 211.475 728.944 211.379 728.973 211.284C729.446 209.826 728.789 208.198 727.399 207.443C727.34 207.415 727.29 207.372 727.253 207.319L727.806 205.805L727.369 205.646C727.162 205.565 726.946 205.491 726.71 205.405L726.599 205.364L726.041 206.891L726.054 206.896C726.004 206.899 725.953 206.892 725.905 206.877C725.401 206.738 724.892 206.734 724.379 206.814C723.113 207.003 722.289 207.711 721.86 208.927C721.46 210.063 721.674 211.039 722.492 211.894C722.935 212.353 723.415 212.781 723.842 213.255C724.206 213.655 724.563 214.073 724.837 214.537C725.112 215.001 724.972 215.661 724.53 216.04C724.315 216.222 724.046 216.329 723.764 216.346C723.483 216.362 723.203 216.286 722.968 216.13C722.734 215.973 722.557 215.743 722.464 215.476C722.371 215.209 722.368 214.92 722.454 214.65C722.48 214.564 722.516 214.481 722.558 214.365L720.198 213.503C719.929 214.172 719.869 214.847 720.041 215.535C720.286 216.523 720.905 217.219 721.788 217.703L721.222 219.252L722.428 219.693L722.985 218.17C723.036 218.165 723.087 218.17 723.136 218.185C725.084 218.67 726.68 217.81 727.267 215.94C727.531 215.108 727.481 214.292 726.897 213.609Z" fill="#F3FC1F"/>
<path d="M704.374 223.354C703.908 222.804 703.378 222.307 702.895 221.771C702.661 221.514 702.436 221.236 702.27 220.935C702.03 220.508 702.146 220.027 702.502 219.73C702.674 219.583 702.89 219.496 703.116 219.483C703.343 219.471 703.567 219.533 703.754 219.66C704.133 219.914 704.291 220.412 704.137 220.855C704.12 220.912 704.094 220.971 704.065 221.052L705.936 221.736C705.962 221.665 705.993 221.589 706.017 221.514C706.391 220.36 705.871 219.072 704.771 218.474C704.724 218.452 704.685 218.418 704.655 218.376L705.093 217.177L704.747 217.051C704.583 216.987 704.413 216.929 704.226 216.861L704.138 216.829L703.696 218.037L703.707 218.041C703.667 218.043 703.627 218.038 703.588 218.026C703.189 217.916 702.787 217.913 702.38 217.976C701.379 218.125 700.727 218.686 700.387 219.648C700.071 220.547 700.24 221.32 700.887 221.996C701.238 222.36 701.617 222.698 701.956 223.074C702.243 223.39 702.526 223.721 702.743 224.088C702.961 224.455 702.85 224.978 702.5 225.278C702.33 225.422 702.117 225.507 701.894 225.52C701.671 225.533 701.45 225.473 701.264 225.349C701.078 225.225 700.938 225.043 700.865 224.832C700.792 224.62 700.789 224.391 700.857 224.178C700.878 224.11 700.906 224.044 700.939 223.953L699.072 223.27C698.858 223.799 698.811 224.333 698.947 224.878C699.141 225.66 699.631 226.211 700.33 226.594L699.882 227.82L700.837 228.169L701.277 226.964C701.317 226.96 701.358 226.964 701.397 226.976C702.938 227.359 704.202 226.678 704.667 225.199C704.875 224.54 704.836 223.894 704.374 223.354Z" fill="#F3FC1F"/>
<path d="M720.467 236.668C720.102 236.238 719.688 235.849 719.31 235.429C719.127 235.228 718.95 235.01 718.82 234.775C718.633 234.441 718.723 234.065 719.002 233.832C719.137 233.717 719.306 233.649 719.483 233.639C719.66 233.629 719.835 233.678 719.982 233.778C720.278 233.976 720.402 234.365 720.281 234.712C720.268 234.757 720.248 234.803 720.225 234.867L721.689 235.402C721.709 235.347 721.734 235.287 721.753 235.228C722.045 234.325 721.638 233.317 720.778 232.849C720.741 232.832 720.71 232.805 720.687 232.772L721.03 231.834L720.759 231.736C720.631 231.686 720.497 231.64 720.351 231.587L720.282 231.561L719.937 232.507L719.945 232.51C719.913 232.512 719.882 232.508 719.852 232.498C719.54 232.412 719.225 232.41 718.907 232.459C718.123 232.576 717.613 233.015 717.347 233.768C717.099 234.472 717.231 235.076 717.738 235.606C718.013 235.89 718.31 236.155 718.574 236.449C718.8 236.697 719.021 236.956 719.191 237.243C719.361 237.53 719.274 237.939 719.001 238.174C718.867 238.287 718.701 238.353 718.526 238.363C718.352 238.373 718.179 238.327 718.033 238.23C717.888 238.132 717.778 237.99 717.721 237.825C717.663 237.659 717.661 237.48 717.715 237.313C717.731 237.26 717.753 237.208 717.779 237.137L716.317 236.603C716.15 237.017 716.113 237.435 716.22 237.861C716.372 238.473 716.755 238.904 717.302 239.204L716.951 240.164L717.699 240.437L718.043 239.493C718.075 239.49 718.107 239.493 718.137 239.503C719.343 239.803 720.332 239.27 720.696 238.112C720.859 237.596 720.828 237.091 720.467 236.668Z" fill="#F3FC1F"/>
<path fill-rule="evenodd" clip-rule="evenodd" d="M708.039 186.133C762.737 186.133 807.079 175.737 807.079 162.913C807.079 150.089 762.737 139.694 708.039 139.694C653.341 139.694 609 150.089 609 162.913C609 175.737 653.341 186.133 708.039 186.133ZM708.04 171.443C728.192 171.443 744.528 167.624 744.528 162.913C744.528 158.203 728.192 154.384 708.04 154.384C687.888 154.384 671.551 158.203 671.551 162.913C671.551 167.624 687.888 171.443 708.04 171.443Z" fill="url(#paint15_linear_5286_11636)"/>
<ellipse cx="708.04" cy="162.913" rx="36.4882" ry="8.5297" fill="#F3FC1F" fill-opacity="0.25"/>
<path d="M708.04 154.384C687.888 154.384 671.552 158.203 671.552 162.913L646.2 255.319C645.963 260.215 657.999 270.198 708.04 270.956C758.081 271.715 770.275 260.847 770.117 255.319L744.528 162.913C744.528 158.203 728.192 154.384 708.04 154.384Z" fill="url(#paint16_linear_5286_11636)"/>
<ellipse cx="708.04" cy="255.792" rx="62.0773" ry="14.69" fill="#F3FC1F" fill-opacity="0.25"/>
<path d="M708.04 116C692.599 116 680.082 126.608 680.082 139.694C689.164 138.746 713.063 137.419 735.998 139.694C735.998 126.608 723.481 116 708.04 116Z" fill="url(#paint17_linear_5286_11636)"/>
<defs>
<radialGradient id="paint0_radial_5286_11636" cx="0" cy="0" r="1" gradientUnits="userSpaceOnUse" gradientTransform="translate(275.217 6.33452) rotate(53.9052) scale(477.489 454.61)">
<stop stop-color="#3AD889" stop-opacity="0.7"/>
<stop offset="0.786458" stop-color="#3AD889" stop-opacity="0.2"/>
<stop offset="1" stop-color="#3AD889" stop-opacity="0"/>
<stop offset="1" stop-color="#4FDC7D"/>
</radialGradient>
<linearGradient id="paint1_linear_5286_11636" x1="568.908" y1="408.916" x2="160.375" y2="183.603" gradientUnits="userSpaceOnUse">
<stop stop-color="#F3FC1F"/>
<stop offset="1" stop-color="#3AD889"/>
</linearGradient>
<linearGradient id="paint2_linear_5286_11636" x1="550.978" y1="318.381" x2="374.844" y2="318.381" gradientUnits="userSpaceOnUse">
<stop stop-color="#F3FC1F"/>
<stop offset="0.796799" stop-color="#F3FC1F" stop-opacity="0"/>
</linearGradient>
<linearGradient id="paint3_linear_5286_11636" x1="415.376" y1="42.7203" x2="420.131" y2="166.078" gradientUnits="userSpaceOnUse">
<stop stop-color="#3AD889"/>
<stop offset="0.78205" stop-color="#F3FC1F"/>
</linearGradient>
<linearGradient id="paint4_linear_5286_11636" x1="407.822" y1="110.887" x2="417.048" y2="136.134" gradientUnits="userSpaceOnUse">
<stop stop-color="#F3FC1F"/>
<stop offset="1" stop-color="#3AD889"/>
</linearGradient>
<radialGradient id="paint5_radial_5286_11636" cx="0" cy="0" r="1" gradientUnits="userSpaceOnUse" gradientTransform="translate(3.60871 49.4203) rotate(53.9052) scale(408.573 388.996)">
<stop stop-color="#3AD889" stop-opacity="0.7"/>
<stop offset="0.786458" stop-color="#3AD889" stop-opacity="0.2"/>
<stop offset="1" stop-color="#3AD889" stop-opacity="0"/>
<stop offset="1" stop-color="#4FDC7D"/>
</radialGradient>
<linearGradient id="paint6_linear_5286_11636" x1="254.911" y1="393.897" x2="-94.6588" y2="201.103" gradientUnits="userSpaceOnUse">
<stop stop-color="#F3FC1F"/>
<stop offset="1" stop-color="#3AD889"/>
</linearGradient>
<linearGradient id="paint7_linear_5286_11636" x1="184.5" y1="139" x2="164.5" y2="168" gradientUnits="userSpaceOnUse">
<stop stop-color="#F3FC1F"/>
<stop offset="1" stop-color="#3AD889"/>
</linearGradient>
<linearGradient id="paint8_linear_5286_11636" x1="70.5" y1="117" x2="108" y2="152" gradientUnits="userSpaceOnUse">
<stop stop-color="#F3FC1F"/>
<stop offset="1" stop-color="#3AD889"/>
</linearGradient>
<linearGradient id="paint9_linear_5286_11636" x1="123.723" y1="151.71" x2="123.723" y2="292.705" gradientUnits="userSpaceOnUse">
<stop stop-color="#F3FC1F"/>
<stop offset="1" stop-color="#3AD889"/>
</linearGradient>
<radialGradient id="paint10_radial_5286_11636" cx="0" cy="0" r="1" gradientUnits="userSpaceOnUse" gradientTransform="translate(587.609 49.4203) rotate(53.9052) scale(408.573 388.996)">
<stop stop-color="#3AD889" stop-opacity="0.7"/>
<stop offset="0.786458" stop-color="#3AD889" stop-opacity="0.2"/>
<stop offset="1" stop-color="#3AD889" stop-opacity="0"/>
<stop offset="1" stop-color="#4FDC7D"/>
</radialGradient>
<linearGradient id="paint11_linear_5286_11636" x1="838.911" y1="393.897" x2="489.341" y2="201.103" gradientUnits="userSpaceOnUse">
<stop stop-color="#F3FC1F"/>
<stop offset="1" stop-color="#3AD889"/>
</linearGradient>
<linearGradient id="paint12_linear_5286_11636" x1="720.075" y1="201.882" x2="727.969" y2="223.485" gradientUnits="userSpaceOnUse">
<stop stop-color="#F3FC1F"/>
<stop offset="1" stop-color="#3AD889"/>
</linearGradient>
<linearGradient id="paint13_linear_5286_11636" x1="698.974" y1="214.073" x2="705.221" y2="231.17" gradientUnits="userSpaceOnUse">
<stop stop-color="#F3FC1F"/>
<stop offset="1" stop-color="#3AD889"/>
</linearGradient>
<linearGradient id="paint14_linear_5286_11636" x1="716.241" y1="229.405" x2="721.13" y2="242.786" gradientUnits="userSpaceOnUse">
<stop stop-color="#F3FC1F"/>
<stop offset="1" stop-color="#3AD889"/>
</linearGradient>
<linearGradient id="paint15_linear_5286_11636" x1="637.195" y1="145.617" x2="781.016" y2="179.025" gradientUnits="userSpaceOnUse">
<stop stop-color="#3AD889"/>
<stop offset="1" stop-color="#F3FC1F"/>
</linearGradient>
<linearGradient id="paint16_linear_5286_11636" x1="708.157" y1="154.384" x2="708.157" y2="270.994" gradientUnits="userSpaceOnUse">
<stop stop-color="#F3FC1F"/>
<stop offset="1" stop-color="#F3FC1F" stop-opacity="0"/>
</linearGradient>
<linearGradient id="paint17_linear_5286_11636" x1="694.061" y1="119.317" x2="735.998" y2="139.694" gradientUnits="userSpaceOnUse">
<stop stop-color="#3AD889"/>
<stop offset="1" stop-color="#F3FC1F"/>
</linearGradient>
</defs>
</svg>
