<svg width="16" height="24" viewBox="0 0 16 24" fill="none" xmlns="http://www.w3.org/2000/svg">
<path d="M15.2275 0.0535029L4.12391 10.4625C4.10581 10.4781 4.09129 10.4974 4.08134 10.5191C4.07138 10.5408 4.06623 10.5644 4.06623 10.5883C4.06623 10.6122 4.07138 10.6358 4.08134 10.6575C4.09129 10.6792 4.10581 10.6986 4.12391 10.7142L6.91239 13.261L0.0217197 22.8848C0.00380126 22.9145 -0.00335146 22.9495 0.00146219 22.9838C0.00627585 23.0181 0.0227646 23.0498 0.0481553 23.0734C0.073546 23.097 0.10629 23.1112 0.14089 23.1135C0.17549 23.1158 0.209838 23.1062 0.238157 23.0861L12.2578 13.3667C12.2772 13.351 12.2929 13.3313 12.3039 13.3089C12.3148 13.2865 12.3207 13.262 12.3212 13.237C12.3217 13.2121 12.3167 13.1874 12.3066 13.1646C12.2965 13.1418 12.2816 13.1214 12.2628 13.105L9.18243 10.5179L15.454 0.239735C15.4787 0.209699 15.4904 0.171084 15.4867 0.132383C15.4829 0.0936811 15.4639 0.0580644 15.4339 0.0333682C15.4038 0.00867204 15.3652 -0.00308255 15.3265 0.000693194C15.2878 0.00446894 15.2522 0.023467 15.2275 0.0535029Z" fill="#F3FC1F"/>
</svg>
