<svg width="59" height="29" viewBox="0 0 59 29" fill="none" xmlns="http://www.w3.org/2000/svg">
<path d="M30.1185 29C31.8952 28.9863 33.652 28.6017 35.2885 27.8682C36.9251 27.1348 38.4093 26.0667 39.6564 24.7251C40.9036 23.3835 41.8893 21.7946 42.5572 20.0492C43.2251 18.3037 43.5622 16.4359 43.5492 14.5523C43.5753 12.66 43.2478 10.781 42.5858 9.02339C41.9237 7.26584 40.9402 5.66455 39.6917 4.31182C38.4433 2.95909 36.9547 1.88166 35.3117 1.14163C33.6687 0.401602 31.9036 0.0136116 30.1185 0C28.3334 0.0136116 26.5685 0.401602 24.9255 1.14163C23.2825 1.88166 21.7939 2.95909 20.5454 4.31182C19.297 5.66455 18.3133 7.26584 17.6513 9.02339C16.9892 10.781 16.6619 12.66 16.688 14.5523C16.675 16.4359 17.0121 18.3037 17.68 20.0492C18.3479 21.7946 19.3336 23.3835 20.5808 24.7251C21.8279 26.0667 23.3121 27.1348 24.9486 27.8682C26.5852 28.6017 28.3418 28.9863 30.1185 29Z" fill="url(#paint0_linear_4998_12216)"/>
<path d="M50.2206 15.6012C48.0327 14.556 45.7915 13.6426 43.5076 12.8652C43.5895 13.4926 43.6225 14.1262 43.6063 14.7594V15.496C50.7142 18.2319 55.058 20.5469 55.8478 21.8097H56.0452V22.0202L55.8478 21.8097C54.5644 22.4411 49.727 22.4411 42.2241 21.1783C38.374 20.4417 33.734 19.4947 28.6005 18.1267C23.467 16.7587 19.913 15.6012 16.4578 14.3385C8.56005 11.4973 3.72264 8.97178 2.83415 7.6038H2.73545C4.11755 6.8672 9.4485 7.07767 17.6424 8.55087C17.938 7.69319 18.3363 6.87972 18.8271 6.1306C15.7668 5.60446 13.0025 5.18354 10.5345 4.97308C2.14314 4.13125 0.662269 5.49923 0.366104 6.97244C0.069939 8.44564 0.662245 10.3397 8.36254 13.9175C10.7319 14.9698 13.4961 16.0221 16.5565 17.0744C19.6169 18.1267 23.8619 19.4947 27.9095 20.5469C31.9571 21.5992 36.8931 22.7568 40.842 23.4934C44.7909 24.23 45.8769 24.3352 48.0487 24.5456L52.3925 24.7561C56.9337 24.7561 57.9208 23.5986 58.217 22.4411C58.5132 21.2836 58.0196 19.0737 50.2206 15.6012Z" fill="url(#paint1_linear_4998_12216)"/>
<defs>
<linearGradient id="paint0_linear_4998_12216" x1="62.0908" y1="32.625" x2="18.5713" y2="3.57826" gradientUnits="userSpaceOnUse">
<stop offset="0.0863256" stop-color="#3AD889"/>
<stop offset="0.779981" stop-color="#F3FC1F"/>
</linearGradient>
<linearGradient id="paint1_linear_4998_12216" x1="62.0523" y1="29.0711" x2="-3.34385" y2="0.130035" gradientUnits="userSpaceOnUse">
<stop stop-color="#3AD889"/>
<stop offset="1" stop-color="#F3FC1F"/>
</linearGradient>
</defs>
</svg>
