<svg width="28" height="151" viewBox="0 0 28 151" fill="none" xmlns="http://www.w3.org/2000/svg">
<path d="M17.6364 6.80114L17.6364 7.99432C19.1726 7.93963 20.321 6.52273 20.321 4.55398C20.321 2.60511 19.1875 1.07386 17.4773 1.07386C16.1051 1.07386 15.2898 2.06818 14.8324 3.65909L14.4744 4.91193C14.1761 5.9858 13.7983 6.94034 12.7841 6.94034C11.6705 6.94034 10.9347 5.86648 10.9347 4.45454C10.9347 3.24148 11.4716 2.16761 12.625 2.06818L12.625 0.795454C10.9545 0.914772 9.82102 2.26704 9.82102 4.45454C9.82102 6.80114 11.1136 8.13352 12.7642 8.13352C14.6733 8.13352 15.2898 6.32386 15.5682 5.26989L15.8466 4.2358C16.0455 3.48011 16.4432 2.26705 17.5369 2.26705C18.5114 2.26705 19.2273 3.16193 19.2273 4.5142C19.2273 5.74716 18.6406 6.68182 17.6364 6.80114ZM9.84091 13.1039C9.84091 14.7942 10.875 15.9078 12.2273 16.1067L12.2273 14.9334C11.392 14.7147 10.8949 14.0186 10.8949 13.1039C10.8949 11.7118 12.0483 10.8169 13.8182 10.8169C15.5483 10.8169 16.6818 11.7317 16.6818 13.1039C16.6818 14.138 16.0455 14.7544 15.3494 14.9334L15.3494 16.1067C16.7812 15.9078 17.7358 14.6948 17.7358 13.084C17.7358 11.0158 16.1051 9.64364 13.7784 9.64364C11.4915 9.64364 9.84091 10.9561 9.84091 13.1039ZM10 17.8219L10 18.9952L14.8324 18.9952C15.8665 18.9952 16.6222 19.8105 16.6222 20.9242C16.6222 21.2374 16.5625 21.5605 16.5426 21.6401L17.7358 21.6401C17.7457 21.5059 17.7557 21.1976 17.7557 21.0236C17.7557 20.1088 17.2386 19.3134 16.483 19.035L16.483 18.9554L17.6364 18.9554L17.6364 17.8219L10 17.8219ZM9.84091 25.9007C9.84091 27.9689 11.4119 29.361 13.7784 29.361C16.1648 29.361 17.7358 27.9689 17.7358 25.9007C17.7358 23.8326 16.1648 22.4405 13.7784 22.4405C11.4119 22.4405 9.84091 23.8326 9.84091 25.9007ZM10.8949 25.9007C10.8949 24.3297 12.2472 23.6138 13.7784 23.6138C15.3097 23.6138 16.6818 24.3297 16.6818 25.9007C16.6818 27.4718 15.3097 28.1877 13.7784 28.1877C12.2472 28.1877 10.8949 27.4718 10.8949 25.9007ZM20.1818 32.3253L20.1818 31.152L10 31.152L10 32.3253L20.1818 32.3253ZM20.1818 35.6475L20.1818 34.4743L10 34.4743L10 35.6475L20.1818 35.6475Z" fill="#F3FC1F"/>
<path d="M14 43L14 151" stroke="#F3FC1F"/>
<path d="M14.398 115.699C15.2561 115.693 16.1047 115.524 16.8951 115.203C17.6856 114.882 18.4025 114.414 19.0048 113.827C19.6072 113.239 20.0833 112.543 20.406 111.779C20.7286 111.015 20.8914 110.197 20.8851 109.372C20.8977 108.544 20.7395 107.721 20.4198 106.951C20.1 106.182 19.6249 105.48 19.0219 104.888C18.4189 104.296 17.6999 103.824 16.9063 103.5C16.1127 103.176 15.2602 103.006 14.398 103C13.5357 103.006 12.6833 103.176 11.8897 103.5C11.0961 103.824 10.3771 104.296 9.77405 104.888C9.17104 105.48 8.69592 106.182 8.37614 106.951C8.05637 107.721 7.89825 108.544 7.91086 109.372C7.90457 110.197 8.06739 111.015 8.39 111.779C8.71261 112.543 9.18872 113.239 9.79111 113.827C10.3935 114.414 11.1104 114.882 11.9008 115.203C12.6913 115.524 13.5398 115.693 14.398 115.699Z" fill="url(#paint0_linear_5041_13527)"/>
<path d="M24.108 109.831C23.0512 109.374 21.9687 108.974 20.8656 108.633C20.9051 108.908 20.9211 109.186 20.9132 109.463V109.785C24.3465 110.983 26.4446 111.997 26.826 112.55H26.9214V112.642L26.826 112.55C26.2061 112.827 23.8696 112.827 20.2457 112.274C18.386 111.951 16.1448 111.536 13.6653 110.937C11.1857 110.338 9.46916 109.831 7.80024 109.279C3.98554 108.034 1.64902 106.929 1.21987 106.33H1.1722C1.83977 106.007 4.41467 106.099 8.37242 106.744C8.51521 106.369 8.70757 106.012 8.94465 105.684C7.46646 105.454 6.13131 105.27 4.93922 105.178C0.886107 104.809 0.170829 105.408 0.0277781 106.053C-0.115273 106.698 0.170817 107.528 3.89014 109.094C5.03455 109.555 6.36971 110.016 7.84791 110.477C9.3261 110.937 11.3765 111.536 13.3315 111.997C15.2866 112.458 17.6707 112.965 19.5781 113.287C21.4854 113.61 22.01 113.656 23.059 113.748L25.1571 113.84C27.3505 113.84 27.8273 113.333 27.9704 112.827C28.1134 112.32 27.875 111.352 24.108 109.831Z" fill="url(#paint1_linear_5041_13527)"/>
<defs>
<linearGradient id="paint0_linear_5041_13527" x1="29.8409" y1="117.286" x2="10.1367" y2="102.779" gradientUnits="userSpaceOnUse">
<stop offset="0.0863256" stop-color="#3AD889"/>
<stop offset="0.779981" stop-color="#F3FC1F"/>
</linearGradient>
<linearGradient id="paint1_linear_5041_13527" x1="29.8229" y1="115.73" x2="-0.681436" y2="100.839" gradientUnits="userSpaceOnUse">
<stop stop-color="#3AD889"/>
<stop offset="1" stop-color="#F3FC1F"/>
</linearGradient>
</defs>
</svg>
