<svg width="1919" height="287" viewBox="0 0 1919 287" fill="none" xmlns="http://www.w3.org/2000/svg">
<path d="M-4 167L1923 167" stroke="url(#paint0_linear_5286_11633)" stroke-width="2"/>
<path d="M396 98L396 167" stroke="#F3FC1F" stroke-width="2"/>
<path d="M587 167L587 236" stroke="#F3FC1F" stroke-width="2"/>
<path d="M795 98L795 167" stroke="#F3FC1F" stroke-width="2"/>
<path d="M1251 98L1251 167" stroke="#F3FC1F" stroke-width="2"/>
<path d="M1032 167L1032 236" stroke="#F3FC1F" stroke-width="2"/>
<path d="M1464 167L1464 236" stroke="#F3FC1F" stroke-width="2"/>
<rect x="396.07" y="160" width="10" height="10" rx="1" transform="rotate(45 396.07 160)" fill="#F3FC1F"/>
<rect x="587.07" y="160" width="10" height="10" rx="1" transform="rotate(45 587.07 160)" fill="#F3FC1F"/>
<rect x="795.07" y="160" width="10" height="10" rx="1" transform="rotate(45 795.07 160)" fill="#F3FC1F"/>
<rect x="1032.07" y="160" width="10" height="10" rx="1" transform="rotate(45 1032.07 160)" fill="#F3FC1F"/>
<rect x="1464.07" y="160" width="10" height="10" rx="1" transform="rotate(45 1464.07 160)" fill="#F3FC1F"/>
<rect x="1251.07" y="160" width="10" height="10" rx="1" transform="rotate(45 1251.07 160)" fill="#F3FC1F"/>
<path d="M394.813 53.5547H399.188V52.4473H394.813V53.5547ZM405.37 57H408.686C411.618 57 413.341 55.1748 413.341 52.0645V52.0508C413.341 48.9541 411.604 47.1357 408.686 47.1357H405.37V57ZM406.601 55.8926V48.2432H408.603C410.839 48.2432 412.083 49.6035 412.083 52.0645V52.0781C412.083 54.5254 410.839 55.8926 408.603 55.8926H406.601ZM415.642 57H421.753V55.8926H416.872V52.502H421.5V51.4082H416.872V48.2432H421.753V47.1357H415.642V57ZM423.501 57H424.895L427.555 53.0625H427.596L430.221 57H431.697L428.361 52.1055V52.0781L431.772 47.1357H430.371L427.705 51.1074H427.664L425.025 47.1357H423.542L426.864 52.0166V52.0439L423.501 57ZM437.448 57H443.436V55.8926H438.679V47.1357H437.448V57ZM447.453 57.1367C448.404 57.1367 449.258 56.624 449.675 55.8447H449.702V57H450.892V52.085C450.892 50.6631 449.839 49.7539 448.158 49.7539C446.483 49.7539 445.464 50.6973 445.362 51.8662L445.355 51.9414H446.503L446.517 51.8799C446.654 51.2441 447.228 50.8066 448.144 50.8066C449.135 50.8066 449.702 51.333 449.702 52.2012V52.7959L447.665 52.9121C446.032 53.0078 445.088 53.7666 445.088 54.9766V54.9902C445.088 56.2822 446.038 57.1367 447.453 57.1367ZM446.305 54.9902V54.9766C446.305 54.3135 446.852 53.8896 447.802 53.835L449.702 53.7188V54.2998C449.702 55.332 448.841 56.1045 447.72 56.1045C446.866 56.1045 446.305 55.6738 446.305 54.9902ZM455.599 57.1367C456.68 57.1367 457.404 56.6514 457.787 55.9883H457.814V57H459.004V49.8906H457.814V54.0742C457.814 55.2842 457.083 56.084 455.962 56.084C454.868 56.084 454.328 55.4482 454.328 54.293V49.8906H453.139V54.5049C453.139 56.125 454.041 57.1367 455.599 57.1367ZM461.326 57H462.515V52.8164C462.515 51.6064 463.246 50.8066 464.368 50.8066C465.461 50.8066 466.001 51.4424 466.001 52.5977V57H467.191V52.3857C467.191 50.7656 466.288 49.7539 464.73 49.7539C463.65 49.7539 462.925 50.2393 462.542 50.9023H462.515V49.8906H461.326V57ZM472.425 57.1367C474.031 57.1367 475.2 56.0908 475.391 54.7373L475.398 54.6895H474.229L474.216 54.7441C474.017 55.5371 473.395 56.084 472.425 56.084C471.194 56.084 470.346 55.1064 470.346 53.4521V53.4453C470.346 51.832 471.174 50.8066 472.411 50.8066C473.457 50.8066 474.031 51.4355 474.209 52.1465L474.222 52.2012H475.385L475.378 52.1465C475.227 50.9297 474.181 49.7539 472.411 49.7539C470.435 49.7539 469.13 51.1895 469.13 53.4316V53.4385C469.13 55.7012 470.408 57.1367 472.425 57.1367ZM477.324 57H478.513V52.8506C478.513 51.6406 479.244 50.8066 480.345 50.8066C481.452 50.8066 482.109 51.5654 482.109 52.8506V57H483.298V52.6455C483.298 50.9229 482.266 49.7539 480.755 49.7539C479.696 49.7539 478.923 50.2256 478.54 51.0254H478.513V47.1357H477.324V57ZM394.813 77.5547H399.188V76.4473H394.813V77.5547ZM410.262 81.1641C412.327 81.1641 413.906 79.9404 414.282 78.0537L414.295 77.9854H413.051L413.031 78.0469C412.6 79.3457 411.643 80.0293 410.262 80.0293C408.3 80.0293 407.022 78.4639 407.022 76.0645V76.0576C407.022 73.6582 408.293 72.1064 410.262 72.1064C411.65 72.1064 412.621 72.8037 413.003 74L413.051 74.1504H414.295L414.282 74.082C413.906 72.2158 412.313 70.9717 410.262 70.9717C407.514 70.9717 405.757 72.9541 405.757 76.0576V76.0645C405.757 79.168 407.521 81.1641 410.262 81.1641ZM416.337 81H417.526V76.6113C417.526 75.5312 418.128 74.8887 419.051 74.8887C419.338 74.8887 419.591 74.9229 419.686 74.957V73.8018C419.591 73.7881 419.413 73.7539 419.208 73.7539C418.408 73.7539 417.793 74.2734 417.554 75.0938H417.526V73.8906H416.337V81ZM424.032 81.1367C425.994 81.1367 427.32 79.7148 427.32 77.4453V77.4316C427.32 75.1621 425.987 73.7539 424.025 73.7539C422.063 73.7539 420.737 75.1689 420.737 77.4316V77.4453C420.737 79.708 422.056 81.1367 424.032 81.1367ZM424.038 80.084C422.781 80.084 421.954 79.1201 421.954 77.4453V77.4316C421.954 75.7705 422.788 74.8066 424.025 74.8066C425.283 74.8066 426.103 75.7637 426.103 77.4316V77.4453C426.103 79.1133 425.289 80.084 424.038 80.084ZM431.815 81.1367C433.401 81.1367 434.577 80.2617 434.577 79.0176V79.0107C434.577 77.999 434.057 77.4316 432.622 77.083L431.494 76.8096C430.708 76.6182 430.387 76.2832 430.387 75.7979V75.791C430.387 75.1621 430.92 74.7451 431.781 74.7451C432.663 74.7451 433.189 75.2031 433.285 75.8936L433.292 75.9414H434.427L434.42 75.8525C434.331 74.6631 433.34 73.7539 431.781 73.7539C430.243 73.7539 429.17 74.6221 429.17 75.8457V75.8525C429.17 76.8779 429.819 77.5 431.159 77.8213L432.287 78.0947C433.094 78.293 433.36 78.5801 433.36 79.0928V79.0996C433.36 79.7422 432.786 80.1455 431.822 80.1455C430.851 80.1455 430.325 79.7285 430.182 79.0176L430.168 78.9492H428.978L428.985 79.0107C429.129 80.2822 430.141 81.1367 431.815 81.1367ZM439.107 81.1367C440.693 81.1367 441.869 80.2617 441.869 79.0176V79.0107C441.869 77.999 441.349 77.4316 439.913 77.083L438.786 76.8096C437.999 76.6182 437.678 76.2832 437.678 75.7979V75.791C437.678 75.1621 438.211 74.7451 439.073 74.7451C439.954 74.7451 440.481 75.2031 440.577 75.8936L440.583 75.9414H441.718L441.711 75.8525C441.622 74.6631 440.631 73.7539 439.073 73.7539C437.535 73.7539 436.461 74.6221 436.461 75.8457V75.8525C436.461 76.8779 437.111 77.5 438.451 77.8213L439.578 78.0947C440.385 78.293 440.652 78.5801 440.652 79.0928V79.0996C440.652 79.7422 440.077 80.1455 439.114 80.1455C438.143 80.1455 437.617 79.7285 437.473 79.0176L437.459 78.9492H436.27L436.277 79.0107C436.42 80.2822 437.432 81.1367 439.107 81.1367ZM450.463 81.1367C452.07 81.1367 453.239 80.0908 453.43 78.7373L453.437 78.6895H452.268L452.254 78.7441C452.056 79.5371 451.434 80.084 450.463 80.084C449.233 80.084 448.385 79.1064 448.385 77.4521V77.4453C448.385 75.832 449.212 74.8066 450.45 74.8066C451.495 74.8066 452.07 75.4355 452.247 76.1465L452.261 76.2012H453.423L453.416 76.1465C453.266 74.9297 452.22 73.7539 450.45 73.7539C448.474 73.7539 447.168 75.1895 447.168 77.4316V77.4385C447.168 79.7012 448.447 81.1367 450.463 81.1367ZM455.362 81H456.552V76.8506C456.552 75.6406 457.283 74.8066 458.384 74.8066C459.491 74.8066 460.147 75.5654 460.147 76.8506V81H461.337V76.6455C461.337 74.9229 460.304 73.7539 458.794 73.7539C457.734 73.7539 456.962 74.2256 456.579 75.0254H456.552V71.1357H455.362V81ZM465.696 81.1367C466.646 81.1367 467.5 80.624 467.917 79.8447H467.945V81H469.134V76.085C469.134 74.6631 468.081 73.7539 466.4 73.7539C464.725 73.7539 463.706 74.6973 463.604 75.8662L463.597 75.9414H464.745L464.759 75.8799C464.896 75.2441 465.47 74.8066 466.386 74.8066C467.377 74.8066 467.945 75.333 467.945 76.2012V76.7959L465.908 76.9121C464.274 77.0078 463.33 77.7666 463.33 78.9766V78.9902C463.33 80.2822 464.281 81.1367 465.696 81.1367ZM464.547 78.9902V78.9766C464.547 78.3135 465.094 77.8896 466.044 77.835L467.945 77.7188V78.2998C467.945 79.332 467.083 80.1045 465.962 80.1045C465.108 80.1045 464.547 79.6738 464.547 78.9902ZM472.085 72.6875C472.502 72.6875 472.83 72.3525 472.83 71.9424C472.83 71.5254 472.502 71.1973 472.085 71.1973C471.675 71.1973 471.34 71.5254 471.34 71.9424C471.34 72.3525 471.675 72.6875 472.085 72.6875ZM471.49 81H472.679V73.8906H471.49V81ZM475.07 81H476.259V76.8164C476.259 75.6064 476.99 74.8066 478.112 74.8066C479.205 74.8066 479.745 75.4424 479.745 76.5977V81H480.935V76.3857C480.935 74.7656 480.032 73.7539 478.474 73.7539C477.394 73.7539 476.669 74.2393 476.286 74.9023H476.259V73.8906H475.07V81ZM490.398 81.1367C492.216 81.1367 493.419 79.6875 493.419 77.4453V77.4385C493.419 75.1963 492.202 73.7539 490.418 73.7539C489.413 73.7539 488.586 74.2598 488.142 75.0801H488.114V71.1357H486.925V81H488.114V79.7969H488.142C488.586 80.624 489.379 81.1367 490.398 81.1367ZM490.165 80.084C488.962 80.084 488.108 79.0381 488.108 77.4453V77.4385C488.108 75.8525 488.969 74.8066 490.165 74.8066C491.423 74.8066 492.202 75.8184 492.202 77.4385V77.4453C492.202 79.0791 491.423 80.084 490.165 80.084ZM495.385 81H496.575V76.6113C496.575 75.5312 497.176 74.8887 498.099 74.8887C498.386 74.8887 498.639 74.9229 498.735 74.957V73.8018C498.639 73.7881 498.462 73.7539 498.257 73.7539C497.457 73.7539 496.841 74.2734 496.602 75.0938H496.575V73.8906H495.385V81ZM501.146 72.6875C501.563 72.6875 501.891 72.3525 501.891 71.9424C501.891 71.5254 501.563 71.1973 501.146 71.1973C500.736 71.1973 500.401 71.5254 500.401 71.9424C500.401 72.3525 500.736 72.6875 501.146 72.6875ZM500.551 81H501.74V73.8906H500.551V81ZM506.803 81.1367C507.822 81.1367 508.615 80.624 509.059 79.7969H509.087V81H510.276V71.1357H509.087V75.0801H509.059C508.615 74.2598 507.788 73.7539 506.783 73.7539C504.999 73.7539 503.782 75.1963 503.782 77.4385V77.4453C503.782 79.6875 504.985 81.1367 506.803 81.1367ZM507.036 80.084C505.778 80.084 504.999 79.0791 504.999 77.4453V77.4385C504.999 75.8184 505.778 74.8066 507.036 74.8066C508.232 74.8066 509.093 75.8525 509.093 77.4385V77.4453C509.093 79.0381 508.239 80.084 507.036 80.084ZM515.66 83.5293C517.588 83.5293 518.798 82.4492 518.798 80.8018V73.8906H517.609V75.0938H517.581C517.144 74.3008 516.351 73.7539 515.346 73.7539C513.541 73.7539 512.304 75.1895 512.304 77.3975V77.4043C512.304 79.626 513.527 81.0684 515.318 81.0684C516.337 81.0684 517.157 80.5625 517.581 79.7764H517.609V80.6855C517.609 81.7861 516.898 82.4766 515.647 82.4766C514.676 82.4766 513.999 82.1621 513.774 81.6494L513.746 81.5879H512.55L512.564 81.6494C512.796 82.7021 513.903 83.5293 515.66 83.5293ZM515.578 80.0156C514.314 80.0156 513.521 79.0176 513.521 77.4043V77.3975C513.521 75.8184 514.314 74.8066 515.578 74.8066C516.781 74.8066 517.609 75.832 517.609 77.3975V77.4043C517.609 78.9834 516.788 80.0156 515.578 80.0156ZM524.032 81.1367C525.584 81.1367 526.746 80.207 526.978 79.0312L526.992 78.9629H525.823L525.802 79.0244C525.597 79.6328 524.962 80.084 524.059 80.084C522.795 80.084 521.988 79.2295 521.961 77.7666H527.081V77.3291C527.081 75.1963 525.898 73.7539 523.957 73.7539C522.015 73.7539 520.757 75.2646 520.757 77.4658V77.4727C520.757 79.708 521.988 81.1367 524.032 81.1367ZM523.95 74.8066C524.989 74.8066 525.754 75.4561 525.871 76.8369H521.981C522.111 75.5107 522.918 74.8066 523.95 74.8066ZM535.163 83.3926H536.161C535.176 82.251 534.431 79.5439 534.431 77.2607C534.431 74.9775 535.176 72.2773 536.161 71.1357H535.163C533.83 72.8311 533.221 74.8271 533.221 77.2607C533.221 79.6943 533.83 81.7041 535.163 83.3926ZM538.161 81H544.273V79.8926H539.392V76.502H544.02V75.4082H539.392V72.2432H544.273V71.1357H538.161V81ZM548.795 81.1367C549.028 81.1367 549.281 81.1094 549.431 81.0889V80.125C549.329 80.1318 549.192 80.1523 549.048 80.1523C548.413 80.1523 548.078 79.9404 548.078 79.1816V74.875H549.431V73.8906H548.078V71.9697H546.847V73.8906H545.808V74.875H546.847V79.1885C546.847 80.5488 547.49 81.1367 548.795 81.1367ZM551.541 81H552.73V76.8506C552.73 75.6406 553.462 74.8066 554.562 74.8066C555.67 74.8066 556.326 75.5654 556.326 76.8506V81H557.516V76.6455C557.516 74.9229 556.483 73.7539 554.973 73.7539C553.913 73.7539 553.141 74.2256 552.758 75.0254H552.73V71.1357H551.541V81ZM562.722 81.1367C564.274 81.1367 565.436 80.207 565.668 79.0312L565.682 78.9629H564.513L564.493 79.0244C564.288 79.6328 563.652 80.084 562.749 80.084C561.485 80.084 560.678 79.2295 560.651 77.7666H565.771V77.3291C565.771 75.1963 564.588 73.7539 562.647 73.7539C560.706 73.7539 559.448 75.2646 559.448 77.4658V77.4727C559.448 79.708 560.678 81.1367 562.722 81.1367ZM562.64 74.8066C563.679 74.8066 564.445 75.4561 564.561 76.8369H560.671C560.801 75.5107 561.608 74.8066 562.64 74.8066ZM567.744 81H568.934V76.6113C568.934 75.5312 569.535 74.8887 570.458 74.8887C570.745 74.8887 570.998 74.9229 571.094 74.957V73.8018C570.998 73.7881 570.82 73.7539 570.615 73.7539C569.815 73.7539 569.2 74.2734 568.961 75.0938H568.934V73.8906H567.744V81ZM575.418 81.1367C576.97 81.1367 578.132 80.207 578.365 79.0312L578.378 78.9629H577.209L577.189 79.0244C576.984 79.6328 576.348 80.084 575.446 80.084C574.181 80.084 573.374 79.2295 573.347 77.7666H578.467V77.3291C578.467 75.1963 577.285 73.7539 575.343 73.7539C573.402 73.7539 572.144 75.2646 572.144 77.4658V77.4727C572.144 79.708 573.374 81.1367 575.418 81.1367ZM575.336 74.8066C576.375 74.8066 577.141 75.4561 577.257 76.8369H573.368C573.497 75.5107 574.304 74.8066 575.336 74.8066ZM582.867 81.1367C583.947 81.1367 584.672 80.6514 585.055 79.9883H585.082V81H586.271V73.8906H585.082V78.0742C585.082 79.2842 584.351 80.084 583.229 80.084C582.136 80.084 581.596 79.4482 581.596 78.293V73.8906H580.406V78.5049C580.406 80.125 581.309 81.1367 582.867 81.1367ZM588.593 81H589.783V76.543C589.783 75.5518 590.466 74.8066 591.41 74.8066C592.291 74.8066 592.866 75.374 592.866 76.2354V81H594.055V76.4814C594.055 75.5107 594.718 74.8066 595.662 74.8066C596.598 74.8066 597.138 75.3877 597.138 76.3652V81H598.328V76.0918C598.328 74.6768 597.418 73.7539 596.01 73.7539C595.012 73.7539 594.178 74.2666 593.782 75.1211H593.754C593.447 74.2529 592.729 73.7539 591.758 73.7539C590.842 73.7539 590.131 74.2256 589.81 74.9297H589.783V73.8906H588.593V81ZM601.114 83.3926C602.447 81.7041 603.056 79.6943 603.056 77.2607C603.056 74.8271 602.447 72.8311 601.114 71.1357H600.116C601.1 72.2773 601.846 74.9775 601.846 77.2607C601.846 79.5439 601.1 82.251 600.116 83.3926H601.114Z" fill="white"/>
<path d="M788.813 7.55469H793.188V6.44727H788.813V7.55469ZM800.14 11H803.866C805.964 11 807.208 9.96777 807.208 8.23145V8.21777C807.208 6.91211 806.347 5.95508 804.925 5.79102V5.76367C805.944 5.62012 806.709 4.62891 806.709 3.61035V3.59668C806.709 2.12012 805.568 1.13574 803.879 1.13574H800.14V11ZM803.599 2.22266C804.789 2.22266 805.465 2.75586 805.465 3.72656V3.74023C805.465 4.80664 804.672 5.3877 803.216 5.3877H801.371V2.22266H803.599ZM803.565 6.44727C805.137 6.44727 805.944 7.02832 805.944 8.16992V8.18359C805.944 9.31836 805.158 9.91309 803.681 9.91309H801.371V6.44727H803.565ZM813.495 11.1641C815.559 11.1641 817.139 9.94043 817.515 8.05371L817.528 7.98535H816.284L816.264 8.04688C815.833 9.3457 814.876 10.0293 813.495 10.0293C811.533 10.0293 810.255 8.46387 810.255 6.06445V6.05762C810.255 3.6582 811.526 2.10645 813.495 2.10645C814.883 2.10645 815.853 2.80371 816.236 4L816.284 4.15039H817.528L817.515 4.08203C817.139 2.21582 815.546 0.97168 813.495 0.97168C810.747 0.97168 808.99 2.9541 808.99 6.05762V6.06445C808.99 9.16797 810.754 11.1641 813.495 11.1641ZM822.981 11.1641C825.237 11.1641 826.624 10.0566 826.624 8.30664V8.2998C826.624 6.7959 825.777 5.97559 823.753 5.53125L822.66 5.29199C821.374 5.01172 820.78 4.50586 820.78 3.69922V3.69238C820.78 2.74219 821.641 2.11328 822.96 2.10645C824.211 2.10645 825.052 2.70117 825.203 3.70605L825.216 3.80176H826.447L826.44 3.69922C826.33 2.08594 824.922 0.97168 822.995 0.97168C820.964 0.97168 819.529 2.10645 819.522 3.72656V3.7334C819.522 5.17578 820.424 6.04395 822.352 6.46777L823.446 6.70703C824.799 7.00781 825.367 7.49316 825.367 8.36133V8.36816C825.367 9.38672 824.471 10.0293 823.049 10.0293C821.621 10.0293 820.663 9.4209 820.52 8.42969L820.506 8.33398H819.276L819.283 8.42969C819.406 10.1182 820.848 11.1641 822.981 11.1641ZM832.478 11H836.203C838.302 11 839.546 9.96777 839.546 8.23145V8.21777C839.546 6.91211 838.685 5.95508 837.263 5.79102V5.76367C838.282 5.62012 839.047 4.62891 839.047 3.61035V3.59668C839.047 2.12012 837.906 1.13574 836.217 1.13574H832.478V11ZM835.937 2.22266C837.126 2.22266 837.803 2.75586 837.803 3.72656V3.74023C837.803 4.80664 837.01 5.3877 835.554 5.3877H833.708V2.22266H835.937ZM835.903 6.44727C837.475 6.44727 838.282 7.02832 838.282 8.16992V8.18359C838.282 9.31836 837.495 9.91309 836.019 9.91309H833.708V6.44727H835.903ZM841.526 11H842.716V6.61133C842.716 5.53125 843.317 4.88867 844.24 4.88867C844.527 4.88867 844.78 4.92285 844.876 4.95703V3.80176C844.78 3.78809 844.602 3.75391 844.397 3.75391C843.597 3.75391 842.982 4.27344 842.743 5.09375H842.716V3.89062H841.526V11ZM847.286 2.6875C847.703 2.6875 848.032 2.35254 848.032 1.94238C848.032 1.52539 847.703 1.19727 847.286 1.19727C846.876 1.19727 846.541 1.52539 846.541 1.94238C846.541 2.35254 846.876 2.6875 847.286 2.6875ZM846.692 11H847.881V3.89062H846.692V11ZM852.944 11.1367C853.963 11.1367 854.756 10.624 855.2 9.79688H855.227V11H856.417V1.13574H855.227V5.08008H855.2C854.756 4.25977 853.929 3.75391 852.924 3.75391C851.139 3.75391 849.923 5.19629 849.923 7.43848V7.44531C849.923 9.6875 851.126 11.1367 852.944 11.1367ZM853.177 10.084C851.919 10.084 851.139 9.0791 851.139 7.44531V7.43848C851.139 5.81836 851.919 4.80664 853.177 4.80664C854.373 4.80664 855.234 5.85254 855.234 7.43848V7.44531C855.234 9.03809 854.38 10.084 853.177 10.084ZM861.801 13.5293C863.729 13.5293 864.939 12.4492 864.939 10.8018V3.89062H863.749V5.09375H863.722C863.284 4.30078 862.491 3.75391 861.487 3.75391C859.682 3.75391 858.445 5.18945 858.445 7.39746V7.4043C858.445 9.62598 859.668 11.0684 861.459 11.0684C862.478 11.0684 863.298 10.5625 863.722 9.77637H863.749V10.6855C863.749 11.7861 863.038 12.4766 861.787 12.4766C860.817 12.4766 860.14 12.1621 859.914 11.6494L859.887 11.5879H858.691L858.704 11.6494C858.937 12.7021 860.044 13.5293 861.801 13.5293ZM861.719 10.0156C860.454 10.0156 859.661 9.01758 859.661 7.4043V7.39746C859.661 5.81836 860.454 4.80664 861.719 4.80664C862.922 4.80664 863.749 5.83203 863.749 7.39746V7.4043C863.749 8.9834 862.929 10.0156 861.719 10.0156ZM870.173 11.1367C871.724 11.1367 872.886 10.207 873.119 9.03125L873.133 8.96289H871.964L871.943 9.02441C871.738 9.63281 871.102 10.084 870.2 10.084C868.935 10.084 868.129 9.22949 868.101 7.7666H873.221V7.3291C873.221 5.19629 872.039 3.75391 870.097 3.75391C868.156 3.75391 866.898 5.26465 866.898 7.46582V7.47266C866.898 9.70801 868.129 11.1367 870.173 11.1367ZM870.091 4.80664C871.13 4.80664 871.895 5.45605 872.011 6.83691H868.122C868.252 5.51074 869.058 4.80664 870.091 4.80664ZM882.247 11.1641C884.503 11.1641 885.89 10.0566 885.89 8.30664V8.2998C885.89 6.7959 885.043 5.97559 883.019 5.53125L881.926 5.29199C880.64 5.01172 880.046 4.50586 880.046 3.69922V3.69238C880.046 2.74219 880.907 2.11328 882.226 2.10645C883.477 2.10645 884.318 2.70117 884.468 3.70605L884.482 3.80176H885.713L885.706 3.69922C885.596 2.08594 884.188 0.97168 882.26 0.97168C880.23 0.97168 878.795 2.10645 878.788 3.72656V3.7334C878.788 5.17578 879.69 6.04395 881.618 6.46777L882.712 6.70703C884.065 7.00781 884.633 7.49316 884.633 8.36133V8.36816C884.633 9.38672 883.737 10.0293 882.315 10.0293C880.886 10.0293 879.929 9.4209 879.786 8.42969L879.772 8.33398H878.542L878.549 8.42969C878.672 10.1182 880.114 11.1641 882.247 11.1641ZM890.345 11.1367C891.425 11.1367 892.15 10.6514 892.532 9.98828H892.56V11H893.749V3.89062H892.56V8.07422C892.56 9.28418 891.828 10.084 890.707 10.084C889.613 10.084 889.073 9.44824 889.073 8.29297V3.89062H887.884V8.50488C887.884 10.125 888.786 11.1367 890.345 11.1367ZM896.071 13.3926H897.26V9.81055H897.288C897.732 10.6309 898.559 11.1367 899.564 11.1367C901.348 11.1367 902.565 9.69434 902.565 7.45215V7.44531C902.565 5.20312 901.362 3.75391 899.544 3.75391C898.525 3.75391 897.732 4.2666 897.288 5.09375H897.26V3.89062H896.071V13.3926ZM899.311 10.084C898.115 10.084 897.254 9.03809 897.254 7.45215V7.44531C897.254 5.85254 898.108 4.80664 899.311 4.80664C900.569 4.80664 901.348 5.81152 901.348 7.44531V7.45215C901.348 9.07227 900.569 10.084 899.311 10.084ZM904.538 13.3926H905.728V9.81055H905.755C906.199 10.6309 907.027 11.1367 908.031 11.1367C909.816 11.1367 911.032 9.69434 911.032 7.45215V7.44531C911.032 5.20312 909.829 3.75391 908.011 3.75391C906.992 3.75391 906.199 4.2666 905.755 5.09375H905.728V3.89062H904.538V13.3926ZM907.778 10.084C906.582 10.084 905.721 9.03809 905.721 7.45215V7.44531C905.721 5.85254 906.575 4.80664 907.778 4.80664C909.036 4.80664 909.816 5.81152 909.816 7.44531V7.45215C909.816 9.07227 909.036 10.084 907.778 10.084ZM915.952 11.1367C917.914 11.1367 919.24 9.71484 919.24 7.44531V7.43164C919.24 5.16211 917.907 3.75391 915.945 3.75391C913.983 3.75391 912.657 5.16895 912.657 7.43164V7.44531C912.657 9.70801 913.976 11.1367 915.952 11.1367ZM915.959 10.084C914.701 10.084 913.874 9.12012 913.874 7.44531V7.43164C913.874 5.77051 914.708 4.80664 915.945 4.80664C917.203 4.80664 918.023 5.76367 918.023 7.43164V7.44531C918.023 9.11328 917.21 10.084 915.959 10.084ZM921.213 11H922.402V6.61133C922.402 5.53125 923.004 4.88867 923.927 4.88867C924.214 4.88867 924.467 4.92285 924.563 4.95703V3.80176C924.467 3.78809 924.289 3.75391 924.084 3.75391C923.284 3.75391 922.669 4.27344 922.43 5.09375H922.402V3.89062H921.213V11ZM928.614 11.1367C928.846 11.1367 929.099 11.1094 929.25 11.0889V10.125C929.147 10.1318 929.01 10.1523 928.867 10.1523C928.231 10.1523 927.896 9.94043 927.896 9.18164V4.875H929.25V3.89062H927.896V1.96973H926.666V3.89062H925.627V4.875H926.666V9.18848C926.666 10.5488 927.308 11.1367 928.614 11.1367ZM788.813 31.5547H793.188V30.4473H788.813V31.5547ZM800.14 35H806.128V33.8926H801.371V25.1357H800.14V35ZM810.788 35.1367C812.34 35.1367 813.502 34.207 813.734 33.0312L813.748 32.9629H812.579L812.559 33.0244C812.353 33.6328 811.718 34.084 810.815 34.084C809.551 34.084 808.744 33.2295 808.717 31.7666H813.837V31.3291C813.837 29.1963 812.654 27.7539 810.713 27.7539C808.771 27.7539 807.514 29.2646 807.514 31.4658V31.4727C807.514 33.708 808.744 35.1367 810.788 35.1367ZM810.706 28.8066C811.745 28.8066 812.511 29.4561 812.627 30.8369H808.737C808.867 29.5107 809.674 28.8066 810.706 28.8066ZM815.81 35H816.999V30.8164C816.999 29.6064 817.731 28.8066 818.852 28.8066C819.946 28.8066 820.486 29.4424 820.486 30.5977V35H821.675V30.3857C821.675 28.7656 820.773 27.7539 819.214 27.7539C818.134 27.7539 817.41 28.2393 817.027 28.9023H816.999V27.8906H815.81V35ZM826.636 35.1367C827.654 35.1367 828.447 34.624 828.891 33.7969H828.919V35H830.108V25.1357H828.919V29.0801H828.891C828.447 28.2598 827.62 27.7539 826.615 27.7539C824.831 27.7539 823.614 29.1963 823.614 31.4385V31.4453C823.614 33.6875 824.817 35.1367 826.636 35.1367ZM826.868 34.084C825.61 34.084 824.831 33.0791 824.831 31.4453V31.4385C824.831 29.8184 825.61 28.8066 826.868 28.8066C828.064 28.8066 828.926 29.8525 828.926 31.4385V31.4453C828.926 33.0381 828.071 34.084 826.868 34.084ZM833.155 26.6875C833.572 26.6875 833.9 26.3525 833.9 25.9424C833.9 25.5254 833.572 25.1973 833.155 25.1973C832.744 25.1973 832.41 25.5254 832.41 25.9424C832.41 26.3525 832.744 26.6875 833.155 26.6875ZM832.56 35H833.749V27.8906H832.56V35ZM836.139 35H837.329V30.8164C837.329 29.6064 838.06 28.8066 839.181 28.8066C840.275 28.8066 840.815 29.4424 840.815 30.5977V35H842.005V30.3857C842.005 28.7656 841.102 27.7539 839.544 27.7539C838.464 27.7539 837.739 28.2393 837.356 28.9023H837.329V27.8906H836.139V35ZM847.3 37.5293C849.228 37.5293 850.438 36.4492 850.438 34.8018V27.8906H849.248V29.0938H849.221C848.784 28.3008 847.991 27.7539 846.986 27.7539C845.181 27.7539 843.944 29.1895 843.944 31.3975V31.4043C843.944 33.626 845.167 35.0684 846.958 35.0684C847.977 35.0684 848.797 34.5625 849.221 33.7764H849.248V34.6855C849.248 35.7861 848.537 36.4766 847.286 36.4766C846.316 36.4766 845.639 36.1621 845.413 35.6494L845.386 35.5879H844.19L844.203 35.6494C844.436 36.7021 845.543 37.5293 847.3 37.5293ZM847.218 34.0156C845.953 34.0156 845.16 33.0176 845.16 31.4043V31.3975C845.16 29.8184 845.953 28.8066 847.218 28.8066C848.421 28.8066 849.248 29.832 849.248 31.3975V31.4043C849.248 32.9834 848.428 34.0156 847.218 34.0156ZM856.572 35H862.56V33.8926H857.802V25.1357H856.572V35ZM866.577 35.1367C867.527 35.1367 868.382 34.624 868.799 33.8447H868.826V35H870.015V30.085C870.015 28.6631 868.963 27.7539 867.281 27.7539C865.606 27.7539 864.588 28.6973 864.485 29.8662L864.478 29.9414H865.627L865.64 29.8799C865.777 29.2441 866.351 28.8066 867.267 28.8066C868.259 28.8066 868.826 29.333 868.826 30.2012V30.7959L866.789 30.9121C865.155 31.0078 864.212 31.7666 864.212 32.9766V32.9902C864.212 34.2822 865.162 35.1367 866.577 35.1367ZM865.428 32.9902V32.9766C865.428 32.3135 865.975 31.8896 866.926 31.835L868.826 31.7188V32.2998C868.826 33.332 867.965 34.1045 866.844 34.1045C865.989 34.1045 865.428 33.6738 865.428 32.9902ZM874.723 35.1367C875.803 35.1367 876.528 34.6514 876.91 33.9883H876.938V35H878.127V27.8906H876.938V32.0742C876.938 33.2842 876.206 34.084 875.085 34.084C873.991 34.084 873.451 33.4482 873.451 32.293V27.8906H872.262V32.5049C872.262 34.125 873.164 35.1367 874.723 35.1367ZM880.449 35H881.638V30.8164C881.638 29.6064 882.37 28.8066 883.491 28.8066C884.585 28.8066 885.125 29.4424 885.125 30.5977V35H886.314V30.3857C886.314 28.7656 885.412 27.7539 883.853 27.7539C882.773 27.7539 882.049 28.2393 881.666 28.9023H881.638V27.8906H880.449V35ZM891.548 35.1367C893.154 35.1367 894.323 34.0908 894.515 32.7373L894.522 32.6895H893.353L893.339 32.7441C893.141 33.5371 892.519 34.084 891.548 34.084C890.318 34.084 889.47 33.1064 889.47 31.4521V31.4453C889.47 29.832 890.297 28.8066 891.534 28.8066C892.58 28.8066 893.154 29.4355 893.332 30.1465L893.346 30.2012H894.508L894.501 30.1465C894.351 28.9297 893.305 27.7539 891.534 27.7539C889.559 27.7539 888.253 29.1895 888.253 31.4316V31.4385C888.253 33.7012 889.531 35.1367 891.548 35.1367ZM896.447 35H897.636V30.8506C897.636 29.6406 898.368 28.8066 899.468 28.8066C900.576 28.8066 901.232 29.5654 901.232 30.8506V35H902.422V30.6455C902.422 28.9229 901.389 27.7539 899.879 27.7539C898.819 27.7539 898.047 28.2256 897.664 29.0254H897.636V25.1357H896.447V35ZM789.583 55.5547H793.958V54.4473H789.583V55.5547ZM804.262 59.1641C806.327 59.1641 807.906 57.9404 808.282 56.0537L808.295 55.9854H807.051L807.031 56.0469C806.6 57.3457 805.643 58.0293 804.262 58.0293C802.3 58.0293 801.022 56.4639 801.022 54.0645V54.0576C801.022 51.6582 802.293 50.1064 804.262 50.1064C805.65 50.1064 806.621 50.8037 807.003 52L807.051 52.1504H808.295L808.282 52.082C807.906 50.2158 806.313 48.9717 804.262 48.9717C801.514 48.9717 799.757 50.9541 799.757 54.0576V54.0645C799.757 57.168 801.521 59.1641 804.262 59.1641ZM812.415 59.1367C813.365 59.1367 814.22 58.624 814.637 57.8447H814.664V59H815.853V54.085C815.853 52.6631 814.801 51.7539 813.119 51.7539C811.444 51.7539 810.426 52.6973 810.323 53.8662L810.316 53.9414H811.465L811.478 53.8799C811.615 53.2441 812.189 52.8066 813.105 52.8066C814.097 52.8066 814.664 53.333 814.664 54.2012V54.7959L812.627 54.9121C810.993 55.0078 810.05 55.7666 810.05 56.9766V56.9902C810.05 58.2822 811 59.1367 812.415 59.1367ZM811.267 56.9902V56.9766C811.267 56.3135 811.813 55.8896 812.764 55.835L814.664 55.7188V56.2998C814.664 57.332 813.803 58.1045 812.682 58.1045C811.827 58.1045 811.267 57.6738 811.267 56.9902ZM820.657 59.1367C822.243 59.1367 823.418 58.2617 823.418 57.0176V57.0107C823.418 55.999 822.899 55.4316 821.463 55.083L820.335 54.8096C819.549 54.6182 819.228 54.2832 819.228 53.7979V53.791C819.228 53.1621 819.761 52.7451 820.622 52.7451C821.504 52.7451 822.031 53.2031 822.126 53.8936L822.133 53.9414H823.268L823.261 53.8525C823.172 52.6631 822.181 51.7539 820.622 51.7539C819.084 51.7539 818.011 52.6221 818.011 53.8457V53.8525C818.011 54.8779 818.661 55.5 820 55.8213L821.128 56.0947C821.935 56.293 822.202 56.5801 822.202 57.0928V57.0996C822.202 57.7422 821.627 58.1455 820.663 58.1455C819.693 58.1455 819.166 57.7285 819.023 57.0176L819.009 56.9492H817.82L817.827 57.0107C817.97 58.2822 818.982 59.1367 820.657 59.1367ZM825.487 59H826.677V54.8506C826.677 53.6406 827.408 52.8066 828.509 52.8066C829.616 52.8066 830.272 53.5654 830.272 54.8506V59H831.462V54.6455C831.462 52.9229 830.43 51.7539 828.919 51.7539C827.859 51.7539 827.087 52.2256 826.704 53.0254H826.677V49.1357H825.487V59ZM836.782 59H838.074L839.072 56.1768H843.044L844.042 59H845.334L841.67 49.1357H840.453L836.782 59ZM841.048 50.6123H841.075L842.675 55.1309H839.448L841.048 50.6123ZM847.054 61.3926H848.243V57.8105H848.271C848.715 58.6309 849.542 59.1367 850.547 59.1367C852.331 59.1367 853.548 57.6943 853.548 55.4521V55.4453C853.548 53.2031 852.345 51.7539 850.527 51.7539C849.508 51.7539 848.715 52.2666 848.271 53.0938H848.243V51.8906H847.054V61.3926ZM850.294 58.084C849.098 58.084 848.237 57.0381 848.237 55.4521V55.4453C848.237 53.8525 849.091 52.8066 850.294 52.8066C851.552 52.8066 852.331 53.8115 852.331 55.4453V55.4521C852.331 57.0723 851.552 58.084 850.294 58.084ZM855.521 61.3926H856.711V57.8105H856.738C857.182 58.6309 858.01 59.1367 859.014 59.1367C860.799 59.1367 862.015 57.6943 862.015 55.4521V55.4453C862.015 53.2031 860.812 51.7539 858.994 51.7539C857.975 51.7539 857.182 52.2666 856.738 53.0938H856.711V51.8906H855.521V61.3926ZM858.762 58.084C857.565 58.084 856.704 57.0381 856.704 55.4521V55.4453C856.704 53.8525 857.558 52.8066 858.762 52.8066C860.019 52.8066 860.799 53.8115 860.799 55.4453V55.4521C860.799 57.0723 860.019 58.084 858.762 58.084ZM867.814 59H873.802V57.8926H869.045V49.1357H867.814V59ZM877.82 59.1367C878.77 59.1367 879.624 58.624 880.041 57.8447H880.069V59H881.258V54.085C881.258 52.6631 880.205 51.7539 878.524 51.7539C876.849 51.7539 875.83 52.6973 875.728 53.8662L875.721 53.9414H876.869L876.883 53.8799C877.02 53.2441 877.594 52.8066 878.51 52.8066C879.501 52.8066 880.069 53.333 880.069 54.2012V54.7959L878.031 54.9121C876.398 55.0078 875.454 55.7666 875.454 56.9766V56.9902C875.454 58.2822 876.405 59.1367 877.82 59.1367ZM876.671 56.9902V56.9766C876.671 56.3135 877.218 55.8896 878.168 55.835L880.069 55.7188V56.2998C880.069 57.332 879.207 58.1045 878.086 58.1045C877.232 58.1045 876.671 57.6738 876.671 56.9902ZM885.966 59.1367C887.046 59.1367 887.77 58.6514 888.153 57.9883H888.18V59H889.37V51.8906H888.18V56.0742C888.18 57.2842 887.449 58.084 886.328 58.084C885.234 58.084 884.694 57.4482 884.694 56.293V51.8906H883.505V56.5049C883.505 58.125 884.407 59.1367 885.966 59.1367ZM891.692 59H892.881V54.8164C892.881 53.6064 893.613 52.8066 894.734 52.8066C895.827 52.8066 896.367 53.4424 896.367 54.5977V59H897.557V54.3857C897.557 52.7656 896.654 51.7539 895.096 51.7539C894.016 51.7539 893.291 52.2393 892.908 52.9023H892.881V51.8906H891.692V59ZM902.791 59.1367C904.397 59.1367 905.566 58.0908 905.757 56.7373L905.764 56.6895H904.595L904.582 56.7441C904.383 57.5371 903.761 58.084 902.791 58.084C901.56 58.084 900.713 57.1064 900.713 55.4521V55.4453C900.713 53.832 901.54 52.8066 902.777 52.8066C903.823 52.8066 904.397 53.4355 904.575 54.1465L904.589 54.2012H905.751L905.744 54.1465C905.593 52.9297 904.548 51.7539 902.777 51.7539C900.801 51.7539 899.496 53.1895 899.496 55.4316V55.4385C899.496 57.7012 900.774 59.1367 902.791 59.1367ZM907.69 59H908.879V54.8506C908.879 53.6406 909.611 52.8066 910.711 52.8066C911.819 52.8066 912.475 53.5654 912.475 54.8506V59H913.664V54.6455C913.664 52.9229 912.632 51.7539 911.121 51.7539C910.062 51.7539 909.289 52.2256 908.906 53.0254H908.879V49.1357H907.69V59ZM788.813 79.5547H793.188V78.4473H788.813V79.5547ZM799.37 83H800.601V78.7275H804.969V77.6338H800.601V74.2432H805.358V73.1357H799.37V83ZM808.022 74.6875C808.439 74.6875 808.767 74.3525 808.767 73.9424C808.767 73.5254 808.439 73.1973 808.022 73.1973C807.612 73.1973 807.277 73.5254 807.277 73.9424C807.277 74.3525 807.612 74.6875 808.022 74.6875ZM807.427 83H808.617V75.8906H807.427V83ZM813.085 83.1367C814.035 83.1367 814.89 82.624 815.307 81.8447H815.334V83H816.523V78.085C816.523 76.6631 815.471 75.7539 813.789 75.7539C812.114 75.7539 811.096 76.6973 810.993 77.8662L810.986 77.9414H812.135L812.148 77.8799C812.285 77.2441 812.859 76.8066 813.775 76.8066C814.767 76.8066 815.334 77.333 815.334 78.2012V78.7959L813.297 78.9121C811.663 79.0078 810.72 79.7666 810.72 80.9766V80.9902C810.72 82.2822 811.67 83.1367 813.085 83.1367ZM811.936 80.9902V80.9766C811.936 80.3135 812.483 79.8896 813.434 79.835L815.334 79.7188V80.2998C815.334 81.332 814.473 82.1045 813.351 82.1045C812.497 82.1045 811.936 81.6738 811.936 80.9902ZM821.115 83.1367C821.347 83.1367 821.6 83.1094 821.75 83.0889V82.125C821.648 82.1318 821.511 82.1523 821.368 82.1523C820.732 82.1523 820.397 81.9404 820.397 81.1816V76.875H821.75V75.8906H820.397V73.9697H819.166V75.8906H818.127V76.875H819.166V81.1885C819.166 82.5488 819.809 83.1367 821.115 83.1367ZM830.386 83.1367C832.348 83.1367 833.674 81.7148 833.674 79.4453V79.4316C833.674 77.1621 832.341 75.7539 830.379 75.7539C828.417 75.7539 827.091 77.1689 827.091 79.4316V79.4453C827.091 81.708 828.411 83.1367 830.386 83.1367ZM830.393 82.084C829.135 82.084 828.308 81.1201 828.308 79.4453V79.4316C828.308 77.7705 829.142 76.8066 830.379 76.8066C831.637 76.8066 832.457 77.7637 832.457 79.4316V79.4453C832.457 81.1133 831.644 82.084 830.393 82.084ZM835.647 83H836.837V78.8164C836.837 77.6064 837.568 76.8066 838.689 76.8066C839.783 76.8066 840.323 77.4424 840.323 78.5977V83H841.513V78.3857C841.513 76.7656 840.61 75.7539 839.052 75.7539C837.972 75.7539 837.247 76.2393 836.864 76.9023H836.837V75.8906H835.647V83ZM847.441 83H848.631V78.6113C848.631 77.5312 849.232 76.8887 850.155 76.8887C850.442 76.8887 850.695 76.9229 850.791 76.957V75.8018C850.695 75.7881 850.517 75.7539 850.312 75.7539C849.513 75.7539 848.897 76.2734 848.658 77.0938H848.631V75.8906H847.441V83ZM854.473 83.1367C855.423 83.1367 856.278 82.624 856.695 81.8447H856.722V83H857.911V78.085C857.911 76.6631 856.859 75.7539 855.177 75.7539C853.502 75.7539 852.484 76.6973 852.381 77.8662L852.374 77.9414H853.523L853.536 77.8799C853.673 77.2441 854.247 76.8066 855.163 76.8066C856.155 76.8066 856.722 77.333 856.722 78.2012V78.7959L854.685 78.9121C853.051 79.0078 852.108 79.7666 852.108 80.9766V80.9902C852.108 82.2822 853.058 83.1367 854.473 83.1367ZM853.324 80.9902V80.9766C853.324 80.3135 853.871 79.8896 854.822 79.835L856.722 79.7188V80.2998C856.722 81.332 855.861 82.1045 854.74 82.1045C853.885 82.1045 853.324 81.6738 853.324 80.9902ZM860.192 83H861.382V78.543C861.382 77.5518 862.065 76.8066 863.009 76.8066C863.89 76.8066 864.465 77.374 864.465 78.2354V83H865.654V78.4814C865.654 77.5107 866.317 76.8066 867.261 76.8066C868.197 76.8066 868.737 77.3877 868.737 78.3652V83H869.927V78.0918C869.927 76.6768 869.017 75.7539 867.609 75.7539C866.611 75.7539 865.777 76.2666 865.381 77.1211H865.353C865.046 76.2529 864.328 75.7539 863.357 75.7539C862.441 75.7539 861.73 76.2256 861.409 76.9297H861.382V75.8906H860.192V83ZM872.214 85.3926H873.404V81.8105H873.431C873.875 82.6309 874.702 83.1367 875.707 83.1367C877.491 83.1367 878.708 81.6943 878.708 79.4521V79.4453C878.708 77.2031 877.505 75.7539 875.687 75.7539C874.668 75.7539 873.875 76.2666 873.431 77.0938H873.404V75.8906H872.214V85.3926ZM875.454 82.084C874.258 82.084 873.397 81.0381 873.397 79.4521V79.4453C873.397 77.8525 874.251 76.8066 875.454 76.8066C876.712 76.8066 877.491 77.8115 877.491 79.4453V79.4521C877.491 81.0723 876.712 82.084 875.454 82.084ZM881.351 74.6875C881.768 74.6875 882.096 74.3525 882.096 73.9424C882.096 73.5254 881.768 73.1973 881.351 73.1973C880.941 73.1973 880.606 73.5254 880.606 73.9424C880.606 74.3525 880.941 74.6875 881.351 74.6875ZM880.757 83H881.946V75.8906H880.757V83ZM884.336 83H885.526V78.8164C885.526 77.6064 886.257 76.8066 887.378 76.8066C888.472 76.8066 889.012 77.4424 889.012 78.5977V83H890.201V78.3857C890.201 76.7656 889.299 75.7539 887.74 75.7539C886.66 75.7539 885.936 76.2393 885.553 76.9023H885.526V75.8906H884.336V83ZM895.497 85.5293C897.424 85.5293 898.634 84.4492 898.634 82.8018V75.8906H897.445V77.0938H897.418C896.98 76.3008 896.187 75.7539 895.182 75.7539C893.378 75.7539 892.14 77.1895 892.14 79.3975V79.4043C892.14 81.626 893.364 83.0684 895.155 83.0684C896.174 83.0684 896.994 82.5625 897.418 81.7764H897.445V82.6855C897.445 83.7861 896.734 84.4766 895.483 84.4766C894.512 84.4766 893.836 84.1621 893.61 83.6494L893.583 83.5879H892.386L892.4 83.6494C892.632 84.7021 893.74 85.5293 895.497 85.5293ZM895.415 82.0156C894.15 82.0156 893.357 81.0176 893.357 79.4043V79.3975C893.357 77.8184 894.15 76.8066 895.415 76.8066C896.618 76.8066 897.445 77.832 897.445 79.3975V79.4043C897.445 80.9834 896.625 82.0156 895.415 82.0156ZM907.106 83.1367C908.692 83.1367 909.868 82.2617 909.868 81.0176V81.0107C909.868 79.999 909.348 79.4316 907.913 79.083L906.785 78.8096C905.999 78.6182 905.677 78.2832 905.677 77.7979V77.791C905.677 77.1621 906.211 76.7451 907.072 76.7451C907.954 76.7451 908.48 77.2031 908.576 77.8936L908.583 77.9414H909.717L909.711 77.8525C909.622 76.6631 908.631 75.7539 907.072 75.7539C905.534 75.7539 904.461 76.6221 904.461 77.8457V77.8525C904.461 78.8779 905.11 79.5 906.45 79.8213L907.578 80.0947C908.384 80.293 908.651 80.5801 908.651 81.0928V81.0996C908.651 81.7422 908.077 82.1455 907.113 82.1455C906.142 82.1455 905.616 81.7285 905.472 81.0176L905.459 80.9492H904.269L904.276 81.0107C904.42 82.2822 905.431 83.1367 907.106 83.1367ZM914.302 83.1367C915.382 83.1367 916.107 82.6514 916.489 81.9883H916.517V83H917.706V75.8906H916.517V80.0742C916.517 81.2842 915.785 82.084 914.664 82.084C913.57 82.084 913.03 81.4482 913.03 80.293V75.8906H911.841V80.5049C911.841 82.125 912.743 83.1367 914.302 83.1367ZM920.028 85.3926H921.217V81.8105H921.245C921.689 82.6309 922.516 83.1367 923.521 83.1367C925.305 83.1367 926.522 81.6943 926.522 79.4521V79.4453C926.522 77.2031 925.319 75.7539 923.501 75.7539C922.482 75.7539 921.689 76.2666 921.245 77.0938H921.217V75.8906H920.028V85.3926ZM923.268 82.084C922.072 82.084 921.211 81.0381 921.211 79.4521V79.4453C921.211 77.8525 922.065 76.8066 923.268 76.8066C924.526 76.8066 925.305 77.8115 925.305 79.4453V79.4521C925.305 81.0723 924.526 82.084 923.268 82.084ZM928.495 85.3926H929.685V81.8105H929.712C930.156 82.6309 930.983 83.1367 931.988 83.1367C933.773 83.1367 934.989 81.6943 934.989 79.4521V79.4453C934.989 77.2031 933.786 75.7539 931.968 75.7539C930.949 75.7539 930.156 76.2666 929.712 77.0938H929.685V75.8906H928.495V85.3926ZM931.735 82.084C930.539 82.084 929.678 81.0381 929.678 79.4521V79.4453C929.678 77.8525 930.532 76.8066 931.735 76.8066C932.993 76.8066 933.773 77.8115 933.773 79.4453V79.4521C933.773 81.0723 932.993 82.084 931.735 82.084ZM939.909 83.1367C941.871 83.1367 943.197 81.7148 943.197 79.4453V79.4316C943.197 77.1621 941.864 75.7539 939.902 75.7539C937.94 75.7539 936.614 77.1689 936.614 79.4316V79.4453C936.614 81.708 937.933 83.1367 939.909 83.1367ZM939.916 82.084C938.658 82.084 937.831 81.1201 937.831 79.4453V79.4316C937.831 77.7705 938.665 76.8066 939.902 76.8066C941.16 76.8066 941.98 77.7637 941.98 79.4316V79.4453C941.98 81.1133 941.167 82.084 939.916 82.084ZM945.17 83H946.359V78.6113C946.359 77.5312 946.961 76.8887 947.884 76.8887C948.171 76.8887 948.424 76.9229 948.52 76.957V75.8018C948.424 75.7881 948.246 75.7539 948.041 75.7539C947.241 75.7539 946.626 76.2734 946.387 77.0938H946.359V75.8906H945.17V83ZM952.571 83.1367C952.803 83.1367 953.056 83.1094 953.207 83.0889V82.125C953.104 82.1318 952.967 82.1523 952.824 82.1523C952.188 82.1523 951.853 81.9404 951.853 81.1816V76.875H953.207V75.8906H951.853V73.9697H950.623V75.8906H949.584V76.875H950.623V81.1885C950.623 82.5488 951.265 83.1367 952.571 83.1367ZM960.974 83.1367C961.924 83.1367 962.779 82.624 963.196 81.8447H963.223V83H964.413V78.085C964.413 76.6631 963.36 75.7539 961.678 75.7539C960.003 75.7539 958.985 76.6973 958.882 77.8662L958.875 77.9414H960.024L960.038 77.8799C960.174 77.2441 960.749 76.8066 961.665 76.8066C962.656 76.8066 963.223 77.333 963.223 78.2012V78.7959L961.186 78.9121C959.552 79.0078 958.609 79.7666 958.609 80.9766V80.9902C958.609 82.2822 959.559 83.1367 960.974 83.1367ZM959.826 80.9902V80.9766C959.826 80.3135 960.373 79.8896 961.323 79.835L963.223 79.7188V80.2998C963.223 81.332 962.362 82.1045 961.241 82.1045C960.386 82.1045 959.826 81.6738 959.826 80.9902ZM969.366 83.1367C970.385 83.1367 971.178 82.624 971.622 81.7969H971.649V83H972.839V73.1357H971.649V77.0801H971.622C971.178 76.2598 970.351 75.7539 969.346 75.7539C967.561 75.7539 966.345 77.1963 966.345 79.4385V79.4453C966.345 81.6875 967.548 83.1367 969.366 83.1367ZM969.599 82.084C968.341 82.084 967.561 81.0791 967.561 79.4453V79.4385C967.561 77.8184 968.341 76.8066 969.599 76.8066C970.795 76.8066 971.656 77.8525 971.656 79.4385V79.4453C971.656 81.0381 970.802 82.084 969.599 82.084ZM977.888 83.1367C978.907 83.1367 979.7 82.624 980.144 81.7969H980.171V83H981.361V73.1357H980.171V77.0801H980.144C979.7 76.2598 978.872 75.7539 977.868 75.7539C976.083 75.7539 974.867 77.1963 974.867 79.4385V79.4453C974.867 81.6875 976.07 83.1367 977.888 83.1367ZM978.121 82.084C976.863 82.084 976.083 81.0791 976.083 79.4453V79.4385C976.083 77.8184 976.863 76.8066 978.121 76.8066C979.317 76.8066 980.178 77.8525 980.178 79.4385V79.4453C980.178 81.0381 979.324 82.084 978.121 82.084ZM986.663 83.1367C988.215 83.1367 989.377 82.207 989.609 81.0312L989.623 80.9629H988.454L988.434 81.0244C988.228 81.6328 987.593 82.084 986.69 82.084C985.426 82.084 984.619 81.2295 984.592 79.7666H989.712V79.3291C989.712 77.1963 988.529 75.7539 986.588 75.7539C984.646 75.7539 983.389 77.2646 983.389 79.4658V79.4727C983.389 81.708 984.619 83.1367 986.663 83.1367ZM986.581 76.8066C987.62 76.8066 988.386 77.4561 988.502 78.8369H984.612C984.742 77.5107 985.549 76.8066 986.581 76.8066ZM994.358 83.1367C995.376 83.1367 996.169 82.624 996.614 81.7969H996.641V83H997.83V73.1357H996.641V77.0801H996.614C996.169 76.2598 995.342 75.7539 994.337 75.7539C992.553 75.7539 991.336 77.1963 991.336 79.4385V79.4453C991.336 81.6875 992.539 83.1367 994.358 83.1367ZM994.59 82.084C993.332 82.084 992.553 81.0791 992.553 79.4453V79.4385C992.553 77.8184 993.332 76.8066 994.59 76.8066C995.787 76.8066 996.648 77.8525 996.648 79.4385V79.4453C996.648 81.0381 995.793 82.084 994.59 82.084Z" fill="white"/>
<path d="M1215.81 77.5547H1220.19V76.4473H1215.81V77.5547ZM1227.14 81H1228.37V76.7275H1232.74V75.6338H1228.37V72.2432H1233.13V71.1357H1227.14V81ZM1237.55 81.1367C1238.63 81.1367 1239.35 80.6514 1239.74 79.9883H1239.76V81H1240.95V73.8906H1239.76V78.0742C1239.76 79.2842 1239.03 80.084 1237.91 80.084C1236.82 80.084 1236.28 79.4482 1236.28 78.293V73.8906H1235.09V78.5049C1235.09 80.125 1235.99 81.1367 1237.55 81.1367ZM1245.8 81.1367C1247.38 81.1367 1248.56 80.2617 1248.56 79.0176V79.0107C1248.56 77.999 1248.04 77.4316 1246.6 77.083L1245.48 76.8096C1244.69 76.6182 1244.37 76.2832 1244.37 75.7979V75.791C1244.37 75.1621 1244.9 74.7451 1245.76 74.7451C1246.64 74.7451 1247.17 75.2031 1247.27 75.8936L1247.27 75.9414H1248.41L1248.4 75.8525C1248.31 74.6631 1247.32 73.7539 1245.76 73.7539C1244.23 73.7539 1243.15 74.6221 1243.15 75.8457V75.8525C1243.15 76.8779 1243.8 77.5 1245.14 77.8213L1246.27 78.0947C1247.08 78.293 1247.34 78.5801 1247.34 79.0928V79.0996C1247.34 79.7422 1246.77 80.1455 1245.8 80.1455C1244.83 80.1455 1244.31 79.7285 1244.16 79.0176L1244.15 78.9492H1242.96L1242.97 79.0107C1243.11 80.2822 1244.12 81.1367 1245.8 81.1367ZM1253.49 81.1367C1255.04 81.1367 1256.21 80.207 1256.44 79.0312L1256.45 78.9629H1255.28L1255.26 79.0244C1255.06 79.6328 1254.42 80.084 1253.52 80.084C1252.25 80.084 1251.45 79.2295 1251.42 77.7666H1256.54V77.3291C1256.54 75.1963 1255.36 73.7539 1253.42 73.7539C1251.48 73.7539 1250.22 75.2646 1250.22 77.4658V77.4727C1250.22 79.708 1251.45 81.1367 1253.49 81.1367ZM1253.41 74.8066C1254.45 74.8066 1255.21 75.4561 1255.33 76.8369H1251.44C1251.57 75.5107 1252.38 74.8066 1253.41 74.8066ZM1258.7 81H1259.93V76.7275H1264.3V75.6338H1259.93V72.2432H1264.69V71.1357H1258.7V81ZM1267.35 72.6875C1267.77 72.6875 1268.1 72.3525 1268.1 71.9424C1268.1 71.5254 1267.77 71.1973 1267.35 71.1973C1266.94 71.1973 1266.61 71.5254 1266.61 71.9424C1266.61 72.3525 1266.94 72.6875 1267.35 72.6875ZM1266.76 81H1267.95V73.8906H1266.76V81ZM1274.16 81H1277.48C1280.41 81 1282.13 79.1748 1282.13 76.0645V76.0508C1282.13 72.9541 1280.4 71.1357 1277.48 71.1357H1274.16V81ZM1275.39 79.8926V72.2432H1277.39C1279.63 72.2432 1280.87 73.6035 1280.87 76.0645V76.0781C1280.87 78.5254 1279.63 79.8926 1277.39 79.8926H1275.39ZM1283.37 81H1284.67L1285.66 78.1768H1289.64L1290.63 81H1291.93L1288.26 71.1357H1287.04L1283.37 81ZM1287.64 72.6123H1287.67L1289.27 77.1309H1286.04L1287.64 72.6123ZM1297.73 81.1641C1300.52 81.1641 1302.27 79.2021 1302.27 76.0713V76.0576C1302.27 72.9336 1300.52 70.9717 1297.73 70.9717C1294.93 70.9717 1293.17 72.9336 1293.17 76.0576V76.0713C1293.17 79.2021 1294.92 81.1641 1297.73 81.1641ZM1297.73 80.0293C1295.7 80.0293 1294.43 78.498 1294.43 76.0713V76.0576C1294.43 73.6309 1295.71 72.1064 1297.73 72.1064C1299.74 72.1064 1301.01 73.6377 1301.01 76.0576V76.0713C1301.01 78.4775 1299.76 80.0293 1297.73 80.0293ZM1307.42 81H1308.71L1309.71 78.1768H1313.68L1314.68 81H1315.97L1312.31 71.1357H1311.09L1307.42 81ZM1311.69 72.6123H1311.71L1313.31 77.1309H1310.09L1311.69 72.6123ZM1317.69 81H1318.88V76.8164C1318.88 75.6064 1319.61 74.8066 1320.74 74.8066C1321.83 74.8066 1322.37 75.4424 1322.37 76.5977V81H1323.56V76.3857C1323.56 74.7656 1322.66 73.7539 1321.1 73.7539C1320.02 73.7539 1319.29 74.2393 1318.91 74.9023H1318.88V73.8906H1317.69V81ZM1325.85 81H1327.04V76.8164C1327.04 75.6064 1327.77 74.8066 1328.89 74.8066C1329.98 74.8066 1330.52 75.4424 1330.52 76.5977V81H1331.71V76.3857C1331.71 74.7656 1330.81 73.7539 1329.25 73.7539C1328.17 73.7539 1327.45 74.2393 1327.06 74.9023H1327.04V73.8906H1325.85V81ZM1336.95 81.1367C1338.91 81.1367 1340.23 79.7148 1340.23 77.4453V77.4316C1340.23 75.1621 1338.9 73.7539 1336.94 73.7539C1334.98 73.7539 1333.65 75.1689 1333.65 77.4316V77.4453C1333.65 79.708 1334.97 81.1367 1336.95 81.1367ZM1336.95 80.084C1335.69 80.084 1334.87 79.1201 1334.87 77.4453V77.4316C1334.87 75.7705 1335.7 74.8066 1336.94 74.8066C1338.2 74.8066 1339.02 75.7637 1339.02 77.4316V77.4453C1339.02 79.1133 1338.2 80.084 1336.95 80.084ZM1344.63 81.1367C1345.71 81.1367 1346.44 80.6514 1346.82 79.9883H1346.85V81H1348.04V73.8906H1346.85V78.0742C1346.85 79.2842 1346.12 80.084 1345 80.084C1343.9 80.084 1343.36 79.4482 1343.36 78.293V73.8906H1342.17V78.5049C1342.17 80.125 1343.07 81.1367 1344.63 81.1367ZM1350.36 81H1351.55V76.8164C1351.55 75.6064 1352.28 74.8066 1353.4 74.8066C1354.5 74.8066 1355.04 75.4424 1355.04 76.5977V81H1356.22V76.3857C1356.22 74.7656 1355.32 73.7539 1353.76 73.7539C1352.68 73.7539 1351.96 74.2393 1351.58 74.9023H1351.55V73.8906H1350.36V81ZM1361.46 81.1367C1363.07 81.1367 1364.23 80.0908 1364.43 78.7373L1364.43 78.6895H1363.26L1363.25 78.7441C1363.05 79.5371 1362.43 80.084 1361.46 80.084C1360.23 80.084 1359.38 79.1064 1359.38 77.4521V77.4453C1359.38 75.832 1360.21 74.8066 1361.44 74.8066C1362.49 74.8066 1363.07 75.4355 1363.24 76.1465L1363.26 76.2012H1364.42L1364.41 76.1465C1364.26 74.9297 1363.22 73.7539 1361.44 73.7539C1359.47 73.7539 1358.16 75.1895 1358.16 77.4316V77.4385C1358.16 79.7012 1359.44 81.1367 1361.46 81.1367ZM1369.22 81.1367C1370.77 81.1367 1371.94 80.207 1372.17 79.0312L1372.18 78.9629H1371.01L1370.99 79.0244C1370.79 79.6328 1370.15 80.084 1369.25 80.084C1367.98 80.084 1367.18 79.2295 1367.15 77.7666H1372.27V77.3291C1372.27 75.1963 1371.09 73.7539 1369.15 73.7539C1367.21 73.7539 1365.95 75.2646 1365.95 77.4658V77.4727C1365.95 79.708 1367.18 81.1367 1369.22 81.1367ZM1369.14 74.8066C1370.18 74.8066 1370.94 75.4561 1371.06 76.8369H1367.17C1367.3 75.5107 1368.11 74.8066 1369.14 74.8066ZM1376.92 81.1367C1377.94 81.1367 1378.73 80.624 1379.17 79.7969H1379.2V81H1380.39V71.1357H1379.2V75.0801H1379.17C1378.73 74.2598 1377.9 73.7539 1376.9 73.7539C1375.11 73.7539 1373.9 75.1963 1373.9 77.4385V77.4453C1373.9 79.6875 1375.1 81.1367 1376.92 81.1367ZM1377.15 80.084C1375.89 80.084 1375.11 79.0791 1375.11 77.4453V77.4385C1375.11 75.8184 1375.89 74.8066 1377.15 74.8066C1378.35 74.8066 1379.21 75.8525 1379.21 77.4385V77.4453C1379.21 79.0381 1378.35 80.084 1377.15 80.084Z" fill="white"/>
<path d="M573.813 258.555H578.188V257.447H573.813V258.555ZM584.37 262H585.601V257.728H589.969V256.634H585.601V253.243H590.358V252.136H584.37V262ZM594.779 262.137C595.859 262.137 596.583 261.651 596.966 260.988H596.994V262H598.183V254.891H596.994V259.074C596.994 260.284 596.262 261.084 595.141 261.084C594.047 261.084 593.507 260.448 593.507 259.293V254.891H592.318V259.505C592.318 261.125 593.22 262.137 594.779 262.137ZM603.027 262.137C604.613 262.137 605.789 261.262 605.789 260.018V260.011C605.789 258.999 605.269 258.432 603.834 258.083L602.706 257.81C601.92 257.618 601.599 257.283 601.599 256.798V256.791C601.599 256.162 602.132 255.745 602.993 255.745C603.875 255.745 604.401 256.203 604.497 256.894L604.504 256.941H605.639L605.632 256.853C605.543 255.663 604.552 254.754 602.993 254.754C601.455 254.754 600.382 255.622 600.382 256.846V256.853C600.382 257.878 601.031 258.5 602.371 258.821L603.499 259.095C604.306 259.293 604.572 259.58 604.572 260.093V260.1C604.572 260.742 603.998 261.146 603.034 261.146C602.063 261.146 601.537 260.729 601.393 260.018L601.38 259.949H600.19L600.197 260.011C600.341 261.282 601.352 262.137 603.027 262.137ZM610.722 262.137C612.274 262.137 613.436 261.207 613.668 260.031L613.682 259.963H612.513L612.493 260.024C612.287 260.633 611.652 261.084 610.749 261.084C609.485 261.084 608.678 260.229 608.651 258.767H613.771V258.329C613.771 256.196 612.588 254.754 610.647 254.754C608.705 254.754 607.448 256.265 607.448 258.466V258.473C607.448 260.708 608.678 262.137 610.722 262.137ZM610.64 255.807C611.679 255.807 612.445 256.456 612.561 257.837H608.671C608.801 256.511 609.608 255.807 610.64 255.807ZM615.929 262H619.244C622.177 262 623.899 260.175 623.899 257.064V257.051C623.899 253.954 622.163 252.136 619.244 252.136H615.929V262ZM617.159 260.893V253.243H619.162C621.397 253.243 622.641 254.604 622.641 257.064V257.078C622.641 259.525 621.397 260.893 619.162 260.893H617.159ZM628.962 262.137C630.924 262.137 632.25 260.715 632.25 258.445V258.432C632.25 256.162 630.917 254.754 628.955 254.754C626.994 254.754 625.667 256.169 625.667 258.432V258.445C625.667 260.708 626.987 262.137 628.962 262.137ZM628.969 261.084C627.711 261.084 626.884 260.12 626.884 258.445V258.432C626.884 256.771 627.718 255.807 628.955 255.807C630.213 255.807 631.034 256.764 631.034 258.432V258.445C631.034 260.113 630.22 261.084 628.969 261.084ZM634.285 262H635.474V252.136H634.285V262ZM637.912 262H639.102V252.136H637.912V262ZM643.556 262.137C644.507 262.137 645.361 261.624 645.778 260.845H645.805V262H646.995V257.085C646.995 255.663 645.942 254.754 644.261 254.754C642.586 254.754 641.567 255.697 641.465 256.866L641.458 256.941H642.606L642.62 256.88C642.757 256.244 643.331 255.807 644.247 255.807C645.238 255.807 645.805 256.333 645.805 257.201V257.796L643.768 257.912C642.135 258.008 641.191 258.767 641.191 259.977V259.99C641.191 261.282 642.141 262.137 643.556 262.137ZM642.408 259.99V259.977C642.408 259.313 642.955 258.89 643.905 258.835L645.805 258.719V259.3C645.805 260.332 644.944 261.104 643.823 261.104C642.969 261.104 642.408 260.674 642.408 259.99ZM649.276 262H650.465V257.611C650.465 256.531 651.067 255.889 651.99 255.889C652.277 255.889 652.53 255.923 652.625 255.957V254.802C652.53 254.788 652.352 254.754 652.147 254.754C651.347 254.754 650.732 255.273 650.492 256.094H650.465V254.891H649.276V262ZM661.418 262.164C663.674 262.164 665.062 261.057 665.062 259.307V259.3C665.062 257.796 664.214 256.976 662.191 256.531L661.097 256.292C659.812 256.012 659.217 255.506 659.217 254.699V254.692C659.217 253.742 660.078 253.113 661.398 253.106C662.649 253.106 663.489 253.701 663.64 254.706L663.654 254.802H664.884L664.877 254.699C664.768 253.086 663.36 251.972 661.432 251.972C659.402 251.972 657.966 253.106 657.959 254.727V254.733C657.959 256.176 658.862 257.044 660.789 257.468L661.883 257.707C663.237 258.008 663.804 258.493 663.804 259.361V259.368C663.804 260.387 662.908 261.029 661.487 261.029C660.058 261.029 659.101 260.421 658.957 259.43L658.944 259.334H657.713L657.72 259.43C657.843 261.118 659.285 262.164 661.418 262.164ZM669.4 262.137C669.633 262.137 669.885 262.109 670.036 262.089V261.125C669.933 261.132 669.797 261.152 669.653 261.152C669.017 261.152 668.682 260.94 668.682 260.182V255.875H670.036V254.891H668.682V252.97H667.452V254.891H666.413V255.875H667.452V260.188C667.452 261.549 668.094 262.137 669.4 262.137ZM674.026 262.137C674.976 262.137 675.83 261.624 676.247 260.845H676.275V262H677.464V257.085C677.464 255.663 676.411 254.754 674.73 254.754C673.055 254.754 672.036 255.697 671.934 256.866L671.927 256.941H673.075L673.089 256.88C673.226 256.244 673.8 255.807 674.716 255.807C675.707 255.807 676.275 256.333 676.275 257.201V257.796L674.238 257.912C672.604 258.008 671.66 258.767 671.66 259.977V259.99C671.66 261.282 672.611 262.137 674.026 262.137ZM672.877 259.99V259.977C672.877 259.313 673.424 258.89 674.374 258.835L676.275 258.719V259.3C676.275 260.332 675.413 261.104 674.292 261.104C673.438 261.104 672.877 260.674 672.877 259.99ZM683.279 262.137C685.097 262.137 686.3 260.688 686.3 258.445V258.438C686.3 256.196 685.084 254.754 683.299 254.754C682.295 254.754 681.467 255.26 681.023 256.08H680.996V252.136H679.806V262H680.996V260.797H681.023C681.467 261.624 682.26 262.137 683.279 262.137ZM683.047 261.084C681.843 261.084 680.989 260.038 680.989 258.445V258.438C680.989 256.853 681.85 255.807 683.047 255.807C684.304 255.807 685.084 256.818 685.084 258.438V258.445C685.084 260.079 684.304 261.084 683.047 261.084ZM688.328 262H689.518V252.136H688.328V262ZM694.82 262.137C696.372 262.137 697.534 261.207 697.766 260.031L697.78 259.963H696.611L696.59 260.024C696.385 260.633 695.75 261.084 694.847 261.084C693.583 261.084 692.776 260.229 692.749 258.767H697.869V258.329C697.869 256.196 696.686 254.754 694.745 254.754C692.803 254.754 691.546 256.265 691.546 258.466V258.473C691.546 260.708 692.776 262.137 694.82 262.137ZM694.738 255.807C695.777 255.807 696.543 256.456 696.659 257.837H692.769C692.899 256.511 693.706 255.807 694.738 255.807ZM702.788 262.137C704.395 262.137 705.564 261.091 705.755 259.737L705.762 259.689H704.593L704.579 259.744C704.381 260.537 703.759 261.084 702.788 261.084C701.558 261.084 700.71 260.106 700.71 258.452V258.445C700.71 256.832 701.537 255.807 702.775 255.807C703.82 255.807 704.395 256.436 704.572 257.146L704.586 257.201H705.748L705.741 257.146C705.591 255.93 704.545 254.754 702.775 254.754C700.799 254.754 699.493 256.189 699.493 258.432V258.438C699.493 260.701 700.772 262.137 702.788 262.137ZM710.572 262.137C712.534 262.137 713.86 260.715 713.86 258.445V258.432C713.86 256.162 712.527 254.754 710.565 254.754C708.603 254.754 707.277 256.169 707.277 258.432V258.445C707.277 260.708 708.596 262.137 710.572 262.137ZM710.579 261.084C709.321 261.084 708.494 260.12 708.494 258.445V258.432C708.494 256.771 709.328 255.807 710.565 255.807C711.823 255.807 712.643 256.764 712.643 258.432V258.445C712.643 260.113 711.83 261.084 710.579 261.084ZM716.503 253.688C716.92 253.688 717.248 253.353 717.248 252.942C717.248 252.525 716.92 252.197 716.503 252.197C716.093 252.197 715.758 252.525 715.758 252.942C715.758 253.353 716.093 253.688 716.503 253.688ZM715.908 262H717.098V254.891H715.908V262ZM719.488 262H720.677V257.816C720.677 256.606 721.409 255.807 722.53 255.807C723.624 255.807 724.164 256.442 724.164 257.598V262H725.353V257.386C725.353 255.766 724.451 254.754 722.892 254.754C721.812 254.754 721.087 255.239 720.705 255.902H720.677V254.891H719.488V262Z" fill="white"/>
<path d="M1032.81 258.555H1037.19V257.447H1032.81V258.555ZM1045.41 262H1046.57L1048.87 254.098H1048.89L1051.19 262H1052.35L1055.04 252.136H1053.75L1051.76 260.236H1051.74L1049.5 252.136H1048.26L1046.02 260.236H1046L1044.01 252.136H1042.72L1045.41 262ZM1058.01 262.137C1058.96 262.137 1059.81 261.624 1060.23 260.845H1060.26V262H1061.45V257.085C1061.45 255.663 1060.4 254.754 1058.71 254.754C1057.04 254.754 1056.02 255.697 1055.92 256.866L1055.91 256.941H1057.06L1057.07 256.88C1057.21 256.244 1057.78 255.807 1058.7 255.807C1059.69 255.807 1060.26 256.333 1060.26 257.201V257.796L1058.22 257.912C1056.59 258.008 1055.64 258.767 1055.64 259.977V259.99C1055.64 261.282 1056.6 262.137 1058.01 262.137ZM1056.86 259.99V259.977C1056.86 259.313 1057.41 258.89 1058.36 258.835L1060.26 258.719V259.3C1060.26 260.332 1059.4 261.104 1058.28 261.104C1057.42 261.104 1056.86 260.674 1056.86 259.99ZM1063.79 262H1064.98V252.136H1063.79V262ZM1067.42 262H1068.61V252.136H1067.42V262ZM1073.91 262.137C1075.46 262.137 1076.62 261.207 1076.86 260.031L1076.87 259.963H1075.7L1075.68 260.024C1075.48 260.633 1074.84 261.084 1073.94 261.084C1072.67 261.084 1071.87 260.229 1071.84 258.767H1076.96V258.329C1076.96 256.196 1075.78 254.754 1073.83 254.754C1071.89 254.754 1070.64 256.265 1070.64 258.466V258.473C1070.64 260.708 1071.87 262.137 1073.91 262.137ZM1073.83 255.807C1074.87 255.807 1075.63 256.456 1075.75 257.837H1071.86C1071.99 256.511 1072.8 255.807 1073.83 255.807ZM1081.24 262.137C1081.47 262.137 1081.73 262.109 1081.88 262.089V261.125C1081.78 261.132 1081.64 261.152 1081.5 261.152C1080.86 261.152 1080.52 260.94 1080.52 260.182V255.875H1081.88V254.891H1080.52V252.97H1079.29V254.891H1078.26V255.875H1079.29V260.188C1079.29 261.549 1079.94 262.137 1081.24 262.137ZM1091.87 262.164C1093.94 262.164 1095.52 260.94 1095.89 259.054L1095.91 258.985H1094.66L1094.64 259.047C1094.21 260.346 1093.26 261.029 1091.87 261.029C1089.91 261.029 1088.63 259.464 1088.63 257.064V257.058C1088.63 254.658 1089.91 253.106 1091.87 253.106C1093.26 253.106 1094.23 253.804 1094.62 255L1094.66 255.15H1095.91L1095.89 255.082C1095.52 253.216 1093.93 251.972 1091.87 251.972C1089.13 251.972 1087.37 253.954 1087.37 257.058V257.064C1087.37 260.168 1089.13 262.164 1091.87 262.164ZM1100.9 262.137C1102.86 262.137 1104.18 260.715 1104.18 258.445V258.432C1104.18 256.162 1102.85 254.754 1100.89 254.754C1098.93 254.754 1097.6 256.169 1097.6 258.432V258.445C1097.6 260.708 1098.92 262.137 1100.9 262.137ZM1100.9 261.084C1099.64 261.084 1098.82 260.12 1098.82 258.445V258.432C1098.82 256.771 1099.65 255.807 1100.89 255.807C1102.15 255.807 1102.97 256.764 1102.97 258.432V258.445C1102.97 260.113 1102.15 261.084 1100.9 261.084ZM1106.16 262H1107.35V257.816C1107.35 256.606 1108.08 255.807 1109.2 255.807C1110.29 255.807 1110.83 256.442 1110.83 257.598V262H1112.02V257.386C1112.02 255.766 1111.12 254.754 1109.56 254.754C1108.48 254.754 1107.76 255.239 1107.37 255.902H1107.35V254.891H1106.16V262ZM1114.31 262H1115.5V257.816C1115.5 256.606 1116.23 255.807 1117.35 255.807C1118.45 255.807 1118.99 256.442 1118.99 257.598V262H1120.17V257.386C1120.17 255.766 1119.27 254.754 1117.71 254.754C1116.63 254.754 1115.91 255.239 1115.53 255.902H1115.5V254.891H1114.31V262ZM1125.39 262.137C1126.94 262.137 1128.1 261.207 1128.33 260.031L1128.35 259.963H1127.18L1127.16 260.024C1126.95 260.633 1126.32 261.084 1125.42 261.084C1124.15 261.084 1123.34 260.229 1123.32 258.767H1128.44V258.329C1128.44 256.196 1127.25 254.754 1125.31 254.754C1123.37 254.754 1122.11 256.265 1122.11 258.466V258.473C1122.11 260.708 1123.34 262.137 1125.39 262.137ZM1125.31 255.807C1126.34 255.807 1127.11 256.456 1127.23 257.837H1123.34C1123.47 256.511 1124.27 255.807 1125.31 255.807ZM1133.36 262.137C1134.96 262.137 1136.13 261.091 1136.32 259.737L1136.33 259.689H1135.16L1135.15 259.744C1134.95 260.537 1134.33 261.084 1133.36 261.084C1132.13 261.084 1131.28 260.106 1131.28 258.452V258.445C1131.28 256.832 1132.11 255.807 1133.34 255.807C1134.39 255.807 1134.96 256.436 1135.14 257.146L1135.15 257.201H1136.32L1136.31 257.146C1136.16 255.93 1135.11 254.754 1133.34 254.754C1131.37 254.754 1130.06 256.189 1130.06 258.432V258.438C1130.06 260.701 1131.34 262.137 1133.36 262.137ZM1140.5 262.137C1140.74 262.137 1140.99 262.109 1141.14 262.089V261.125C1141.04 261.132 1140.9 261.152 1140.76 261.152C1140.12 261.152 1139.79 260.94 1139.79 260.182V255.875H1141.14V254.891H1139.79V252.97H1138.56V254.891H1137.52V255.875H1138.56V260.188C1138.56 261.549 1139.2 262.137 1140.5 262.137ZM1150.24 262.164C1152.5 262.164 1153.88 261.057 1153.88 259.307V259.3C1153.88 257.796 1153.04 256.976 1151.01 256.531L1149.92 256.292C1148.63 256.012 1148.04 255.506 1148.04 254.699V254.692C1148.04 253.742 1148.9 253.113 1150.22 253.106C1151.47 253.106 1152.31 253.701 1152.46 254.706L1152.48 254.802H1153.71L1153.7 254.699C1153.59 253.086 1152.18 251.972 1150.25 251.972C1148.22 251.972 1146.79 253.106 1146.78 254.727V254.733C1146.78 256.176 1147.68 257.044 1149.61 257.468L1150.71 257.707C1152.06 258.008 1152.63 258.493 1152.63 259.361V259.368C1152.63 260.387 1151.73 261.029 1150.31 261.029C1148.88 261.029 1147.92 260.421 1147.78 259.43L1147.77 259.334H1146.54L1146.54 259.43C1146.67 261.118 1148.11 262.164 1150.24 262.164ZM1158.34 262.137C1159.42 262.137 1160.14 261.651 1160.53 260.988H1160.55V262H1161.74V254.891H1160.55V259.074C1160.55 260.284 1159.82 261.084 1158.7 261.084C1157.61 261.084 1157.07 260.448 1157.07 259.293V254.891H1155.88V259.505C1155.88 261.125 1156.78 262.137 1158.34 262.137ZM1164.06 264.393H1165.25V260.811H1165.28C1165.73 261.631 1166.55 262.137 1167.56 262.137C1169.34 262.137 1170.56 260.694 1170.56 258.452V258.445C1170.56 256.203 1169.36 254.754 1167.54 254.754C1166.52 254.754 1165.73 255.267 1165.28 256.094H1165.25V254.891H1164.06V264.393ZM1167.3 261.084C1166.11 261.084 1165.25 260.038 1165.25 258.452V258.445C1165.25 256.853 1166.1 255.807 1167.3 255.807C1168.56 255.807 1169.34 256.812 1169.34 258.445V258.452C1169.34 260.072 1168.56 261.084 1167.3 261.084ZM1172.53 264.393H1173.72V260.811H1173.75C1174.19 261.631 1175.02 262.137 1176.02 262.137C1177.81 262.137 1179.03 260.694 1179.03 258.452V258.445C1179.03 256.203 1177.82 254.754 1176 254.754C1174.99 254.754 1174.19 255.267 1173.75 256.094H1173.72V254.891H1172.53V264.393ZM1175.77 261.084C1174.58 261.084 1173.71 260.038 1173.71 258.452V258.445C1173.71 256.853 1174.57 255.807 1175.77 255.807C1177.03 255.807 1177.81 256.812 1177.81 258.445V258.452C1177.81 260.072 1177.03 261.084 1175.77 261.084ZM1183.95 262.137C1185.91 262.137 1187.23 260.715 1187.23 258.445V258.432C1187.23 256.162 1185.9 254.754 1183.94 254.754C1181.98 254.754 1180.65 256.169 1180.65 258.432V258.445C1180.65 260.708 1181.97 262.137 1183.95 262.137ZM1183.95 261.084C1182.69 261.084 1181.87 260.12 1181.87 258.445V258.432C1181.87 256.771 1182.7 255.807 1183.94 255.807C1185.2 255.807 1186.02 256.764 1186.02 258.432V258.445C1186.02 260.113 1185.2 261.084 1183.95 261.084ZM1189.21 262H1190.4V257.611C1190.4 256.531 1191 255.889 1191.92 255.889C1192.21 255.889 1192.46 255.923 1192.56 255.957V254.802C1192.46 254.788 1192.28 254.754 1192.08 254.754C1191.28 254.754 1190.66 255.273 1190.42 256.094H1190.4V254.891H1189.21V262ZM1196.61 262.137C1196.84 262.137 1197.09 262.109 1197.24 262.089V261.125C1197.14 261.132 1197 261.152 1196.86 261.152C1196.22 261.152 1195.89 260.94 1195.89 260.182V255.875H1197.24V254.891H1195.89V252.97H1194.66V254.891H1193.62V255.875H1194.66V260.188C1194.66 261.549 1195.3 262.137 1196.61 262.137ZM1202.33 262H1203.62L1204.62 259.177H1208.59L1209.59 262H1210.88L1207.22 252.136H1206L1202.33 262ZM1206.6 253.612H1206.62L1208.22 258.131H1205L1206.6 253.612ZM1215.14 262.137C1216.16 262.137 1216.95 261.624 1217.4 260.797H1217.42V262H1218.61V252.136H1217.42V256.08H1217.4C1216.95 255.26 1216.12 254.754 1215.12 254.754C1213.33 254.754 1212.12 256.196 1212.12 258.438V258.445C1212.12 260.688 1213.32 262.137 1215.14 262.137ZM1215.37 261.084C1214.11 261.084 1213.33 260.079 1213.33 258.445V258.438C1213.33 256.818 1214.11 255.807 1215.37 255.807C1216.57 255.807 1217.43 256.853 1217.43 258.438V258.445C1217.43 260.038 1216.57 261.084 1215.37 261.084ZM1223.66 262.137C1224.68 262.137 1225.47 261.624 1225.92 260.797H1225.94V262H1227.13V252.136H1225.94V256.08H1225.92C1225.47 255.26 1224.65 254.754 1223.64 254.754C1221.86 254.754 1220.64 256.196 1220.64 258.438V258.445C1220.64 260.688 1221.84 262.137 1223.66 262.137ZM1223.89 261.084C1222.64 261.084 1221.86 260.079 1221.86 258.445V258.438C1221.86 256.818 1222.64 255.807 1223.89 255.807C1225.09 255.807 1225.95 256.853 1225.95 258.438V258.445C1225.95 260.038 1225.1 261.084 1223.89 261.084ZM1232.44 262.137C1233.99 262.137 1235.15 261.207 1235.38 260.031L1235.4 259.963H1234.23L1234.21 260.024C1234 260.633 1233.37 261.084 1232.46 261.084C1231.2 261.084 1230.39 260.229 1230.36 258.767H1235.48V258.329C1235.48 256.196 1234.3 254.754 1232.36 254.754C1230.42 254.754 1229.16 256.265 1229.16 258.466V258.473C1229.16 260.708 1230.39 262.137 1232.44 262.137ZM1232.35 255.807C1233.39 255.807 1234.16 256.456 1234.27 257.837H1230.39C1230.52 256.511 1231.32 255.807 1232.35 255.807ZM1240.13 262.137C1241.15 262.137 1241.94 261.624 1242.39 260.797H1242.41V262H1243.6V252.136H1242.41V256.08H1242.39C1241.94 255.26 1241.12 254.754 1240.11 254.754C1238.33 254.754 1237.11 256.196 1237.11 258.438V258.445C1237.11 260.688 1238.31 262.137 1240.13 262.137ZM1240.36 261.084C1239.11 261.084 1238.33 260.079 1238.33 258.445V258.438C1238.33 256.818 1239.11 255.807 1240.36 255.807C1241.56 255.807 1242.42 256.853 1242.42 258.438V258.445C1242.42 260.038 1241.57 261.084 1240.36 261.084Z" fill="white"/>
<path d="M1464.81 258.555H1469.19V257.447H1464.81V258.555ZM1478.22 262H1479.44L1483.07 252.136H1481.78L1478.84 260.523H1478.82L1475.88 252.136H1474.58L1478.22 262ZM1489.14 262.164C1491.94 262.164 1493.68 260.202 1493.68 257.071V257.058C1493.68 253.934 1491.93 251.972 1489.14 251.972C1486.35 251.972 1484.59 253.934 1484.59 257.058V257.071C1484.59 260.202 1486.34 262.164 1489.14 262.164ZM1489.14 261.029C1487.12 261.029 1485.85 259.498 1485.85 257.071V257.058C1485.85 254.631 1487.13 253.106 1489.14 253.106C1491.15 253.106 1492.42 254.638 1492.42 257.058V257.071C1492.42 259.478 1491.17 261.029 1489.14 261.029ZM1495.98 262H1501.97V260.893H1497.21V252.136H1495.98V262ZM1505.09 262H1506.32V253.243H1509.43V252.136H1501.97V253.243H1505.09V262ZM1519.27 262.164C1521.9 262.164 1523.46 260.585 1523.46 257.919V256.982H1519.44V258.062H1522.22V258.24C1522.22 259.895 1521.02 261.029 1519.27 261.029C1517.26 261.029 1516.01 259.498 1516.01 257.017V257.01C1516.01 254.576 1517.24 253.106 1519.27 253.106C1520.66 253.106 1521.62 253.824 1522.07 255.075L1522.1 255.15H1523.39L1523.36 255.021C1522.9 253.277 1521.54 251.972 1519.27 251.972C1516.52 251.972 1514.75 253.927 1514.75 257.01V257.017C1514.75 260.161 1516.52 262.164 1519.27 262.164ZM1528.57 262.137C1530.53 262.137 1531.85 260.715 1531.85 258.445V258.432C1531.85 256.162 1530.52 254.754 1528.56 254.754C1526.6 254.754 1525.27 256.169 1525.27 258.432V258.445C1525.27 260.708 1526.59 262.137 1528.57 262.137ZM1528.57 261.084C1527.32 261.084 1526.49 260.12 1526.49 258.445V258.432C1526.49 256.771 1527.32 255.807 1528.56 255.807C1529.82 255.807 1530.64 256.764 1530.64 258.432V258.445C1530.64 260.113 1529.82 261.084 1528.57 261.084ZM1535.56 262H1536.77L1539.39 254.891H1538.15L1536.18 260.735H1536.15L1534.19 254.891H1532.94L1535.56 262ZM1543.74 262.137C1545.3 262.137 1546.46 261.207 1546.69 260.031L1546.7 259.963H1545.53L1545.51 260.024C1545.31 260.633 1544.67 261.084 1543.77 261.084C1542.51 261.084 1541.7 260.229 1541.67 258.767H1546.79V258.329C1546.79 256.196 1545.61 254.754 1543.67 254.754C1541.73 254.754 1540.47 256.265 1540.47 258.466V258.473C1540.47 260.708 1541.7 262.137 1543.74 262.137ZM1543.66 255.807C1544.7 255.807 1545.47 256.456 1545.58 257.837H1541.69C1541.82 256.511 1542.63 255.807 1543.66 255.807ZM1548.77 262H1549.96V257.611C1549.96 256.531 1550.56 255.889 1551.48 255.889C1551.77 255.889 1552.02 255.923 1552.12 255.957V254.802C1552.02 254.788 1551.84 254.754 1551.64 254.754C1550.84 254.754 1550.22 255.273 1549.98 256.094H1549.96V254.891H1548.77V262ZM1553.86 262H1555.05V257.816C1555.05 256.606 1555.78 255.807 1556.9 255.807C1557.99 255.807 1558.53 256.442 1558.53 257.598V262H1559.72V257.386C1559.72 255.766 1558.82 254.754 1557.26 254.754C1556.18 254.754 1555.46 255.239 1555.07 255.902H1555.05V254.891H1553.86V262ZM1564.09 262.137C1565.04 262.137 1565.89 261.624 1566.31 260.845H1566.34V262H1567.53V257.085C1567.53 255.663 1566.47 254.754 1564.79 254.754C1563.12 254.754 1562.1 255.697 1562 256.866L1561.99 256.941H1563.14L1563.15 256.88C1563.29 256.244 1563.86 255.807 1564.78 255.807C1565.77 255.807 1566.34 256.333 1566.34 257.201V257.796L1564.3 257.912C1562.67 258.008 1561.72 258.767 1561.72 259.977V259.99C1561.72 261.282 1562.67 262.137 1564.09 262.137ZM1562.94 259.99V259.977C1562.94 259.313 1563.49 258.89 1564.44 258.835L1566.34 258.719V259.3C1566.34 260.332 1565.47 261.104 1564.35 261.104C1563.5 261.104 1562.94 260.674 1562.94 259.99ZM1569.81 262H1571V257.816C1571 256.606 1571.73 255.807 1572.85 255.807C1573.94 255.807 1574.48 256.442 1574.48 257.598V262H1575.67V257.386C1575.67 255.766 1574.77 254.754 1573.21 254.754C1572.13 254.754 1571.41 255.239 1571.02 255.902H1571V254.891H1569.81V262ZM1580.91 262.137C1582.51 262.137 1583.68 261.091 1583.87 259.737L1583.88 259.689H1582.71L1582.7 259.744C1582.5 260.537 1581.88 261.084 1580.91 261.084C1579.68 261.084 1578.83 260.106 1578.83 258.452V258.445C1578.83 256.832 1579.65 255.807 1580.89 255.807C1581.94 255.807 1582.51 256.436 1582.69 257.146L1582.7 257.201H1583.87L1583.86 257.146C1583.71 255.93 1582.66 254.754 1580.89 254.754C1578.92 254.754 1577.61 256.189 1577.61 258.432V258.438C1577.61 260.701 1578.89 262.137 1580.91 262.137ZM1588.67 262.137C1590.22 262.137 1591.38 261.207 1591.61 260.031L1591.63 259.963H1590.46L1590.44 260.024C1590.23 260.633 1589.6 261.084 1588.7 261.084C1587.43 261.084 1586.62 260.229 1586.6 258.767H1591.72V258.329C1591.72 256.196 1590.53 254.754 1588.59 254.754C1586.65 254.754 1585.39 256.265 1585.39 258.466V258.473C1585.39 260.708 1586.62 262.137 1588.67 262.137ZM1588.59 255.807C1589.63 255.807 1590.39 256.456 1590.51 257.837H1586.62C1586.75 256.511 1587.55 255.807 1588.59 255.807ZM1600.01 262H1601.24V253.243H1604.35V252.136H1596.9V253.243H1600.01V262ZM1607.34 262.137C1609.3 262.137 1610.63 260.715 1610.63 258.445V258.432C1610.63 256.162 1609.29 254.754 1607.33 254.754C1605.37 254.754 1604.04 256.169 1604.04 258.432V258.445C1604.04 260.708 1605.36 262.137 1607.34 262.137ZM1607.34 261.084C1606.09 261.084 1605.26 260.12 1605.26 258.445V258.432C1605.26 256.771 1606.09 255.807 1607.33 255.807C1608.59 255.807 1609.41 256.764 1609.41 258.432V258.445C1609.41 260.113 1608.59 261.084 1607.34 261.084ZM1612.69 262H1613.88V259.32L1614.55 258.685L1617.19 262H1618.57L1615.39 257.96L1618.47 254.891H1617.03L1613.91 258.028H1613.88V252.136H1612.69V262ZM1622.75 262.137C1624.3 262.137 1625.46 261.207 1625.69 260.031L1625.71 259.963H1624.54L1624.52 260.024C1624.31 260.633 1623.68 261.084 1622.77 261.084C1621.51 261.084 1620.7 260.229 1620.68 258.767H1625.8V258.329C1625.8 256.196 1624.61 254.754 1622.67 254.754C1620.73 254.754 1619.47 256.265 1619.47 258.466V258.473C1619.47 260.708 1620.7 262.137 1622.75 262.137ZM1622.67 255.807C1623.7 255.807 1624.47 256.456 1624.59 257.837H1620.7C1620.83 256.511 1621.63 255.807 1622.67 255.807ZM1627.77 262H1628.96V257.816C1628.96 256.606 1629.69 255.807 1630.81 255.807C1631.9 255.807 1632.44 256.442 1632.44 257.598V262H1633.63V257.386C1633.63 255.766 1632.73 254.754 1631.17 254.754C1630.09 254.754 1629.37 255.239 1628.99 255.902H1628.96V254.891H1627.77V262ZM1639.75 262H1645.74V260.893H1640.98V252.136H1639.75V262ZM1649.75 262.137C1650.7 262.137 1651.56 261.624 1651.97 260.845H1652V262H1653.19V257.085C1653.19 255.663 1652.14 254.754 1650.46 254.754C1648.78 254.754 1647.76 255.697 1647.66 256.866L1647.65 256.941H1648.8L1648.82 256.88C1648.95 256.244 1649.53 255.807 1650.44 255.807C1651.43 255.807 1652 256.333 1652 257.201V257.796L1649.96 257.912C1648.33 258.008 1647.39 258.767 1647.39 259.977V259.99C1647.39 261.282 1648.34 262.137 1649.75 262.137ZM1648.6 259.99V259.977C1648.6 259.313 1649.15 258.89 1650.1 258.835L1652 258.719V259.3C1652 260.332 1651.14 261.104 1650.02 261.104C1649.17 261.104 1648.6 260.674 1648.6 259.99ZM1657.9 262.137C1658.98 262.137 1659.7 261.651 1660.09 260.988H1660.11V262H1661.3V254.891H1660.11V259.074C1660.11 260.284 1659.38 261.084 1658.26 261.084C1657.17 261.084 1656.63 260.448 1656.63 259.293V254.891H1655.44V259.505C1655.44 261.125 1656.34 262.137 1657.9 262.137ZM1663.62 262H1664.81V257.816C1664.81 256.606 1665.55 255.807 1666.67 255.807C1667.76 255.807 1668.3 256.442 1668.3 257.598V262H1669.49V257.386C1669.49 255.766 1668.59 254.754 1667.03 254.754C1665.95 254.754 1665.22 255.239 1664.84 255.902H1664.81V254.891H1663.62V262ZM1674.72 262.137C1676.33 262.137 1677.5 261.091 1677.69 259.737L1677.7 259.689H1676.53L1676.52 259.744C1676.32 260.537 1675.69 261.084 1674.72 261.084C1673.49 261.084 1672.65 260.106 1672.65 258.452V258.445C1672.65 256.832 1673.47 255.807 1674.71 255.807C1675.76 255.807 1676.33 256.436 1676.51 257.146L1676.52 257.201H1677.68L1677.68 257.146C1677.53 255.93 1676.48 254.754 1674.71 254.754C1672.73 254.754 1671.43 256.189 1671.43 258.432V258.438C1671.43 260.701 1672.71 262.137 1674.72 262.137ZM1679.62 262H1680.81V257.851C1680.81 256.641 1681.54 255.807 1682.64 255.807C1683.75 255.807 1684.41 256.565 1684.41 257.851V262H1685.6V257.646C1685.6 255.923 1684.57 254.754 1683.05 254.754C1682 254.754 1681.22 255.226 1680.84 256.025H1680.81V252.136H1679.62V262ZM1464.81 282.555H1469.19V281.447H1464.81V282.555ZM1476.91 286H1480.23C1483.16 286 1484.88 284.175 1484.88 281.064V281.051C1484.88 277.954 1483.14 276.136 1480.23 276.136H1476.91V286ZM1478.14 284.893V277.243H1480.14C1482.38 277.243 1483.62 278.604 1483.62 281.064V281.078C1483.62 283.525 1482.38 284.893 1480.14 284.893H1478.14ZM1487.67 277.688C1488.08 277.688 1488.41 277.353 1488.41 276.942C1488.41 276.525 1488.08 276.197 1487.67 276.197C1487.26 276.197 1486.92 276.525 1486.92 276.942C1486.92 277.353 1487.26 277.688 1487.67 277.688ZM1487.07 286H1488.26V278.891H1487.07V286ZM1493.17 286.137C1494.76 286.137 1495.94 285.262 1495.94 284.018V284.011C1495.94 282.999 1495.42 282.432 1493.98 282.083L1492.85 281.81C1492.07 281.618 1491.75 281.283 1491.75 280.798V280.791C1491.75 280.162 1492.28 279.745 1493.14 279.745C1494.02 279.745 1494.55 280.203 1494.64 280.894L1494.65 280.941H1495.79L1495.78 280.853C1495.69 279.663 1494.7 278.754 1493.14 278.754C1491.6 278.754 1490.53 279.622 1490.53 280.846V280.853C1490.53 281.878 1491.18 282.5 1492.52 282.821L1493.65 283.095C1494.45 283.293 1494.72 283.58 1494.72 284.093V284.1C1494.72 284.742 1494.15 285.146 1493.18 285.146C1492.21 285.146 1491.68 284.729 1491.54 284.018L1491.53 283.949H1490.34L1490.34 284.011C1490.49 285.282 1491.5 286.137 1493.17 286.137ZM1500.89 286.137C1502.5 286.137 1503.67 285.091 1503.86 283.737L1503.86 283.689H1502.69L1502.68 283.744C1502.48 284.537 1501.86 285.084 1500.89 285.084C1499.66 285.084 1498.81 284.106 1498.81 282.452V282.445C1498.81 280.832 1499.64 279.807 1500.88 279.807C1501.92 279.807 1502.5 280.436 1502.67 281.146L1502.69 281.201H1503.85L1503.84 281.146C1503.69 279.93 1502.65 278.754 1500.88 278.754C1498.9 278.754 1497.6 280.189 1497.6 282.432V282.438C1497.6 284.701 1498.87 286.137 1500.89 286.137ZM1508.67 286.137C1510.64 286.137 1511.96 284.715 1511.96 282.445V282.432C1511.96 280.162 1510.63 278.754 1508.67 278.754C1506.7 278.754 1505.38 280.169 1505.38 282.432V282.445C1505.38 284.708 1506.7 286.137 1508.67 286.137ZM1508.68 285.084C1507.42 285.084 1506.6 284.12 1506.6 282.445V282.432C1506.6 280.771 1507.43 279.807 1508.67 279.807C1509.92 279.807 1510.74 280.764 1510.74 282.432V282.445C1510.74 284.113 1509.93 285.084 1508.68 285.084ZM1513.93 286H1515.12V281.611C1515.12 280.531 1515.73 279.889 1516.65 279.889C1516.94 279.889 1517.19 279.923 1517.28 279.957V278.802C1517.19 278.788 1517.01 278.754 1516.81 278.754C1516.01 278.754 1515.39 279.273 1515.15 280.094H1515.12V278.891H1513.93V286ZM1521.36 286.137C1522.37 286.137 1523.17 285.624 1523.61 284.797H1523.64V286H1524.83V276.136H1523.64V280.08H1523.61C1523.17 279.26 1522.34 278.754 1521.34 278.754C1519.55 278.754 1518.33 280.196 1518.33 282.438V282.445C1518.33 284.688 1519.54 286.137 1521.36 286.137ZM1521.59 285.084C1520.33 285.084 1519.55 284.079 1519.55 282.445V282.438C1519.55 280.818 1520.33 279.807 1521.59 279.807C1522.78 279.807 1523.65 280.853 1523.65 282.438V282.445C1523.65 284.038 1522.79 285.084 1521.59 285.084ZM1531.03 286H1537.02V284.893H1532.26V276.136H1531.03V286ZM1541.04 286.137C1541.99 286.137 1542.84 285.624 1543.26 284.845H1543.29V286H1544.47V281.085C1544.47 279.663 1543.42 278.754 1541.74 278.754C1540.07 278.754 1539.05 279.697 1538.94 280.866L1538.94 280.941H1540.09L1540.1 280.88C1540.24 280.244 1540.81 279.807 1541.73 279.807C1542.72 279.807 1543.29 280.333 1543.29 281.201V281.796L1541.25 281.912C1539.61 282.008 1538.67 282.767 1538.67 283.977V283.99C1538.67 285.282 1539.62 286.137 1541.04 286.137ZM1539.89 283.99V283.977C1539.89 283.313 1540.43 282.89 1541.39 282.835L1543.29 282.719V283.3C1543.29 284.332 1542.42 285.104 1541.3 285.104C1540.45 285.104 1539.89 284.674 1539.89 283.99ZM1549.18 286.137C1550.26 286.137 1550.99 285.651 1551.37 284.988H1551.4V286H1552.59V278.891H1551.4V283.074C1551.4 284.284 1550.67 285.084 1549.54 285.084C1548.45 285.084 1547.91 284.448 1547.91 283.293V278.891H1546.72V283.505C1546.72 285.125 1547.62 286.137 1549.18 286.137ZM1554.91 286H1556.1V281.816C1556.1 280.606 1556.83 279.807 1557.95 279.807C1559.04 279.807 1559.58 280.442 1559.58 281.598V286H1560.77V281.386C1560.77 279.766 1559.87 278.754 1558.31 278.754C1557.23 278.754 1556.51 279.239 1556.13 279.902H1556.1V278.891H1554.91V286ZM1566.01 286.137C1567.61 286.137 1568.78 285.091 1568.97 283.737L1568.98 283.689H1567.81L1567.8 283.744C1567.6 284.537 1566.98 285.084 1566.01 285.084C1564.78 285.084 1563.93 284.106 1563.93 282.452V282.445C1563.93 280.832 1564.76 279.807 1565.99 279.807C1567.04 279.807 1567.61 280.436 1567.79 281.146L1567.81 281.201H1568.97L1568.96 281.146C1568.81 279.93 1567.76 278.754 1565.99 278.754C1564.02 278.754 1562.71 280.189 1562.71 282.432V282.438C1562.71 284.701 1563.99 286.137 1566.01 286.137ZM1570.91 286H1572.1V281.851C1572.1 280.641 1572.83 279.807 1573.93 279.807C1575.04 279.807 1575.69 280.565 1575.69 281.851V286H1576.88V281.646C1576.88 279.923 1575.85 278.754 1574.34 278.754C1573.28 278.754 1572.51 279.226 1572.12 280.025H1572.1V276.136H1570.91V286Z" fill="white"/>
<path d="M371.652 196.164C372.294 196.164 372.882 196.068 373.409 195.877L374.25 197.046H375.842L374.544 195.248C375.651 194.38 376.273 192.931 376.273 191.071V191.058C376.273 187.934 374.496 185.972 371.652 185.972C368.815 185.972 367.031 187.927 367.031 191.058V191.071C367.031 194.209 368.808 196.164 371.652 196.164ZM371.652 194.811C369.779 194.811 368.596 193.368 368.596 191.071V191.058C368.596 188.761 369.786 187.325 371.652 187.325C373.525 187.325 374.701 188.768 374.701 191.058V191.071C374.701 192.356 374.332 193.382 373.669 194.031L372.91 192.979H371.324L372.554 194.688C372.274 194.77 371.973 194.811 371.652 194.811ZM383.052 196H384.522V194.038H385.882V192.753H384.522V186.136H382.307L378.116 192.705V194.038H383.052V196ZM379.538 192.773V192.732L383.024 187.346H383.065V192.773H379.538ZM391.428 196H398.175V194.708H393.479V194.646L395.721 192.445C397.491 190.695 398.018 189.896 398.018 188.768V188.754C398.018 187.161 396.664 185.972 394.771 185.972C392.843 185.972 391.346 187.25 391.346 189.014V189.055H392.795V189.014C392.809 188.016 393.636 187.236 394.791 187.236C395.789 187.236 396.5 187.906 396.507 188.843V188.856C396.507 189.622 396.213 190.142 394.9 191.454L391.428 194.947V196ZM403.894 196.164C406.246 196.164 407.661 194.202 407.661 191.071V191.058C407.661 187.927 406.246 185.972 403.894 185.972C401.536 185.972 400.127 187.927 400.127 191.058V191.071C400.127 194.202 401.536 196.164 403.894 196.164ZM403.894 194.886C402.486 194.886 401.672 193.437 401.672 191.071V191.058C401.672 188.692 402.486 187.257 403.894 187.257C405.295 187.257 406.116 188.692 406.116 191.058V191.071C406.116 193.437 405.295 194.886 403.894 194.886ZM409.688 196H416.436V194.708H411.739V194.646L413.981 192.445C415.752 190.695 416.278 189.896 416.278 188.768V188.754C416.278 187.161 414.925 185.972 413.031 185.972C411.103 185.972 409.606 187.25 409.606 189.014V189.055H411.056V189.014C411.069 188.016 411.896 187.236 413.052 187.236C414.05 187.236 414.761 187.906 414.768 188.843V188.856C414.768 189.622 414.474 190.142 413.161 191.454L409.688 194.947V196ZM422.155 196.164C424.506 196.164 425.921 194.202 425.921 191.071V191.058C425.921 187.927 424.506 185.972 422.155 185.972C419.796 185.972 418.388 187.927 418.388 191.058V191.071C418.388 194.202 419.796 196.164 422.155 196.164ZM422.155 194.886C420.747 194.886 419.933 193.437 419.933 191.071V191.058C419.933 188.692 420.747 187.257 422.155 187.257C423.556 187.257 424.376 188.692 424.376 191.058V191.071C424.376 193.437 423.556 194.886 422.155 194.886Z" fill="white"/>
<path d="M564.456 146.164C565.098 146.164 565.686 146.068 566.212 145.877L567.053 147.046H568.646L567.347 145.248C568.455 144.38 569.077 142.931 569.077 141.071V141.058C569.077 137.934 567.299 135.972 564.456 135.972C561.619 135.972 559.835 137.927 559.835 141.058V141.071C559.835 144.209 561.612 146.164 564.456 146.164ZM564.456 144.811C562.583 144.811 561.4 143.368 561.4 141.071V141.058C561.4 138.761 562.589 137.325 564.456 137.325C566.329 137.325 567.504 138.768 567.504 141.058V141.071C567.504 142.356 567.135 143.382 566.472 144.031L565.713 142.979H564.128L565.358 144.688C565.078 144.77 564.777 144.811 564.456 144.811ZM573.661 146H575.158V136.136H573.648L571.05 137.981V139.431L573.627 137.653H573.661V146ZM581.948 146H588.695V144.708H583.999V144.646L586.241 142.445C588.012 140.695 588.538 139.896 588.538 138.768V138.754C588.538 137.161 587.185 135.972 585.291 135.972C583.363 135.972 581.866 137.25 581.866 139.014V139.055H583.315V139.014C583.329 138.016 584.156 137.236 585.312 137.236C586.31 137.236 587.021 137.906 587.027 138.843V138.856C587.027 139.622 586.733 140.142 585.421 141.454L581.948 144.947V146ZM594.415 146.164C596.766 146.164 598.181 144.202 598.181 141.071V141.058C598.181 137.927 596.766 135.972 594.415 135.972C592.056 135.972 590.648 137.927 590.648 141.058V141.071C590.648 144.202 592.056 146.164 594.415 146.164ZM594.415 144.886C593.006 144.886 592.193 143.437 592.193 141.071V141.058C592.193 138.692 593.006 137.257 594.415 137.257C595.816 137.257 596.636 138.692 596.636 141.058V141.071C596.636 143.437 595.816 144.886 594.415 144.886ZM600.209 146H606.956V144.708H602.26V144.646L604.502 142.445C606.272 140.695 606.799 139.896 606.799 138.768V138.754C606.799 137.161 605.445 135.972 603.552 135.972C601.624 135.972 600.127 137.25 600.127 139.014V139.055H601.576V139.014C601.59 138.016 602.417 137.236 603.572 137.236C604.57 137.236 605.281 137.906 605.288 138.843V138.856C605.288 139.622 604.994 140.142 603.682 141.454L600.209 144.947V146ZM611.581 146H613.079V136.136H611.568L608.97 137.981V139.431L611.547 137.653H611.581V146Z" fill="white"/>
<path d="M775.601 196.164C776.244 196.164 776.832 196.068 777.358 195.877L778.199 197.046H779.792L778.493 195.248C779.6 194.38 780.222 192.931 780.222 191.071V191.058C780.222 187.934 778.445 185.972 775.601 185.972C772.764 185.972 770.98 187.927 770.98 191.058V191.071C770.98 194.209 772.757 196.164 775.601 196.164ZM775.601 194.811C773.728 194.811 772.545 193.368 772.545 191.071V191.058C772.545 188.761 773.735 187.325 775.601 187.325C777.474 187.325 778.65 188.768 778.65 191.058V191.071C778.65 192.356 778.281 193.382 777.618 194.031L776.859 192.979H775.273L776.503 194.688C776.223 194.77 775.922 194.811 775.601 194.811ZM782.312 196H789.059V194.708H784.362V194.646L786.605 192.445C788.375 190.695 788.901 189.896 788.901 188.768V188.754C788.901 187.161 787.548 185.972 785.654 185.972C783.727 185.972 782.23 187.25 782.23 189.014V189.055H783.679V189.014C783.692 188.016 784.52 187.236 785.675 187.236C786.673 187.236 787.384 187.906 787.391 188.843V188.856C787.391 189.622 787.097 190.142 785.784 191.454L782.312 194.947V196ZM794.803 196H801.55V194.708H796.854V194.646L799.096 192.445C800.866 190.695 801.393 189.896 801.393 188.768V188.754C801.393 187.161 800.039 185.972 798.146 185.972C796.218 185.972 794.721 187.25 794.721 189.014V189.055H796.17V189.014C796.184 188.016 797.011 187.236 798.166 187.236C799.164 187.236 799.875 187.906 799.882 188.843V188.856C799.882 189.622 799.588 190.142 798.275 191.454L794.803 194.947V196ZM807.269 196.164C809.621 196.164 811.036 194.202 811.036 191.071V191.058C811.036 187.927 809.621 185.972 807.269 185.972C804.911 185.972 803.502 187.927 803.502 191.058V191.071C803.502 194.202 804.911 196.164 807.269 196.164ZM807.269 194.886C805.861 194.886 805.047 193.437 805.047 191.071V191.058C805.047 188.692 805.861 187.257 807.269 187.257C808.67 187.257 809.491 188.692 809.491 191.058V191.071C809.491 193.437 808.67 194.886 807.269 194.886ZM813.063 196H819.811V194.708H815.114V194.646L817.356 192.445C819.127 190.695 819.653 189.896 819.653 188.768V188.754C819.653 187.161 818.3 185.972 816.406 185.972C814.478 185.972 812.981 187.25 812.981 189.014V189.055H814.431V189.014C814.444 188.016 815.271 187.236 816.427 187.236C817.425 187.236 818.136 187.906 818.143 188.843V188.856C818.143 189.622 817.849 190.142 816.536 191.454L813.063 194.947V196ZM824.436 196H825.933V186.136H824.422L821.825 187.981V189.431L824.402 187.653H824.436V196Z" fill="white"/>
<path d="M1232.31 196.164C1232.96 196.164 1233.54 196.068 1234.07 195.877L1234.91 197.046H1236.5L1235.21 195.248C1236.31 194.38 1236.94 192.931 1236.94 191.071V191.058C1236.94 187.934 1235.16 185.972 1232.31 185.972C1229.48 185.972 1227.69 187.927 1227.69 191.058V191.071C1227.69 194.209 1229.47 196.164 1232.31 196.164ZM1232.31 194.811C1230.44 194.811 1229.26 193.368 1229.26 191.071V191.058C1229.26 188.761 1230.45 187.325 1232.31 187.325C1234.19 187.325 1235.36 188.768 1235.36 191.058V191.071C1235.36 192.356 1234.99 193.382 1234.33 194.031L1233.57 192.979H1231.99L1233.22 194.688C1232.94 194.77 1232.64 194.811 1232.31 194.811ZM1243.71 196H1245.18V194.038H1246.54V192.753H1245.18V186.136H1242.97L1238.78 192.705V194.038H1243.71V196ZM1240.2 192.773V192.732L1243.69 187.346H1243.73V192.773H1240.2ZM1252.09 196H1258.84V194.708H1254.14V194.646L1256.38 192.445C1258.15 190.695 1258.68 189.896 1258.68 188.768V188.754C1258.68 187.161 1257.33 185.972 1255.43 185.972C1253.5 185.972 1252.01 187.25 1252.01 189.014V189.055H1253.46V189.014C1253.47 188.016 1254.3 187.236 1255.45 187.236C1256.45 187.236 1257.16 187.906 1257.17 188.843V188.856C1257.17 189.622 1256.88 190.142 1255.56 191.454L1252.09 194.947V196ZM1264.56 196.164C1266.91 196.164 1268.32 194.202 1268.32 191.071V191.058C1268.32 187.927 1266.91 185.972 1264.56 185.972C1262.2 185.972 1260.79 187.927 1260.79 191.058V191.071C1260.79 194.202 1262.2 196.164 1264.56 196.164ZM1264.56 194.886C1263.15 194.886 1262.33 193.437 1262.33 191.071V191.058C1262.33 188.692 1263.15 187.257 1264.56 187.257C1265.96 187.257 1266.78 188.692 1266.78 191.058V191.071C1266.78 193.437 1265.96 194.886 1264.56 194.886ZM1270.35 196H1277.1V194.708H1272.4V194.646L1274.64 192.445C1276.41 190.695 1276.94 189.896 1276.94 188.768V188.754C1276.94 187.161 1275.59 185.972 1273.69 185.972C1271.77 185.972 1270.27 187.25 1270.27 189.014V189.055H1271.72V189.014C1271.73 188.016 1272.56 187.236 1273.71 187.236C1274.71 187.236 1275.42 187.906 1275.43 188.843V188.856C1275.43 189.622 1275.14 190.142 1273.82 191.454L1270.35 194.947V196ZM1281.72 196H1283.22V186.136H1281.71L1279.11 187.981V189.431L1281.69 187.653H1281.72V196Z" fill="white"/>
<path d="M1440.6 146.164C1441.24 146.164 1441.83 146.068 1442.36 145.877L1443.2 147.046H1444.79L1443.49 145.248C1444.6 144.38 1445.22 142.931 1445.22 141.071V141.058C1445.22 137.934 1443.44 135.972 1440.6 135.972C1437.76 135.972 1435.98 137.927 1435.98 141.058V141.071C1435.98 144.209 1437.76 146.164 1440.6 146.164ZM1440.6 144.811C1438.73 144.811 1437.55 143.368 1437.55 141.071V141.058C1437.55 138.761 1438.73 137.325 1440.6 137.325C1442.47 137.325 1443.65 138.768 1443.65 141.058V141.071C1443.65 142.356 1443.28 143.382 1442.62 144.031L1441.86 142.979H1440.27L1441.5 144.688C1441.22 144.77 1440.92 144.811 1440.6 144.811ZM1449.81 146H1451.3V136.136H1449.79L1447.2 137.981V139.431L1449.77 137.653H1449.81V146ZM1458.09 146H1464.84V144.708H1460.14V144.646L1462.39 142.445C1464.16 140.695 1464.68 139.896 1464.68 138.768V138.754C1464.68 137.161 1463.33 135.972 1461.44 135.972C1459.51 135.972 1458.01 137.25 1458.01 139.014V139.055H1459.46V139.014C1459.47 138.016 1460.3 137.236 1461.46 137.236C1462.46 137.236 1463.17 137.906 1463.17 138.843V138.856C1463.17 139.622 1462.88 140.142 1461.57 141.454L1458.09 144.947V146ZM1470.56 146.164C1472.91 146.164 1474.33 144.202 1474.33 141.071V141.058C1474.33 137.927 1472.91 135.972 1470.56 135.972C1468.2 135.972 1466.79 137.927 1466.79 141.058V141.071C1466.79 144.202 1468.2 146.164 1470.56 146.164ZM1470.56 144.886C1469.15 144.886 1468.34 143.437 1468.34 141.071V141.058C1468.34 138.692 1469.15 137.257 1470.56 137.257C1471.96 137.257 1472.78 138.692 1472.78 141.058V141.071C1472.78 143.437 1471.96 144.886 1470.56 144.886ZM1476.35 146H1483.1V144.708H1478.41V144.646L1480.65 142.445C1482.42 140.695 1482.94 139.896 1482.94 138.768V138.754C1482.94 137.161 1481.59 135.972 1479.7 135.972C1477.77 135.972 1476.27 137.25 1476.27 139.014V139.055H1477.72V139.014C1477.74 138.016 1478.56 137.236 1479.72 137.236C1480.72 137.236 1481.43 137.906 1481.43 138.843V138.856C1481.43 139.622 1481.14 140.142 1479.83 141.454L1476.35 144.947V146ZM1485.23 146H1491.98V144.708H1487.28V144.646L1489.52 142.445C1491.3 140.695 1491.82 139.896 1491.82 138.768V138.754C1491.82 137.161 1490.47 135.972 1488.57 135.972C1486.65 135.972 1485.15 137.25 1485.15 139.014V139.055H1486.6V139.014C1486.61 138.016 1487.44 137.236 1488.6 137.236C1489.59 137.236 1490.3 137.906 1490.31 138.843V138.856C1490.31 139.622 1490.02 140.142 1488.7 141.454L1485.23 144.947V146Z" fill="white"/>
<path d="M1008.42 146.164C1009.06 146.164 1009.65 146.068 1010.17 145.877L1011.01 147.046H1012.61L1011.31 145.248C1012.42 144.38 1013.04 142.931 1013.04 141.071V141.058C1013.04 137.934 1011.26 135.972 1008.42 135.972C1005.58 135.972 1003.8 137.927 1003.8 141.058V141.071C1003.8 144.209 1005.57 146.164 1008.42 146.164ZM1008.42 144.811C1006.54 144.811 1005.36 143.368 1005.36 141.071V141.058C1005.36 138.761 1006.55 137.325 1008.42 137.325C1010.29 137.325 1011.47 138.768 1011.47 141.058V141.071C1011.47 142.356 1011.1 143.382 1010.43 144.031L1009.67 142.979H1008.09L1009.32 144.688C1009.04 144.77 1008.74 144.811 1008.42 144.811ZM1018.57 146.164C1020.66 146.164 1022.15 144.961 1022.15 143.272V143.259C1022.15 141.878 1021.18 141.003 1019.73 140.873V140.839C1020.93 140.586 1021.81 139.766 1021.81 138.542V138.528C1021.81 137.011 1020.52 135.972 1018.56 135.972C1016.63 135.972 1015.32 137.059 1015.17 138.706L1015.16 138.774H1016.6L1016.6 138.713C1016.7 137.797 1017.46 137.223 1018.56 137.223C1019.67 137.223 1020.32 137.776 1020.32 138.727V138.74C1020.32 139.656 1019.55 140.319 1018.42 140.319H1017.27V141.509H1018.46C1019.78 141.509 1020.59 142.131 1020.59 143.245V143.259C1020.59 144.216 1019.78 144.886 1018.57 144.886C1017.35 144.886 1016.52 144.271 1016.43 143.396L1016.42 143.32H1014.95L1014.96 143.409C1015.09 145.016 1016.47 146.164 1018.57 146.164ZM1027.99 146H1034.73V144.708H1030.04V144.646L1032.28 142.445C1034.05 140.695 1034.58 139.896 1034.58 138.768V138.754C1034.58 137.161 1033.22 135.972 1031.33 135.972C1029.4 135.972 1027.91 137.25 1027.91 139.014V139.055H1029.35V139.014C1029.37 138.016 1030.2 137.236 1031.35 137.236C1032.35 137.236 1033.06 137.906 1033.07 138.843V138.856C1033.07 139.622 1032.77 140.142 1031.46 141.454L1027.99 144.947V146ZM1040.45 146.164C1042.81 146.164 1044.22 144.202 1044.22 141.071V141.058C1044.22 137.927 1042.81 135.972 1040.45 135.972C1038.1 135.972 1036.69 137.927 1036.69 141.058V141.071C1036.69 144.202 1038.1 146.164 1040.45 146.164ZM1040.45 144.886C1039.05 144.886 1038.23 143.437 1038.23 141.071V141.058C1038.23 138.692 1039.05 137.257 1040.45 137.257C1041.85 137.257 1042.68 138.692 1042.68 141.058V141.071C1042.68 143.437 1041.85 144.886 1040.45 144.886ZM1046.25 146H1053V144.708H1048.3V144.646L1050.54 142.445C1052.31 140.695 1052.84 139.896 1052.84 138.768V138.754C1052.84 137.161 1051.48 135.972 1049.59 135.972C1047.66 135.972 1046.17 137.25 1046.17 139.014V139.055H1047.62V139.014C1047.63 138.016 1048.46 137.236 1049.61 137.236C1050.61 137.236 1051.32 137.906 1051.33 138.843V138.856C1051.33 139.622 1051.03 140.142 1049.72 141.454L1046.25 144.947V146ZM1057.62 146H1059.12V136.136H1057.61L1055.01 137.981V139.431L1057.59 137.653H1057.62V146Z" fill="white"/>
<defs>
<linearGradient id="paint0_linear_5286_11633" x1="-4" y1="167" x2="1923" y2="167" gradientUnits="userSpaceOnUse">
<stop stop-color="#2FFF6D" stop-opacity="0"/>
<stop offset="0.364583" stop-color="#2FFF6D" stop-opacity="0.681818"/>
<stop offset="0.645833" stop-color="#2FFF6D"/>
<stop offset="1" stop-color="#2FFF6D" stop-opacity="0"/>
</linearGradient>
</defs>
</svg>
