<svg width="274" height="66" viewBox="0 0 274 66" fill="none" xmlns="http://www.w3.org/2000/svg">
<path d="M20.375 66L54.6102 42.4565C55.1854 42.0627 55.6416 38.0076 54.9474 37.5351C54.2532 37.0627 20.375 66 20.375 66Z" fill="url(#paint0_linear_5041_13145)"/>
<path d="M64.3533 0L46.2451 29.8596L47.6274 31.0588L64.3533 0Z" fill="url(#paint1_linear_5041_13145)"/>
<path d="M66.0923 30.2264C66.4648 30.2849 66.8337 30.3648 67.1973 30.4656L68.2629 30.8045C68.9487 31.0678 69.6148 31.381 70.2559 31.7416C71.5582 32.4593 72.8211 33.2168 74.0445 34.0542C76.5111 35.7089 78.9185 37.543 80.9312 39.9354C81.9376 41.1515 82.865 42.5072 83.3978 44.1819C83.6907 45.0464 83.8049 45.9624 83.7333 46.8733C83.6761 47.8158 83.3989 48.7313 82.9242 49.5448C82.6953 49.9404 82.4311 50.3141 82.1349 50.6612C81.8458 50.9869 81.536 51.2932 81.2075 51.5783C80.575 52.1053 79.8868 52.56 79.1553 52.934C77.7667 53.6322 76.3036 54.1673 74.7944 54.5289C71.8542 55.2665 68.8943 55.5457 65.9739 55.6254C63.0436 55.6954 60.1118 55.5956 57.1928 55.3264C51.4019 54.8049 45.6613 53.8182 40.0254 52.3758C34.3928 50.9761 28.8667 49.1706 23.4895 46.973C20.8058 45.8566 18.1616 44.6205 15.5964 43.2449C14.3138 42.5471 13.0509 41.8294 11.8077 41.0519C10.5646 40.2743 9.36087 39.4569 8.17691 38.5797C7.00476 37.682 5.88473 36.7168 4.82235 35.689C3.74221 34.6346 2.81245 33.4335 2.05978 32.1203C1.66852 31.4466 1.36979 30.7223 1.17181 29.9672C0.967563 29.1872 0.920593 28.3736 1.03369 27.5748C1.15549 26.7685 1.45195 25.9993 1.90192 25.322C2.34773 24.673 2.89408 24.1008 3.52 23.6274C4.73747 22.7349 6.09033 22.0482 7.52573 21.5939C8.92278 21.1313 10.3549 20.7846 11.8077 20.5572C13.2451 20.318 14.6943 20.1582 16.1489 20.0787L17.2342 19.999L18.3195 19.8993L19.4048 19.7398C19.76 19.6601 20.1152 19.5803 20.4901 19.4607C20.7387 19.3789 21.0092 19.4002 21.2423 19.5198C21.4754 19.6394 21.652 19.8476 21.7332 20.0987C21.7763 20.2243 21.7941 20.3573 21.7856 20.4899C21.7771 20.6226 21.7424 20.7521 21.6835 20.871C21.6247 20.9899 21.5429 21.0957 21.443 21.1822C21.3431 21.2687 21.2271 21.3341 21.1018 21.3746C20.9021 21.4339 20.6898 21.4339 20.4901 21.3746C19.7911 21.16 19.0688 21.0328 18.3392 20.9958C17.6283 20.9659 16.9163 20.9859 16.2081 21.0556C14.7874 21.1553 13.3666 21.3347 11.9656 21.574C10.5808 21.8182 9.21557 22.1647 7.88092 22.6107C6.55883 23.0891 5.2762 23.6872 4.21064 24.5246C3.68989 24.927 3.2368 25.4117 2.86882 25.96C2.51422 26.492 2.28473 27.0989 2.19791 27.7343C2.02032 29.0103 2.4347 30.3261 3.12534 31.5023C3.84852 32.696 4.73172 33.7829 5.74979 34.732C6.75977 35.7225 7.84149 36.6355 8.98595 37.4633C11.3023 39.122 13.7434 40.5951 16.287 41.8693C18.8325 43.1651 21.457 44.3214 24.1209 45.3581C29.4508 47.4315 34.9251 49.1041 40.499 50.3622C46.0545 51.659 51.7023 52.5122 57.3902 52.914C60.2137 53.1233 63.047 53.1632 65.8752 53.0337C67.2762 52.9539 68.6773 52.8343 70.0585 52.6549C71.4277 52.4784 72.7852 52.2187 74.1235 51.8774C75.4141 51.5446 76.6647 51.0699 77.853 50.4619C78.9777 49.8438 79.9446 49.0464 80.4577 48.1293C80.9707 47.2122 81.0102 46.1755 80.6353 45.079C80.2603 43.9825 79.5697 42.8661 78.7015 41.8693C77.8113 40.8477 76.8341 39.9071 75.781 39.0582C74.6985 38.1831 73.5723 37.3646 72.4067 36.606C71.2228 35.8285 70.0191 35.1307 68.7759 34.433C68.1642 34.094 67.5722 33.7153 66.9803 33.3165L66.112 32.6786C65.818 32.461 65.541 32.2211 65.2832 31.9609H65.2635C65.171 31.8682 65.0976 31.7579 65.0475 31.6365C64.9975 31.515 64.9717 31.3847 64.9717 31.2531C64.9717 31.1215 64.9975 30.9912 65.0475 30.8698C65.0976 30.7483 65.171 30.638 65.2635 30.5454C65.3684 30.4318 65.4976 30.344 65.6412 30.2887C65.7849 30.2334 65.9392 30.2121 66.0923 30.2264Z" fill="url(#paint2_linear_5041_13145)"/>
<path d="M64.3533 0L46.2451 29.8596L47.6274 31.0588L64.3533 0Z" fill="url(#paint3_linear_5041_13145)"/>
<path d="M32.4654 29.7508C31.8577 30.2231 32.6633 34.2737 33.2427 34.8462C33.8222 35.4187 38.7827 39.9272 38.7827 39.9272L40.2949 37.7087C40.2949 37.7087 33.2427 29.164 32.4654 29.7508Z" fill="url(#paint4_linear_5041_13145)"/>
<path d="M21.5566 65.6471L54.9801 42.1743C55.5454 41.7735 55.9976 37.7373 55.3193 37.265C54.6409 36.7927 21.5566 65.6471 21.5566 65.6471Z" fill="url(#paint5_linear_5041_13145)"/>
<path d="M64.3491 0.567505L46.5986 29.8656L47.9412 31.0392L64.3491 0.567505Z" fill="url(#paint6_linear_5041_13145)"/>
<path d="M63.6431 0.152139L32.4667 29.7508C32.4159 29.7951 32.3751 29.8501 32.3472 29.9118C32.3192 29.9736 32.3047 30.0407 32.3047 30.1086C32.3047 30.1765 32.3192 30.2437 32.3472 30.3054C32.3751 30.3672 32.4159 30.4221 32.4667 30.4664L40.2961 37.7087L20.9487 65.0745C20.8984 65.159 20.8783 65.2583 20.8918 65.356C20.9053 65.4536 20.9516 65.5436 21.0229 65.6108C21.0942 65.6779 21.1861 65.7182 21.2833 65.7248C21.3804 65.7314 21.4769 65.7039 21.5564 65.647L55.3049 38.0092C55.3593 37.9646 55.4034 37.9085 55.4342 37.8448C55.4649 37.7811 55.4815 37.7113 55.4829 37.6404C55.4842 37.5695 55.4702 37.4992 55.4419 37.4343C55.4136 37.3695 55.3717 37.3117 55.319 37.2649L46.6699 29.9082L64.279 0.681702C64.3484 0.596293 64.3814 0.486489 64.3708 0.376439C64.3602 0.266389 64.3068 0.16511 64.2225 0.0948849C64.1382 0.0246596 64.0298 -0.00876545 63.9211 0.00197114C63.8124 0.0127077 63.7124 0.06673 63.6431 0.152139Z" fill="#F3FC1F"/>
<path d="M66.0923 30.2264C66.4648 30.2849 66.8337 30.3648 67.1973 30.4656L68.2629 30.8045C68.9487 31.0678 69.6148 31.381 70.2559 31.7416C71.5582 32.4593 72.8211 33.2168 74.0445 34.0542C76.5111 35.7089 78.9185 37.543 80.9312 39.9354C81.9376 41.1515 82.865 42.5072 83.3978 44.1819C83.6907 45.0464 83.8049 45.9624 83.7333 46.8733C83.6761 47.8158 83.3989 48.7313 82.9242 49.5448C82.6953 49.9404 82.4311 50.3141 82.1349 50.6612C81.8458 50.9869 81.536 51.2932 81.2075 51.5783C80.575 52.1053 79.8868 52.56 79.1553 52.934C77.7667 53.6322 76.3036 54.1673 74.7944 54.5289C71.8542 55.2665 68.8943 55.5457 65.9739 55.6254C63.0436 55.6954 60.1118 55.5956 57.1928 55.3264C51.4019 54.8049 45.6613 53.8182 40.0254 52.3758C34.3928 50.9761 28.8667 49.1706 23.4895 46.973C20.8058 45.8566 18.1616 44.6205 15.5964 43.2449C14.3138 42.5471 13.0509 41.8294 11.8077 41.0519C10.5646 40.2743 9.36087 39.4569 8.17691 38.5797C7.00476 37.682 5.88473 36.7168 4.82235 35.689C3.74221 34.6346 2.81245 33.4335 2.05978 32.1203C1.66852 31.4466 1.36979 30.7223 1.17181 29.9672C0.967563 29.1872 0.920593 28.3736 1.03369 27.5748C1.15549 26.7685 1.45195 25.9993 1.90192 25.322C2.34773 24.673 2.89408 24.1008 3.52 23.6274C4.73747 22.7349 6.09033 22.0482 7.52573 21.5939C8.92278 21.1313 10.3549 20.7846 11.8077 20.5572C13.2451 20.318 14.6943 20.1582 16.1489 20.0787L17.2342 19.999L18.3195 19.8993L19.4048 19.7398C19.76 19.6601 20.1152 19.5803 20.4901 19.4607C20.7387 19.3789 21.0092 19.4002 21.2423 19.5198C21.4754 19.6394 21.652 19.8476 21.7332 20.0987C21.7763 20.2243 21.7941 20.3573 21.7856 20.4899C21.7771 20.6226 21.7424 20.7521 21.6835 20.871C21.6247 20.9899 21.5429 21.0957 21.443 21.1822C21.3431 21.2687 21.2271 21.3341 21.1018 21.3746C20.9021 21.4339 20.6898 21.4339 20.4901 21.3746C19.7911 21.16 19.0688 21.0328 18.3392 20.9958C17.6283 20.9659 16.9163 20.9859 16.2081 21.0556C14.7874 21.1553 13.3666 21.3347 11.9656 21.574C10.5808 21.8182 9.21557 22.1647 7.88092 22.6107C6.55883 23.0891 5.2762 23.6872 4.21064 24.5246C3.68989 24.927 3.2368 25.4117 2.86882 25.96C2.51422 26.492 2.28473 27.0989 2.19791 27.7343C2.02032 29.0103 2.4347 30.3261 3.12534 31.5023C3.84852 32.696 4.73172 33.7829 5.74979 34.732C6.75977 35.7225 7.84149 36.6355 8.98595 37.4633C11.3023 39.122 13.7434 40.5951 16.287 41.8693C18.8325 43.1651 21.457 44.3214 24.1209 45.3581C29.4508 47.4315 34.9251 49.1041 40.499 50.3622C46.0545 51.659 51.7023 52.5122 57.3902 52.914C60.2137 53.1233 63.047 53.1632 65.8752 53.0337C67.2762 52.9539 68.6773 52.8343 70.0585 52.6549C71.4277 52.4784 72.7852 52.2187 74.1235 51.8774C75.4141 51.5446 76.6647 51.0699 77.853 50.4619C78.9777 49.8438 79.9446 49.0464 80.4577 48.1293C80.9707 47.2122 81.0102 46.1755 80.6353 45.079C80.2603 43.9825 79.5697 42.8661 78.7015 41.8693C77.8113 40.8477 76.8341 39.9071 75.781 39.0582C74.6985 38.1831 73.5723 37.3646 72.4067 36.606C71.2228 35.8285 70.0191 35.1307 68.7759 34.433C68.1642 34.094 67.5722 33.7153 66.9803 33.3165L66.112 32.6786C65.818 32.461 65.541 32.2211 65.2832 31.9609H65.2635C65.171 31.8682 65.0976 31.7579 65.0475 31.6365C64.9975 31.515 64.9717 31.3847 64.9717 31.2531C64.9717 31.1215 64.9975 30.9912 65.0475 30.8698C65.0976 30.7483 65.171 30.638 65.2635 30.5454C65.3684 30.4318 65.4976 30.344 65.6412 30.2887C65.7849 30.2334 65.9392 30.2121 66.0923 30.2264Z" fill="url(#paint7_linear_5041_13145)"/>
<g clip-path="url(#clip0_5041_13145)">
<path d="M70.8821 29.5765L67.1944 30.0505L66.1923 29.4186C64.8447 28.5183 63.3058 28.24 61.8232 28.6286L61.9034 28.8392C62.5523 30.4123 63.543 31.6958 64.7493 32.526L65.9117 33.2633L67.8357 37.5294L68.1564 34.7906L69.399 31.5779L70.8821 29.5765Z" fill="url(#paint8_linear_5041_13145)"/>
</g>
<path d="M98.4775 49H106.743L117.592 16.5889H110.067L102.678 42.0596H102.543L95.1309 16.5889H87.6289L98.4775 49ZM128.261 49.4941C135.538 49.4941 140.188 44.8223 140.188 36.9609V36.916C140.188 29.1221 135.448 24.4277 128.238 24.4277C121.051 24.4277 116.334 29.167 116.334 36.916V36.9609C116.334 44.7998 120.938 49.4941 128.261 49.4941ZM128.283 44.3506C125.049 44.3506 123.005 41.6777 123.005 36.9609V36.916C123.005 32.2666 125.071 29.5713 128.238 29.5713C131.428 29.5713 133.517 32.2666 133.517 36.916V36.9609C133.517 41.6553 131.473 44.3506 128.283 44.3506ZM143.736 49H150.295V16.5889H143.736V49ZM164.288 49.4941C165.658 49.4941 166.714 49.3594 167.455 49.2471V44.4404C167.051 44.4854 166.624 44.5527 166.04 44.5527C164.063 44.5527 163.053 43.7891 163.053 41.543V29.8633H167.455V24.9219H163.053V19.0371H156.427V24.9219H153.08V29.8633H156.427V42.2617C156.427 47.4277 158.942 49.4941 164.288 49.4941ZM178.012 49.3818C181.179 49.3818 183.739 47.877 185.109 45.4062H185.244V49H191.803V32.4912C191.803 27.6396 187.782 24.4277 181.561 24.4277C175.204 24.4277 171.386 27.6172 171.026 32.0645L171.004 32.334H177.001L177.046 32.1318C177.36 30.582 178.843 29.4365 181.291 29.4365C183.852 29.4365 185.244 30.7617 185.244 32.8955V34.3779L179.292 34.7373C173.317 35.1191 169.926 37.6797 169.926 42.0596V42.1045C169.926 46.3496 173.183 49.3818 178.012 49.3818ZM176.417 41.7676V41.7227C176.417 40.0156 177.742 38.9375 180.28 38.7803L185.244 38.4658V40.1953C185.244 42.7109 183.088 44.5977 180.146 44.5977C177.877 44.5977 176.417 43.542 176.417 41.7676ZM207.301 57.3555C214.533 57.3555 219.048 53.6943 219.048 48.3262V24.9219H212.489V29.0322H212.354C211.052 26.2246 208.424 24.4277 205.032 24.4277C198.945 24.4277 195.172 28.9873 195.172 36.6689V36.6914C195.172 44.1709 198.9 48.6631 204.92 48.6631C208.401 48.6631 211.097 47.0684 212.354 44.5527H212.489V48.2363C212.489 50.9316 210.692 52.6836 207.301 52.6836C204.561 52.6836 202.809 51.6504 202.292 50.46L202.225 50.3027H195.846L195.868 50.5049C196.497 54.3682 200.675 57.3555 207.301 57.3555ZM207.188 43.8564C203.909 43.8564 201.843 41.1836 201.843 36.8486V36.8262C201.843 32.5137 203.932 29.8633 207.188 29.8633C210.378 29.8633 212.512 32.5361 212.512 36.8262V36.8486C212.512 41.1611 210.4 43.8564 207.188 43.8564ZM234.321 49.4941C241.194 49.4941 244.519 45.4287 245.26 41.8799L245.327 41.6328H239.308L239.263 41.7676C238.791 43.1152 237.151 44.5977 234.456 44.5977C231.109 44.5977 229.021 42.3516 228.953 38.5107H245.529V36.4893C245.529 29.2119 241.104 24.4277 234.052 24.4277C226.999 24.4277 222.484 29.3242 222.484 36.9834V37.0059C222.484 44.71 226.954 49.4941 234.321 49.4941ZM234.164 29.3242C236.882 29.3242 238.836 31.0537 239.24 34.3779H229.021C229.447 31.1211 231.469 29.3242 234.164 29.3242Z" fill="url(#paint9_linear_5041_13145)"/>
<defs>
<linearGradient id="paint0_linear_5041_13145" x1="57.6311" y1="35.415" x2="22.5035" y2="68.7382" gradientUnits="userSpaceOnUse">
<stop stop-color="#3AD889"/>
<stop offset="0.36" stop-color="#23A763"/>
<stop offset="0.79" stop-color="#0A7039"/>
<stop offset="1" stop-color="#005B29"/>
</linearGradient>
<linearGradient id="paint1_linear_5041_13145" x1="4178.36" y1="2496.2" x2="5838.16" y2="2496.2" gradientUnits="userSpaceOnUse">
<stop stop-color="#3AD889"/>
<stop offset="0.36" stop-color="#23A763"/>
<stop offset="0.79" stop-color="#0A7039"/>
<stop offset="1" stop-color="#005B29"/>
</linearGradient>
<linearGradient id="paint2_linear_5041_13145" x1="0.0312646" y1="37.5331" x2="83.8517" y2="37.5331" gradientUnits="userSpaceOnUse">
<stop stop-color="#3AD889" stop-opacity="0.5"/>
<stop offset="0.21" stop-color="#65E070" stop-opacity="0.62"/>
<stop offset="0.6" stop-color="#B1EF45" stop-opacity="0.82"/>
<stop offset="0.87" stop-color="#E1F82A" stop-opacity="0.95"/>
<stop offset="1" stop-color="#F3FC1F"/>
</linearGradient>
<linearGradient id="paint3_linear_5041_13145" x1="4192.12" y1="2496.2" x2="5851.92" y2="2496.2" gradientUnits="userSpaceOnUse">
<stop stop-color="#3AD889"/>
<stop offset="0.36" stop-color="#23A763"/>
<stop offset="0.79" stop-color="#0A7039"/>
<stop offset="1" stop-color="#005B29"/>
</linearGradient>
<linearGradient id="paint4_linear_5041_13145" x1="31.6203" y1="38.5073" x2="39.7518" y2="31.2502" gradientUnits="userSpaceOnUse">
<stop stop-color="#3AD889"/>
<stop offset="0.15" stop-color="#35CE81"/>
<stop offset="0.4" stop-color="#29B36D"/>
<stop offset="0.71" stop-color="#15884C"/>
<stop offset="1" stop-color="#005B29"/>
</linearGradient>
<linearGradient id="paint5_linear_5041_13145" x1="57.9338" y1="35.1625" x2="22.9759" y2="67.6597" gradientUnits="userSpaceOnUse">
<stop stop-color="#3AD889"/>
<stop offset="0.36" stop-color="#23A763"/>
<stop offset="0.79" stop-color="#0A7039"/>
<stop offset="1" stop-color="#005B29"/>
</linearGradient>
<linearGradient id="paint6_linear_5041_13145" x1="5593.44" y1="3357.03" x2="7823.08" y2="3357.03" gradientUnits="userSpaceOnUse">
<stop stop-color="#3AD889"/>
<stop offset="0.36" stop-color="#23A763"/>
<stop offset="0.79" stop-color="#0A7039"/>
<stop offset="1" stop-color="#005B29"/>
</linearGradient>
<linearGradient id="paint7_linear_5041_13145" x1="0.0312646" y1="37.5331" x2="83.8517" y2="37.5331" gradientUnits="userSpaceOnUse">
<stop stop-color="#3AD889" stop-opacity="0.5"/>
<stop offset="0.21" stop-color="#65E070" stop-opacity="0.62"/>
<stop offset="0.6" stop-color="#B1EF45" stop-opacity="0.82"/>
<stop offset="0.87" stop-color="#E1F82A" stop-opacity="0.95"/>
<stop offset="1" stop-color="#F3FC1F"/>
</linearGradient>
<linearGradient id="paint8_linear_5041_13145" x1="60.3134" y1="27.5646" x2="69.5607" y2="31.1238" gradientUnits="userSpaceOnUse">
<stop stop-color="#3AD889"/>
<stop offset="0.78205" stop-color="#F3FC1F"/>
</linearGradient>
<linearGradient id="paint9_linear_5041_13145" x1="79.9875" y1="17.8571" x2="276.418" y2="52.5606" gradientUnits="userSpaceOnUse">
<stop stop-color="#F3FC1F"/>
<stop offset="1" stop-color="#3AD889"/>
</linearGradient>
<clipPath id="clip0_5041_13145">
<rect width="9.05882" height="9.05882" fill="white" transform="translate(61.8232 28.4706)"/>
</clipPath>
</defs>
</svg>
