<svg width="17" height="17" viewBox="0 0 17 17" fill="none" xmlns="http://www.w3.org/2000/svg">
<path d="M15.6954 17H4.13209L3.77157 16.9379C1.82655 16.6363 0.188645 15.0042 0.015062 12.8798C-0.0635328 11.9268 0.166904 10.9738 0.67247 10.1611C1.17804 9.34834 1.93204 8.71874 2.82354 8.36491C3.19741 8.21856 3.59353 8.13873 3.99856 8.01898V1.59256C3.99856 0.630149 4.63058 0.00036924 5.59641 0.00036924H13.0427C13.1472 -0.00293085 13.2512 0.015921 13.3479 0.0556777C13.4446 0.0954344 13.5317 0.155191 13.6035 0.230994C14.6539 1.28654 15.7072 2.33617 16.7636 3.37989C16.8417 3.45286 16.9032 3.54171 16.9439 3.64041C16.9846 3.73912 17.0035 3.84538 16.9995 3.95202C16.9935 6.13407 16.992 8.31465 16.995 10.4937C16.995 12.1525 16.9995 13.8112 16.995 15.4743C16.9906 16.1352 16.679 16.6097 16.0737 16.8847C15.9535 16.9379 15.8244 16.9601 15.6954 17ZM8.97015 12.0194H14.1287C14.3557 12.0194 14.5292 12.117 14.6227 12.3254C14.774 12.6669 14.5159 13.0173 14.1153 13.0173H8.97015C8.81437 14.2236 8.26691 15.2038 7.33224 16.0065H15.3883C15.8111 16.0065 15.998 15.8203 15.998 15.3989V4.31569H13.283C12.8424 4.31569 12.6643 4.13829 12.6643 3.69035V0.99826H5.59641C5.18693 0.99826 5 1.18453 5 1.59256V8.0589C5.93467 8.20969 6.55779 8.46249 7.20316 8.9326C7.28575 8.99362 7.38524 9.0277 7.48802 9.03018C9.66893 9.03461 11.8543 9.03018 14.0352 9.03018H14.2043C14.285 9.03631 14.3629 9.06208 14.4312 9.10523C14.4996 9.14838 14.5562 9.20759 14.5962 9.27766C14.6362 9.34773 14.6583 9.42651 14.6606 9.50709C14.6629 9.58767 14.6453 9.66757 14.6094 9.73979C14.507 9.95267 14.3245 10.0236 14.0931 10.0236H8.24021C8.63677 10.6229 8.88678 11.3064 8.97015 12.0194ZM4.49705 9.03461C3.57036 9.03578 2.6819 9.40282 2.02621 10.0554C1.37052 10.7079 1.00105 11.5927 0.998697 12.5161C0.999867 13.44 1.36807 14.3257 2.02279 14.9798C2.67752 15.6339 3.56551 16.003 4.4926 16.0065C4.95297 16.0065 5.40883 15.9161 5.8341 15.7404C6.25937 15.5647 6.64571 15.3072 6.97104 14.9827C7.29636 14.6581 7.55428 14.2728 7.73006 13.8488C7.90583 13.4248 7.996 12.9704 7.99541 12.5117C7.99305 11.5887 7.62344 10.7043 6.96763 10.0525C6.31181 9.40066 5.42334 9.03461 4.49705 9.03461ZM13.6747 1.74335V3.30893H15.2458L13.6747 1.74335Z" fill="white"/>
<path d="M3.53653 13.2007C3.60235 13.1439 3.64936 13.1046 3.69168 13.061C4.33107 12.4713 4.96577 11.8729 5.60987 11.2832C5.92957 10.9862 6.41852 11.0997 6.52195 11.4929C6.57837 11.6981 6.48434 11.8598 6.32919 12.0039C5.54405 12.7334 4.75891 13.4584 3.97846 14.1879L3.91264 14.2447C3.68227 14.4325 3.39078 14.4325 3.16981 14.2359C2.81877 13.9156 2.47086 13.5924 2.12609 13.2662C1.90512 13.0566 1.90982 12.7552 2.12139 12.563C2.33296 12.3708 2.64795 12.3752 2.87832 12.5805C3.1087 12.7858 3.31086 12.9911 3.53653 13.2007Z" fill="white"/>
<path d="M6.53846 6.53857H11.1154" stroke="white" stroke-linecap="round"/>
</svg>
