<svg width="182" height="182" viewBox="0 0 182 182" fill="none" xmlns="http://www.w3.org/2000/svg">
<path d="M45.5003 45.4997L45.4997 45.5003C20.3709 70.6291 20.3709 111.371 45.4997 136.5L45.5003 136.5C70.6291 161.629 111.371 161.629 136.5 136.5L136.5 136.5C161.629 111.371 161.629 70.6291 136.5 45.5003L136.5 45.4997C111.371 20.3709 70.6291 20.3709 45.5003 45.4997Z" fill="#071927"/>
<path d="M90.999 42.2865C97.2841 42.2837 103.51 43.4949 109.336 45.8536C116.848 48.8977 123.48 53.7705 128.63 60.0293C133.78 66.2881 137.285 73.7345 138.825 81.692C140.626 90.9738 139.697 100.579 136.151 109.343C133.107 116.855 128.234 123.487 121.975 128.637C115.716 133.787 108.27 137.291 100.312 138.832C91.0306 140.633 81.4257 139.704 72.6611 136.157C65.1494 133.113 58.5173 128.241 53.3674 121.982C48.2176 115.723 44.7133 108.277 43.1728 100.32C41.3713 91.0382 42.3003 81.4334 45.8472 72.6693C48.8904 65.1563 53.7629 58.5231 60.0218 53.3722C66.2807 48.2214 73.7276 44.7163 81.6857 43.1755C84.7548 42.5836 87.8734 42.2859 90.999 42.2865ZM90.999 33.2329C76.2137 33.2329 61.4284 38.8733 50.1476 50.154C27.5862 72.7154 27.5862 109.295 50.1476 131.857C61.4284 143.138 76.2137 148.778 90.999 148.778C105.784 148.778 120.57 143.138 131.85 131.857C154.411 109.295 154.411 72.7154 131.85 50.154C120.57 38.8696 105.784 33.2329 90.999 33.2329Z" fill="url(#paint0_linear_4893_12810)"/>
<path d="M69.6693 84.349C68.5177 85.2336 70.0676 92.8268 71.1559 93.9123C72.2441 94.9978 81.6951 103.451 81.6951 103.451L84.5651 99.2865C84.5651 99.2865 71.1604 83.249 69.6693 84.349Z" fill="url(#paint1_linear_4893_12810)"/>
<path d="M48.9209 151.736L112.496 107.668C113.57 106.922 114.416 99.3387 113.123 98.4469C111.83 97.5551 48.9209 151.736 48.9209 151.736Z" fill="url(#paint2_linear_4893_12810)"/>
<path d="M130.301 29.5339L96.5449 84.5668L99.1116 86.7668L130.301 29.5339Z" fill="url(#paint3_linear_4893_12810)"/>
<path d="M128.966 28.7695L69.665 84.3456C69.5739 84.431 69.5014 84.5342 69.4521 84.6489C69.4029 84.7635 69.3778 84.8871 69.3786 85.0119C69.3793 85.1368 69.4059 85.2601 69.4566 85.3741C69.5073 85.4882 69.581 85.5905 69.6731 85.6747L84.5644 99.2867L47.7844 150.661C47.2502 151.407 48.2072 152.31 48.9206 151.733L113.11 99.8417C113.214 99.7577 113.298 99.6517 113.356 99.5314C113.414 99.4111 113.445 99.2794 113.446 99.1457C113.448 99.0121 113.419 98.8799 113.363 98.7585C113.307 98.6372 113.225 98.5297 113.123 98.4438L96.6717 84.6308L130.177 29.7546C130.656 28.9741 129.636 28.1412 128.966 28.7695Z" fill="#F3FC1F"/>
<path d="M107.561 48.2015L118.261 38.1729" stroke="#071927" stroke-miterlimit="10"/>
<path d="M61.3066 143.689L73.3687 135.339" stroke="#071927" stroke-miterlimit="10"/>
<defs>
<linearGradient id="paint0_linear_4893_12810" x1="55.1045" y1="136.277" x2="126.894" y2="45.7268" gradientUnits="userSpaceOnUse">
<stop offset="0.06" stop-color="#3AD889"/>
<stop offset="0.1" stop-color="#50DC7C"/>
<stop offset="0.2" stop-color="#7BE564"/>
<stop offset="0.3" stop-color="#A0EC4E"/>
<stop offset="0.41" stop-color="#BEF23D"/>
<stop offset="0.52" stop-color="#D6F630"/>
<stop offset="0.63" stop-color="#E6F926"/>
<stop offset="0.76" stop-color="#F0FB21"/>
<stop offset="0.93" stop-color="#F3FC1F"/>
</linearGradient>
<linearGradient id="paint1_linear_4893_12810" x1="68.0704" y1="100.78" x2="83.3582" y2="86.9601" gradientUnits="userSpaceOnUse">
<stop stop-color="#3AD889"/>
<stop offset="0.15" stop-color="#35CE81"/>
<stop offset="0.4" stop-color="#29B36D"/>
<stop offset="0.71" stop-color="#15884C"/>
<stop offset="1" stop-color="#005B29"/>
</linearGradient>
<linearGradient id="paint2_linear_4893_12810" x1="118.103" y1="94.5005" x2="52.4128" y2="156.345" gradientUnits="userSpaceOnUse">
<stop stop-color="#3AD889"/>
<stop offset="0.36" stop-color="#23A763"/>
<stop offset="0.79" stop-color="#0A7039"/>
<stop offset="1" stop-color="#005B29"/>
</linearGradient>
<linearGradient id="paint3_linear_4893_12810" x1="26156" y1="19939.7" x2="38741.9" y2="19939.7" gradientUnits="userSpaceOnUse">
<stop stop-color="#3AD889"/>
<stop offset="0.36" stop-color="#23A763"/>
<stop offset="0.79" stop-color="#0A7039"/>
<stop offset="1" stop-color="#005B29"/>
</linearGradient>
</defs>
</svg>
