<svg width="23" height="22" viewBox="0 0 23 22" fill="none" xmlns="http://www.w3.org/2000/svg">
<path d="M22.1963 10.6282H16.5014C15.782 10.6298 15.0926 10.9156 14.584 11.4231C14.0753 11.9305 13.7888 12.6183 13.7872 13.336V13.336C13.7872 14.0541 14.0732 14.7429 14.5822 15.2507C15.0912 15.7585 15.7816 16.0438 16.5014 16.0438H21.9297" stroke="black" stroke-width="1.5" stroke-miterlimit="10"/>
<path d="M19.7503 5.58748V2.19673C19.7487 1.87879 19.621 1.57441 19.3951 1.35015C19.1692 1.12589 18.8634 0.999996 18.5447 1H3.25367C2.65917 1 2.08903 1.23561 1.66865 1.655C1.24828 2.07439 1.01211 2.64321 1.01211 3.23632V3.23632C1.01211 3.82999 1.24808 4.39943 1.66828 4.81978C2.08848 5.24013 2.65862 5.47709 3.25367 5.47869H19.8897C20.5018 5.47869 21.0889 5.72131 21.5218 6.15317C21.9547 6.58503 22.1979 7.17075 22.1979 7.7815V18.407C22.1963 19.0173 21.9526 19.6021 21.52 20.0336C21.0875 20.4651 20.5014 20.7083 19.8897 20.7099H3.10222C2.54467 20.7099 2.00997 20.4889 1.61573 20.0956C1.22148 19.7022 1 19.1688 1 18.6125V3.23632" stroke="black" stroke-width="1.5" stroke-miterlimit="10"/>
</svg>
