<svg width="55" height="50" viewBox="0 0 55 50" fill="none" xmlns="http://www.w3.org/2000/svg">
<path d="M13.5685 27.5508L14.9704 16.9839L2.7908 8.52157L13.9189 12.2923L16.5477 8.25852L26.1424 2.29541L47.3034 13.9584L48.3987 31.76L38.9792 44.8699L31.5312 46.0099L35.3867 38.9507V32.1545L32.5827 26.8492L29.735 24.9638L25.3538 29.4799V34.2591L21.9365 37.4599L17.5992 37.9861L15.6714 39.0822L12.517 38.0738L11.2026 33.3384L13.5685 30.0061V27.5508Z" fill="white"/>
<path d="M33.0214 8.43403C30.6994 7.95179 28.1583 8.08326 28.1583 8.08326C28.1583 8.08326 27.3259 11.9417 22.1561 12.9502C22.1999 12.9502 28.9908 15.2741 33.0214 8.43403Z" fill="#94A6C3"/>
<path d="M35.1234 43.4229C37.9273 41.2306 40.0303 38.2053 40.9941 34.7853C41.038 34.6537 41.4323 34.4345 41.6951 34.2591C42.1332 33.9961 42.5714 33.7769 42.659 33.4261C42.8342 32.4175 42.9218 31.3652 42.9218 30.3129C42.9218 29.9184 42.5275 29.5238 42.1332 29.1292C41.8266 28.8661 41.5199 28.5591 41.5199 28.3399C41.0817 24.3499 39.2417 20.623 36.3063 17.9046L35.9996 18.2115C38.8474 20.8861 40.6875 24.5253 41.0817 28.3838C41.1256 28.7345 41.4761 29.0853 41.8266 29.4361C42.1332 29.6991 42.4838 30.0937 42.4838 30.2692C42.4838 31.2776 42.3962 32.2861 42.2209 33.2945C42.1771 33.4698 41.7828 33.6453 41.4761 33.8206C41.038 34.0399 40.6437 34.2591 40.5561 34.6099C39.5046 38.3368 37.0949 41.5814 33.8967 43.686C34.4662 42.4583 36.2626 38.4683 37.2264 36.4514L37.0511 29.9622L31.487 24.5692L28.3326 25.0077L24.8715 30.6199C24.8715 30.6199 26.4925 32.6807 24.2143 35.0922C21.9799 37.4599 20.2274 37.9861 20.2274 37.9861L18.6064 37.1091C19.0883 36.4953 20.0522 35.5745 20.797 34.9606C22.0675 33.9083 23.3381 33.8206 23.3381 32.6807C23.3819 30.3129 20.8408 30.9707 20.8408 30.9707L19.9208 31.8476L19.5265 35.0922L17.5988 37.5037L17.3797 37.4599L14.2253 36.7583C14.2253 36.7583 16.153 35.7499 16.4597 34.6099C16.7663 33.5137 15.8463 29.8746 15.8024 29.6553C15.8463 29.6991 16.7225 30.4445 17.1169 31.6723C17.8178 29.743 18.7379 27.9014 19.0007 27.7261C19.2636 27.5507 22.8123 25.6653 22.8123 25.6653L21.6294 28.7784L22.5057 28.296L24.6086 23.1222C24.6086 23.1222 26.6677 22.1138 28.2011 22.1138C30.9613 22.0699 35.0357 18.6938 33.1956 12.6431C33.7214 12.8623 42.8342 17.4222 44.4115 26.3669C45.5943 33.2507 41.6951 39.6961 35.1234 43.4229Z" fill="#94A6C3"/>
<path d="M24.6966 9.39811C25.7042 8.21433 25.3099 6.46045 25.3099 6.46045L22.3746 10.8012C22.3307 10.8012 23.4261 10.845 24.6966 9.39811Z" fill="#0A192B"/>
<path d="M14.8394 33.1196L15.1898 31.3657C15.1898 31.3657 13.744 33.9087 13.6127 34.2595C13.4812 34.6541 13.7003 35.3556 14.2698 35.3118C14.8394 35.2679 15.5404 34.4349 15.5404 33.8211C15.5404 33.0318 14.8394 33.1196 14.8394 33.1196Z" fill="#0A192B"/>
<path d="M40.8639 5.23324C40.8639 5.23324 43.0544 5.32093 45.3327 5.58401C40.2067 1.55017 35.3437 0.366334 31.4006 0.366334C25.9679 0.366334 22.2877 2.60248 22.0687 2.73402L23.7774 0.0155665C23.7774 0.0155665 16.9428 -0.642121 14.5331 6.59246C13.9197 5.05785 13.3502 2.82171 13.3502 2.82171C13.3502 2.82171 9.80146 5.93477 11.4663 11.1086C7.39183 9.61783 1.56488 7.55708 1.34582 7.51322C1.03914 7.46936 0.95152 7.60094 0.95152 7.60094C0.95152 7.60094 0.863896 7.73251 1.12677 7.9517C1.60869 8.34633 10.8091 15.1424 12.8245 16.4579C12.3863 18.0363 12.3863 18.7817 12.8245 19.527C13.4378 20.5355 13.4816 21.0616 13.394 21.807C13.3064 22.5524 12.5178 28.9978 12.3426 29.787C12.1673 30.5762 10.3272 33.3823 10.4148 34.2154C10.5024 35.0486 11.6415 38.6 12.6493 38.9946C13.394 39.2578 15.2341 39.8277 16.4608 39.8277C16.8989 39.8277 17.2932 39.74 17.4685 39.5647C18.2133 38.907 18.4323 38.7754 18.9581 38.7754C19.0019 38.7754 19.0457 38.7754 19.0896 38.7754C19.3085 38.7754 19.5715 38.8193 19.8781 38.8193C20.5791 38.8193 21.4992 38.6877 22.1564 38.0739C23.1202 37.1093 24.785 35.7938 25.3108 35.18C25.9679 34.347 26.3184 33.207 26.1432 32.067C26.0118 31.0147 26.5813 30.0939 27.2385 29.1731C28.0709 28.077 29.6043 26.1039 29.6043 26.1039C32.6273 28.384 34.5112 31.8478 34.5112 35.7062C34.5112 42.5462 28.5528 48.0707 21.1925 48.0707C20.0534 48.0707 18.9581 47.9393 17.8628 47.6762C21.2363 48.86 24.0841 49.2546 26.4061 49.2546C31.3568 49.2546 33.9855 47.4569 33.9855 47.4569C33.9855 47.4569 33.0654 48.6408 31.5759 50C31.6196 50 31.6196 50 31.6196 50C39.8124 48.86 43.7993 42.1077 43.7993 42.1077C43.7993 42.1077 43.4926 44.3 43.0983 45.7908C54.0073 37.5915 52.1673 27.3317 52.1235 26.9809C52.2111 27.1124 53.3064 28.4277 53.876 29.1293C55.6283 11.0648 40.8639 5.23324 40.8639 5.23324ZM24.0841 34.0839C23.9088 34.3032 23.164 34.9608 22.6383 35.4431C22.1125 35.9254 21.543 36.4078 21.1049 36.8461C20.9297 37.0216 20.5791 37.1093 20.0534 37.1093C19.8781 37.1093 19.7029 37.1093 19.5715 37.1093C19.4839 37.1093 19.3962 37.1093 19.3085 37.1093C19.2209 37.1093 19.1772 37.1093 19.1333 37.1093C19.0019 37.1093 18.8705 37.1093 18.739 37.1093C19.3962 36.2323 21.3239 34.2154 21.9811 33.777C22.7697 33.2509 23.164 32.7247 22.682 31.8039C22.2001 30.8831 20.9297 31.1024 20.9297 31.1024C20.9297 31.1024 21.6744 30.7955 22.3316 30.7955C21.4992 30.5762 20.4477 30.7955 19.9658 31.2777C19.44 31.7601 19.5276 33.47 19.3085 34.5662C19.0896 35.7062 18.3447 36.2762 17.2056 37.3285C16.5923 37.8985 16.1541 38.0739 15.8037 38.0739C15.0589 37.9423 14.1827 37.7231 13.5693 37.5039C13.1312 36.9339 12.4739 35.0486 12.2987 34.2593C12.4302 33.8208 12.9558 32.9001 13.2188 32.3739C13.7445 31.3654 14.0512 30.7955 14.1388 30.2693C14.314 29.5239 14.8836 24.92 15.1027 22.9909C15.6722 23.7363 16.4608 24.9639 16.2856 25.7532C17.5562 23.9555 16.6361 22.2016 16.198 21.5001C15.8037 20.7985 15.2779 19.3955 15.7161 17.9047C16.1541 16.414 17.7314 12.2924 17.7314 12.2924C17.7314 12.2924 18.2571 13.2132 19.0019 13.0378C19.7467 12.8625 25.7488 3.83017 25.7488 3.83017C25.7488 3.83017 27.37 7.38164 25.6612 9.96859C23.9088 12.5555 22.2001 13.0378 22.2001 13.0378C22.2001 13.0378 24.6098 13.4763 26.8442 11.854C27.7642 14.0025 28.6404 16.2386 28.6843 16.5455C28.5528 16.8524 26.8003 21.0616 26.6251 21.3247C26.5375 21.4124 25.9242 21.5878 25.486 21.6755C24.7412 21.8947 24.3031 22.0263 24.1278 22.1578C23.8211 22.4209 22.4192 26.2794 21.762 28.1647C20.9734 28.384 20.1848 28.8223 19.6152 29.6993C19.9219 29.48 20.8858 29.3486 21.5868 29.2608C22.2001 29.217 24.0841 30.2254 24.566 32.1108C24.566 32.1547 24.566 32.1547 24.566 32.1986C24.6536 32.9001 24.4345 33.5578 24.0841 34.0839ZM19.9658 34.6101C20.36 34.04 20.3163 33.0754 20.36 32.7685C20.4039 32.4616 20.4915 31.8916 20.8419 31.8039C21.1925 31.7162 22.0249 31.8478 22.0249 32.4616C22.0249 33.0316 21.4116 33.1631 20.9734 33.5578C20.6667 33.8647 20.0534 34.5224 19.9658 34.6101ZM37.4466 26.2355C37.8847 23.9993 37.9285 22.0701 37.7971 20.4916C39.5057 22.7717 40.5572 25.534 40.8639 28.384C40.9077 28.7347 41.2582 29.0855 41.6086 29.4363C41.9153 29.6993 42.2659 30.0501 42.2659 30.2693C42.2659 31.2777 42.1782 32.2862 42.003 33.2947C41.9592 33.4262 41.5649 33.6455 41.2582 33.8208C40.8201 34.04 40.4258 34.2593 40.3382 34.6101C39.3743 37.9862 37.3151 40.9678 34.555 43.0724C38.6295 38.8193 40.601 31.8039 37.4466 26.2355ZM34.6864 43.467C37.5342 41.2747 39.7248 38.2055 40.6886 34.7415C40.7324 34.6101 41.1267 34.3908 41.3897 34.2154C41.8277 33.9963 42.2659 33.7331 42.3535 33.3823C42.5288 32.3739 42.6164 31.3216 42.6164 30.2693C42.6164 29.8747 42.2221 29.48 41.8277 29.0855C41.6086 28.8223 41.2582 28.5154 41.2582 28.2962C40.9077 25.0955 39.6372 22.0701 37.6656 19.5709C36.7895 14.3094 33.2845 12.687 33.1969 12.6432C33.2845 12.7747 35.5627 16.0632 33.9855 19.9217C32.3645 23.824 28.2024 23.2101 27.8519 23.2539C27.5013 23.2539 26.1432 25.0078 24.4345 28.2524C24.2154 28.1647 23.2954 27.9455 22.244 28.1208C23.0326 25.9286 24.2154 22.8154 24.4345 22.5524C24.5221 22.4647 25.1793 22.2893 25.6175 22.1578C26.4499 21.9386 26.8442 21.807 26.9757 21.6317C27.0633 21.5001 27.5013 20.4916 27.9395 19.4393C28.3337 19.4393 29.3414 19.3516 29.4291 19.3078C29.5167 19.2201 30.3491 17.0717 30.3491 16.8086C30.3491 16.5893 28.6404 12.3363 27.9833 10.714C28.29 10.3632 28.5967 9.92473 28.9034 9.44249C37.8847 10.4071 44.8945 18.0363 44.8945 27.2878C44.8945 34.3908 40.7324 40.5731 34.6864 43.467Z" fill="#0A192B"/>
<path d="M23.0322 19.79C23.8646 18.8254 23.4266 17.0277 21.8932 16.7208C22.2874 15.8 22.857 13.9585 22.857 13.9585C22.857 13.9585 18.3882 20.9739 17.9939 21.1053C17.5995 21.2369 17.2052 19.7023 17.2052 19.7023C16.3728 22.903 18.6073 23.3415 18.8701 22.3331C20.0968 22.0262 22.1997 20.7107 23.0322 19.79Z" fill="#0A192B"/>
<path d="M19.2209 21.4999L21.499 17.5977C21.499 17.5977 22.8134 18.2553 22.1562 19.3076C21.3238 20.5353 19.2209 21.4999 19.2209 21.4999Z" fill="#FFD923"/>
<path d="M47.3906 39.5644C46.7335 40.4414 45.9886 41.3621 45.1123 42.2391C50.7641 31.3653 45.3753 21.4122 45.1562 21.0176C45.5505 21.4122 45.9448 21.8507 46.2953 22.2452C50.6326 27.0684 51.1584 34.3029 47.3906 39.5644Z" fill="#D82122"/>
<path d="M52.6474 25.5778C50.6759 20.2725 47.872 15.7563 41.6945 11.6786C35.7361 7.73254 29.3397 8.03945 28.9891 8.08331C28.9454 8.08331 28.9015 8.08331 28.9015 8.08331C29.1206 7.99559 29.3397 7.95173 29.5587 7.90787C30.9168 7.46938 32.6693 7.11867 34.4218 6.89944C39.0658 6.24175 43.7537 7.82015 46.9519 11.1964C46.9957 11.2402 46.9957 11.2402 47.0395 11.2841C50.6759 15.1425 52.5598 19.9656 52.6474 25.5778Z" fill="#D82122"/>
<path d="M40.2925 3.87433C33.7646 2.64664 29.5586 3.26048 26.5356 4.40048C26.448 4.04971 26.1413 3.34817 25.8785 2.77817C24.9584 3.87433 23.9945 5.1897 23.3812 6.02278C21.7163 7.16277 21.0153 8.25889 21.0153 8.25889C21.9792 4.97048 24.7831 2.5151 28.2004 1.90125C29.1643 1.72587 30.2157 1.63818 31.3549 1.63818C34.3779 1.68202 37.4009 2.42741 40.2925 3.87433Z" fill="#D82122"/>
<path d="M16.1538 12.2929C11.0278 12.1175 12.7364 6.15448 12.8241 5.80371C12.8241 5.84756 13.1746 10.4952 16.1538 12.2929Z" fill="#D82122"/>
<path d="M21.1916 1.5498C17.2486 3.91749 18.0372 9.57363 18.0372 9.57363C14.2694 3.8298 20.885 1.68134 21.1916 1.5498Z" fill="#D82122"/>
<path d="M14.7065 13.8708C14.9693 14.0901 15.2322 14.4846 14.9256 15.0546C14.7502 15.3616 14.4874 15.3177 14.0931 15.1424C13.5674 14.8792 10.4129 13.0378 7.56516 11.1523C10.8072 12.2924 14.0931 13.52 14.6189 13.7831C14.6189 13.7831 14.6626 13.8269 14.7065 13.8708Z" fill="white"/>
</svg>
