<svg width="18" height="19" viewBox="0 0 18 19" fill="none" xmlns="http://www.w3.org/2000/svg">
<path d="M9.64829 2.21214C9.90446 1.56071 10.3503 1.00429 10.9305 0.609357C11.5107 0.215786 12.1974 0.00271429 12.8995 0C12.9913 0.000193078 13.0822 0.0182912 13.1668 0.0532405C13.2514 0.0881899 13.3281 0.139292 13.3924 0.203571C13.4883 0.300637 13.5532 0.422993 13.5793 0.555666C13.6053 0.688339 13.5913 0.825573 13.539 0.950573C13.4867 1.07557 13.3983 1.18291 13.2847 1.25946C13.1712 1.33601 13.0373 1.37845 12.8995 1.38157C12.4765 1.38335 12.0641 1.51114 11.717 1.748C11.3675 1.98615 11.0992 2.32191 10.9471 2.71157C10.8961 2.84101 10.8064 2.95236 10.6898 3.03106C10.5732 3.10975 10.4351 3.15213 10.2935 3.15264C10.111 3.15159 9.93613 3.08031 9.80664 2.95416C9.67716 2.82801 9.60339 2.65707 9.60121 2.47814C9.5989 2.38686 9.6149 2.29603 9.64829 2.21079V2.21214ZM17.6073 13.11C17.0487 12.8315 16.5768 12.4111 16.2406 11.8926C15.9884 11.5036 15.8176 11.0694 15.7379 10.6152C15.6583 10.161 15.6715 9.69577 15.7767 9.24657C15.8819 8.79737 16.0771 8.37312 16.351 7.99845C16.6248 7.62377 16.9718 7.30612 17.3719 7.06393C17.4975 6.98519 17.5951 6.87018 17.6511 6.73477C17.7072 6.59937 17.719 6.45025 17.6848 6.308C17.6628 6.21347 17.6214 6.12435 17.563 6.04607C16.6248 4.85058 15.2457 4.06338 13.7218 3.85353C12.198 3.64368 10.6509 4.02791 9.4129 4.92371C8.53192 4.2868 7.48683 3.90392 6.39561 3.81831C5.30438 3.7327 4.21046 3.94776 3.23733 4.43921C2.2607 4.93308 1.44262 5.6823 0.873719 6.60386C0.301944 7.52925 -0.000233503 8.5905 1.35382e-07 9.67236C0.0199955 11.9476 0.713637 14.1682 1.99668 16.0645C3.25118 17.9021 4.8463 19 6.27527 19H12.5519C14.5126 19 16.7267 16.9371 17.9465 13.9921C18.0148 13.8304 18.0178 13.6492 17.9548 13.4854C17.8918 13.3215 17.7676 13.1873 17.6073 13.11Z" fill="black"/>
</svg>
