<svg width="30" height="37" viewBox="0 0 30 37" fill="none" xmlns="http://www.w3.org/2000/svg">
<path d="M24.6519 19.5909C24.6716 18.2019 25.042 16.8405 25.7286 15.6331C26.4153 14.4256 27.396 13.4113 28.5797 12.6843C27.8274 11.6114 26.8353 10.7287 25.6821 10.1063C24.5289 9.48399 23.2465 9.13915 21.9367 9.09923C19.1425 8.80047 16.4361 10.7688 15.0126 10.7688C13.5891 10.7688 11.366 9.12559 9.01112 9.16952C7.48429 9.22137 5.99677 9.66686 4.69279 10.4628C3.3888 11.2587 2.31261 12.3781 1.56856 13.7124C-1.64747 19.2833 0.751376 27.464 3.8356 31.9717C5.38211 34.1684 7.18343 36.6376 9.53834 36.5497C11.8932 36.4618 12.7016 35.0735 15.4871 35.0735C18.2726 35.0735 19.0634 36.5497 21.4622 36.4882C23.8611 36.4267 25.4955 34.2739 26.9805 32.0508C28.0904 30.4819 28.9446 28.7468 29.5111 26.9104C28.0723 26.3017 26.8444 25.2832 25.9804 23.9816C25.1163 22.6801 24.6543 21.1531 24.6519 19.5909Z" fill="white"/>
<path d="M20.1268 6.13826C21.4927 4.5242 22.171 2.43881 22.016 0.330078C19.9541 0.545502 18.0494 1.5308 16.6823 3.08918C16.013 3.8495 15.5008 4.73471 15.175 5.69383C14.8493 6.65296 14.7165 7.66704 14.7843 8.67769C15.8143 8.68806 16.8332 8.46496 17.7646 8.02514C18.696 7.58532 19.5156 6.94022 20.1619 6.13826" fill="white"/>
</svg>
