<svg width="38" height="39" viewBox="0 0 38 39" fill="none" xmlns="http://www.w3.org/2000/svg">
<path d="M37.6752 18.4908L26.2758 5.82481C26.0326 5.55629 25.6931 5.4043 25.3334 5.4043H17.7338C17.2348 5.4043 16.7814 5.69815 16.5762 6.15412C16.3735 6.61263 16.4571 7.14714 16.7915 7.51698L27.4284 19.3369L16.7915 31.1542C16.4571 31.5266 16.371 32.0611 16.5762 32.5171C16.7814 32.9756 17.2348 33.2695 17.7338 33.2695H25.3334C25.6931 33.2695 26.0326 33.1149 26.2758 32.8515L37.6752 20.1855C38.1083 19.7042 38.1083 18.9696 37.6752 18.4908Z" fill="#76F80A"/>
<path d="M21.2093 18.4908L9.80996 5.82481C9.56677 5.55629 9.22732 5.4043 8.86761 5.4043H1.26802C0.768983 5.4043 0.315541 5.69815 0.110352 6.15412C-0.0923039 6.61263 -0.00870844 7.14714 0.325673 7.51698L10.9626 19.3369L0.325673 31.1542C-0.00870844 31.5266 -0.0948371 32.0611 0.110352 32.5171C0.315541 32.9756 0.768983 33.2695 1.26802 33.2695H8.86761C9.22732 33.2695 9.56677 33.1149 9.80996 32.8515L21.2093 20.1855C21.6425 19.7042 21.6425 18.9696 21.2093 18.4908Z" fill="#76F80A"/>
</svg>
