<svg width="130" height="130" viewBox="0 0 130 130" fill="none" xmlns="http://www.w3.org/2000/svg">
<rect x="15" y="20" width="90" height="90" fill="white"/>
<path fill-rule="evenodd" clip-rule="evenodd" d="M10 0C4.47715 0 0 4.47715 0 10V120C0 125.523 4.47715 130 10 130H120C125.523 130 130 125.523 130 120V10C130 4.47715 125.523 0 120 0H10ZM83.9818 93.3487C83.9818 93.3487 81.5264 90.4139 79.4803 87.8885C88.4151 85.3632 91.8253 79.8348 91.8253 79.8348C89.0289 81.6776 86.369 82.9744 83.9818 83.8617C80.5716 85.295 77.2978 86.1823 74.0922 86.7965C67.5445 88.025 61.5426 87.6838 56.4272 86.7283C52.5396 85.9775 49.1976 84.9537 46.4012 83.7934C44.8325 83.1792 43.1274 82.4284 41.4223 81.4729C41.32 81.4046 41.2178 81.3535 41.1155 81.3023L41.1153 81.3022C41.013 81.251 40.9107 81.1999 40.8084 81.1316C40.7564 81.1056 40.7143 81.0796 40.6784 81.0573L40.6782 81.0572C40.6199 81.0212 40.5778 80.9951 40.5356 80.9951C39.3079 80.3126 38.6259 79.8348 38.6259 79.8348C38.6259 79.8348 41.8997 85.2267 50.5617 87.8203C48.5155 90.4139 45.992 93.417 45.992 93.417C30.9188 92.9392 25.1896 83.1109 25.1896 83.1109C25.1896 61.3385 35.0111 43.6613 35.0111 43.6613C44.8325 36.3583 54.1083 36.5631 54.1083 36.5631L54.7903 37.3821C42.5135 40.8629 36.9208 46.2549 36.9208 46.2549C36.9208 46.2549 38.4213 45.4358 40.9448 44.3438C48.2427 41.136 54.0401 40.3169 56.4272 40.0439C56.4792 40.0353 56.5301 40.0266 56.5801 40.0181L56.5802 40.018C56.9242 39.9594 57.2295 39.9074 57.5867 39.9074C61.7472 39.3614 66.4533 39.2249 71.364 39.7709C77.8434 40.5217 84.8003 42.4327 91.8935 46.2549C91.8935 46.2549 86.5054 41.136 74.9106 37.6551L75.8655 36.5631C75.8655 36.5631 85.2095 36.3583 94.9627 43.6613C94.9627 43.6613 104.784 61.3385 104.784 83.1109C104.784 83.1073 104.768 83.1309 104.737 83.1787L104.736 83.1795C104.156 84.0506 98.2622 92.8961 83.9818 93.3487ZM44.4953 69.2557C44.4953 65.0923 47.5645 61.748 51.4521 61.748C55.3398 61.748 58.4772 65.0923 58.409 69.2557C58.409 73.4191 55.3398 76.7634 51.4521 76.7634C47.6327 76.7634 44.4953 73.4191 44.4953 69.2557ZM69.3821 69.2557C69.3821 65.0923 72.4513 61.748 76.3389 61.748C80.1584 61.748 83.2958 65.0923 83.2958 69.2557C83.2958 73.4191 80.2266 76.7634 76.3389 76.7634C72.5195 76.7634 69.3821 73.4191 69.3821 69.2557Z" fill="#2E2E2E"/>
</svg>
