 <svg width="157" height="41" viewBox="0 0 157 41" fill="none" xmlns="http://www.w3.org/2000/svg">
        <path fill-rule="evenodd" clip-rule="evenodd" d="M0.0727446 18.3808L10.7772 2.81294C11.0049 2.48172 11.5238 2.6429 11.5238 3.04487L11.5238 14.1787L17.6031 14.1787C17.9327 14.1787 18.1271 14.5483 17.9404 14.8199L7.23592 30.3878C7.00817 30.719 6.48929 30.5579 6.48929 30.1559L6.4893 19.0221L0.410036 19.0221C0.0804373 19.0221 -0.114001 18.6524 0.0727446 18.3808Z" fill="#5ED73E"/>
        <path d="M22.8044 9.37355C22.4684 9.37355 22.2503 9.72773 22.4015 10.0278L32.4772 30.0186C32.644 30.3495 33.1163 30.3495 33.283 30.0186L43.3587 10.0278C43.51 9.72773 43.2919 9.37355 42.9558 9.37355H38.4214C38.2458 9.37355 38.0863 9.47532 38.0123 9.63446L33.3754 19.6038C33.2136 19.9517 32.719 19.9517 32.5572 19.6038L27.9203 9.63446C27.8463 9.47532 27.6867 9.37355 27.5112 9.37355H22.8044Z" fill="white"/>
        <path d="M53.9232 8.85682C47.8515 8.85682 43.0287 13.5505 43.0287 19.5791C43.0287 25.5646 47.8515 30.3013 53.9232 30.3013C59.9948 30.3013 64.8176 25.5646 64.8176 19.5791C64.8176 13.5505 59.9948 8.85682 53.9232 8.85682ZM53.9232 25.4784C50.4352 25.4784 48.2821 22.7656 48.2821 19.5791C48.2821 16.3925 50.4352 13.6797 53.9232 13.6797C57.4111 13.6797 59.5642 16.3925 59.5642 19.5791C59.5642 22.7656 57.4111 25.4784 53.9232 25.4784Z" fill="white"/>
        <path d="M68.0007 29.3334C68.0007 29.5826 68.2027 29.7846 68.4519 29.7846H72.7169C72.966 29.7846 73.168 29.5826 73.168 29.3334V0.451183C73.168 0.202001 72.966 0 72.7169 0H68.4519C68.2027 0 68.0007 0.202002 68.0007 0.451183V29.3334Z" fill="white"/>
        <path d="M76.0951 13.573C76.0951 13.8222 76.2971 14.0242 76.5463 14.0242H79.6486C79.8978 14.0242 80.0998 14.2262 80.0998 14.4753V23.067C80.0998 27.4162 83.1141 30.3013 87.0757 30.3013C89.3352 30.3013 90.997 29.5293 91.6635 29.1595C91.854 29.0538 91.9199 28.8221 91.8306 28.6234L90.3194 25.2573C90.2015 24.9947 89.8663 24.9022 89.6102 25.0337C89.211 25.2388 88.6021 25.4784 87.9369 25.4784C86.5589 25.4784 85.2671 24.7464 85.2671 22.2489V14.4753C85.2671 14.2262 85.4691 14.0242 85.7183 14.0242H90.9737C91.2229 14.0242 91.4249 13.8222 91.4249 13.573V9.82473C91.4249 9.57555 91.2229 9.37355 90.9737 9.37355H85.7183C85.4691 9.37355 85.2671 9.17155 85.2671 8.92237V7.82777C85.2671 7.69402 85.2078 7.56717 85.1051 7.48145L80.8401 3.92014C80.5463 3.67482 80.0998 3.88372 80.0998 4.26646V8.92237C80.0998 9.17155 79.8978 9.37355 79.6486 9.37355H76.5463C76.2971 9.37355 76.0951 9.57555 76.0951 9.82473V13.573Z" fill="white"/>
        <path d="M102.827 26.3393C101.301 26.3393 99.2795 25.8823 99.2795 23.8047C99.2795 21.6855 101.383 21.0207 102.91 21.0207C104.841 21.0207 106.302 21.5381 106.968 21.8275C107.218 21.9361 107.365 22.1866 107.365 22.459V23.8203C107.365 23.9725 107.32 24.1203 107.223 24.2378C106.777 24.7808 105.28 26.3393 102.827 26.3393ZM103.405 9.80176C100.344 9.80176 97.5376 10.8055 96.3238 11.3083C95.9619 11.4583 95.8001 11.8689 95.9428 12.2337L97.0027 14.9436C97.1627 15.3527 97.6382 15.5434 98.046 15.3802C99.1163 14.9518 101.177 14.2478 103.157 14.2478C104.89 14.2478 107.365 15.0788 107.365 17.655C107.365 18.115 106.806 18.4235 106.386 18.2359C105.493 17.8373 103.997 17.3642 101.92 17.3642C97.6706 17.3642 94.2466 20.1066 94.2466 23.8878C94.2466 28.0845 97.6294 30.4945 101.301 30.4945C103.662 30.4945 105.338 29.6387 106.387 28.8426C106.846 28.4941 107.736 28.8352 107.736 29.4115C107.736 29.7343 107.998 29.9959 108.321 29.9959H111.562C111.978 29.9959 112.316 29.6583 112.316 29.2419V17.1564C112.316 12.6688 109.015 9.80176 103.405 9.80176Z" fill="white"/>
        <path d="M128.263 29.3902C128.865 29.0065 129.87 29.4074 129.87 30.1214V30.3283C129.87 33.2785 128.137 35.3976 124.301 35.3976C121.656 35.3976 119.522 33.9534 118.493 33.1003C118.13 32.7991 117.566 32.8408 117.287 33.2214L115.398 35.7949C115.179 36.0929 115.21 36.5018 115.492 36.7404C116.653 37.7226 119.873 40.0514 124.301 40.0514C129.787 40.0514 134.82 37.0181 134.82 30.1621V11.0544C134.82 10.6379 134.483 10.3004 134.066 10.3004H130.794C130.489 10.3004 130.241 10.5478 130.241 10.8531C130.241 11.4157 129.32 11.7437 128.884 11.3882C127.921 10.6035 126.428 9.80176 124.342 9.80176C119.268 9.80176 114.813 14.0816 114.813 20.1481C114.813 26.2147 119.268 30.4945 124.342 30.4945C126.031 30.4945 127.327 29.9866 128.263 29.3902ZM129.87 22.912C129.87 23.0343 129.841 23.1538 129.776 23.2575C129.409 23.8426 127.955 25.8407 125.208 25.8407C121.867 25.8407 119.845 23.3892 119.845 20.1481C119.845 16.9071 121.867 14.4556 125.208 14.4556C127.995 14.4556 129.425 16.4609 129.78 17.042C129.843 17.1438 129.87 17.2602 129.87 17.3796V22.912Z" fill="white"/>
        <path d="M147.14 9.80176C141.488 9.80176 137.322 14.3724 137.322 20.1481C137.322 25.9238 141.901 30.4945 147.842 30.4945C151.461 30.4945 154.12 28.8497 155.177 28.07C155.476 27.8495 155.529 27.4408 155.324 27.1311L153.721 24.7101C153.456 24.3088 152.873 24.2421 152.477 24.515C151.623 25.1035 150.037 25.9238 147.842 25.9238C145.249 25.9238 143.41 24.3484 142.663 22.811C142.453 22.3796 142.807 21.9349 143.286 21.9349H156.245C156.645 21.9349 156.976 21.622 156.987 21.2218C157 20.7423 157 20.3181 157 20.065C157 13.9985 152.503 9.80176 147.14 9.80176ZM143.183 18.3199C142.739 18.3199 142.388 17.934 142.517 17.5089C142.993 15.9512 144.441 14.3309 147.14 14.3309C149.921 14.3309 151.471 15.995 151.917 17.5418C152.036 17.9557 151.689 18.3199 151.258 18.3199H143.183Z" fill="white"/>
    </svg>