<svg width="130" height="130" viewBox="0 0 130 130" fill="none" xmlns="http://www.w3.org/2000/svg">
<rect x="9.75" y="9.75" width="110.5" height="110.5" fill="white"/>
<path fill-rule="evenodd" clip-rule="evenodd" d="M0 10C0 4.47715 4.47715 0 10 0H120C125.523 0 130 4.47715 130 10V120C130 125.523 125.523 130 120 130H10C4.47715 130 0 125.523 0 120V10ZM65 21.6667C41.0723 21.6667 21.6667 41.0021 21.6667 64.8554C21.6667 83.937 34.0845 100.123 51.3012 105.835C53.4662 106.236 54.2617 104.899 54.2617 103.758C54.2617 103.291 54.2534 102.337 54.2425 101.097L54.2425 101.096L54.2425 101.093C54.2294 99.5983 54.2127 97.6889 54.2027 95.7174C42.1484 98.3295 39.605 90.62 39.605 90.62C37.632 85.6293 34.7933 84.3012 34.7933 84.3012C30.8601 81.621 35.0886 81.6762 35.0886 81.6762C39.4408 81.9815 41.7313 86.1278 41.7313 86.1278C45.5962 92.73 51.8678 90.8205 54.3411 89.7168C54.7305 86.928 55.8527 85.0204 57.093 83.9425C47.4677 82.8516 37.3496 79.1468 37.3496 62.5983C37.3496 57.8835 39.0439 54.0315 41.8143 51.0055C41.3658 49.9183 39.8819 45.5273 42.2351 39.5764C42.2351 39.5764 45.873 38.4157 54.1547 44.006C57.6117 43.0476 61.3178 42.5675 65 42.551C68.6822 42.5675 72.392 43.0476 75.8546 44.006C84.127 38.4157 87.7593 39.5764 87.7593 39.5764C90.1181 45.5273 88.6342 49.9183 88.1857 51.0055C90.9635 54.0315 92.6449 57.8835 92.6449 62.5983C92.6449 79.1873 82.5083 82.8387 72.859 83.9075C74.4131 85.2467 75.7973 87.8754 75.7973 91.9058C75.7973 95.7679 75.7751 99.127 75.7603 101.355C75.753 102.46 75.7475 103.286 75.7475 103.758C75.7475 104.908 76.5282 106.252 78.7246 105.829C95.9321 100.114 108.333 83.9296 108.333 64.8554C108.333 41.0021 88.9313 21.6667 65 21.6667ZM37.3392 83.8066C37.6475 83.9537 37.9871 83.8894 38.0812 83.6741C38.1901 83.4607 38.0111 83.1646 37.6973 83.0229C37.3817 82.8758 37.0439 82.9383 36.9498 83.1591C36.8483 83.3724 37.0236 83.6649 37.3392 83.8066ZM39.8371 85.6265C39.6304 85.8178 39.2262 85.7277 38.953 85.426C38.6688 85.1261 38.6152 84.7233 38.8256 84.5283C39.0379 84.3388 39.4292 84.4271 39.7134 84.7288C39.9977 85.0342 40.053 85.4333 39.8371 85.6265ZM40.5767 87.7411C40.8461 88.1256 41.2799 88.2985 41.5456 88.1127C41.817 87.9232 41.817 87.4634 41.5512 87.0752C41.2799 86.6944 40.8517 86.527 40.584 86.711C40.3127 86.8949 40.3127 87.3567 40.5767 87.7411ZM43.8848 90.5163C43.6467 90.7775 43.141 90.7076 42.77 90.3507C42.3917 90.003 42.2865 89.5082 42.5246 89.247C42.7663 88.9858 43.2739 89.0594 43.6467 89.4126C44.0233 89.7602 44.1377 90.2569 43.8848 90.5163ZM46.0321 92.258C46.5212 92.4034 47.0084 92.2507 47.1136 91.9122C47.2152 91.5682 46.894 91.1745 46.4049 91.0274C45.9103 90.8747 45.4211 91.0329 45.3196 91.3732C45.22 91.7154 45.5393 92.1109 46.0321 92.258ZM50.6582 92.1694C50.6692 92.5262 50.2539 92.8206 49.739 92.8279C49.2204 92.839 48.8014 92.552 48.7958 92.2025C48.7958 91.8401 49.2019 91.5494 49.7205 91.5402C50.2355 91.5292 50.6582 91.818 50.6582 92.1694ZM53.151 92.4109C53.6622 92.3152 54.0203 91.9565 53.9594 91.6107C53.893 91.2575 53.4352 91.0478 52.9221 91.1361C52.4201 91.2299 52.0565 91.5849 52.1174 91.9436C52.182 92.2858 52.649 92.501 53.151 92.4109Z" fill="#2E2E2E"/>
</svg>
