<svg width="16" height="18" viewBox="0 0 16 18" fill="none" xmlns="http://www.w3.org/2000/svg">
<path d="M15.344 7.89388L1.9276 0.169973C1.63137 0.000938768 1.2808 -0.0441913 0.951702 0.0443413C0.622602 0.132874 0.34142 0.347954 0.168955 0.643075C0.0579108 0.836589 -0.000365973 1.05609 1.7293e-06 1.27945V16.7221C0.00203055 17.0617 0.137777 17.3868 0.377594 17.6262C0.617411 17.8656 0.941812 18 1.27995 18C1.5065 18 1.72921 17.9409 1.9276 17.8316L15.344 10.1103C15.5425 10.0017 15.7082 9.84147 15.8236 9.64633C15.9391 9.4512 16 9.22841 16 9.00142C16 8.77444 15.9391 8.55165 15.8236 8.35651C15.7082 8.16137 15.5425 8.00111 15.344 7.89259V7.89388ZM8.97499 9.9097L10.4879 11.4293L3.43154 15.4789L8.97499 9.9097ZM3.43282 2.51748L10.4879 6.57613L8.97499 8.09314L3.43282 2.51748ZM11.6309 10.7621L9.8812 9.00206L11.6334 7.24207L14.704 9.00206L11.6322 10.7621H11.6309Z" fill="black"/>
</svg>
