<svg width="921" height="304" viewBox="0 0 921 304" fill="none" xmlns="http://www.w3.org/2000/svg">
<path d="M399.084 109.197C391.645 108.899 385.373 114.69 385.078 122.129C385.078 122.153 385.075 122.175 385.075 122.202V135.208H415.09V157.222H385.075V240.265H358.058V157.222H340.05V135.208H358.058V120.183C358.058 99.1745 376.069 85.1802 396.079 85.1802C405.244 84.9849 414.155 88.193 421.094 94.1891L411.089 113.196C407.488 110.869 403.357 109.49 399.079 109.192" fill="url(#paint0_linear)"/>
<path d="M861.678 108.751C854.239 108.453 847.967 114.244 847.672 121.683C847.672 121.707 847.669 121.729 847.669 121.756V134.762H877.684V156.776H847.669V239.819H820.652V156.776H802.644V134.762H820.652V119.737C820.652 98.7287 838.663 84.7344 858.673 84.7344C867.838 84.5391 876.749 87.7471 883.688 93.7433L873.683 112.75C870.082 110.423 865.951 109.044 861.673 108.746" fill="url(#paint1_linear)"/>
<path d="M529.332 134.194V239.249H508.323L504.317 227.247H501.331C497.327 232.249 488.323 240.252 470.315 240.252C442.302 240.252 428.291 220.242 428.291 191.224V134.194H457.317V184.219C457.317 197.227 458.316 215.235 476.331 215.235C485.335 215.235 500.342 210.235 500.342 183.223V134.194H529.332Z" fill="url(#paint2_linear)"/>
<path d="M588.973 153.866C579.967 153.866 575.968 157.87 575.968 162.87C575.968 169.876 584.974 171.878 591.974 173.876C610.988 177.88 629.994 183.881 629.994 205.89C629.994 227.897 611.984 239.909 589.972 239.909C565.958 239.909 546.951 224.902 545.945 202.89H571.959C572.945 211.923 580.904 218.556 589.969 217.897C600.973 217.897 602.975 211.896 602.975 207.892C602.975 199.889 595.97 197.885 587.965 195.885C575.958 192.897 548.943 187.882 548.943 163.871C548.938 142.86 568.963 132.857 588.973 132.857C612.987 132.857 627.995 146.866 628.996 164.869H602.982C602.982 159.867 599.994 153.866 588.973 153.866Z" fill="url(#paint3_linear)"/>
<path d="M743.511 193.979H666.469C669.455 209.979 682.475 215.983 694.482 215.983C702.21 216.359 709.651 213.01 714.495 206.98H741.509C734.109 227.039 714.871 240.261 693.484 239.985C664.099 239.9 640.344 216.022 640.427 186.648C640.427 186.094 640.436 185.535 640.456 184.979C639.479 156.695 661.625 132.974 689.922 131.997C690.776 131.966 691.631 131.958 692.485 131.973C719.502 131.973 747.515 150.977 743.511 193.982V193.979ZM668.471 172.979H715.496C713.401 162.631 704.028 155.39 693.484 155.973C682.231 155.236 671.921 162.245 668.471 172.979Z" fill="url(#paint4_linear)"/>
<path d="M773.852 239.719C780.594 239.719 786.059 234.253 786.059 227.511C786.059 220.769 780.594 215.304 773.852 215.304C767.11 215.304 761.644 220.769 761.644 227.511C761.644 234.253 767.11 239.719 773.852 239.719Z" fill="url(#paint5_linear)"/>
<path d="M906.271 118.943C913.013 118.943 918.478 113.478 918.478 106.737C918.478 99.9955 913.013 94.5305 906.271 94.5305C899.529 94.5305 894.064 99.9955 894.064 106.737C894.064 113.478 899.529 118.943 906.271 118.943Z" fill="url(#paint6_linear)"/>
<path d="M920.39 132.857H893.559V239.914H920.39V132.857Z" fill="url(#paint7_linear)"/>
<path d="M272.167 188.716C272.439 181.751 270.534 174.25 267.268 165.41C265.091 158.713 261.553 152.016 256.654 143.979C249.033 131.656 239.235 119.334 227.26 106.743C206.303 85.0442 180.719 65.4885 151.869 48.6116C137.717 40.575 123.02 33.61 108.323 28.2523C90.6317 21.823 75.3904 18.3405 60.6933 17.2689C59.0603 17.2689 57.4273 17.2689 55.5221 17.2689C48.9901 17.2689 42.186 17.5368 35.1096 19.6799C25.5837 22.6267 17.6909 27.9844 12.5197 35.4852C6.53204 44.5933 5.9877 55.0409 6.8042 62.2738C7.34851 67.3637 9.52588 75.4003 11.7032 81.2938L0 79.6864L32.6601 105.939L30.2106 64.6848L23.9507 74.8645C22.5899 70.8462 20.9569 64.149 20.6847 60.6665C19.5961 53.4336 20.6847 47.0043 23.6786 42.4503C26.9446 37.3604 32.1158 33.61 38.9199 31.4669C45.1798 29.3238 52.2561 29.0559 60.149 28.7881C73.7574 29.3238 88.4544 32.2706 105.057 37.6283C119.209 42.4502 133.634 48.6116 147.787 56.3803C176.364 71.6499 201.676 90.134 223.177 110.761C235.153 122.816 244.951 134.335 252.843 146.39C257.742 153.891 261.281 160.32 263.73 166.749C267.268 175.054 268.629 182.287 269.173 188.716C269.173 190.056 270.534 195.681 270.534 195.681C270.534 195.681 272.167 190.056 272.167 188.716Z" fill="url(#paint8_linear)"/>
<path d="M28.361 292.083C26.2007 295.163 26.3044 299.008 28.9013 301.508C29.7137 302.431 30.9289 303.248 32.2206 303.361C33.7554 303.637 35.7695 303.102 37.2142 301.808L106.497 242.646C93.9419 234.587 84.4361 223.669 79.3951 217.261L28.361 292.083Z" fill="url(#paint9_linear)"/>
<path d="M202.696 1.90049L77.4484 126.114L75.3553 128.209C74.0118 129.497 73.5166 131.269 73.3042 133.2C73.3747 135.293 74.3219 137.063 75.4246 138.511L109.471 171C110.164 171.804 110.263 173.092 109.64 174.38L108.58 175.83L95.0443 195.641C99.8655 202.076 109.663 214.624 126.291 225.717L142.767 212.504L180.613 178.185C182.395 176.735 183.045 174.642 183.258 172.71C183.187 170.617 182.396 168.525 181.137 167.4L142.538 133.144C141.689 132.662 141.746 131.052 142.213 130.086L211.759 10.7466C213.598 7.68663 213.301 3.82349 210.785 1.57191C209.809 0.606866 208.961 0.124637 207.518 0.12582C205.949 -0.355817 204.04 0.611592 202.696 1.90049Z" fill="url(#paint10_linear)"/>
<path d="M31.2856 118.163C31.018 125.277 32.8911 132.938 36.1022 141.968C38.243 148.808 41.7217 155.648 46.5384 163.856C54.031 176.442 63.6643 189.029 75.4384 201.888C96.0431 224.051 121.197 244.024 149.562 261.262C163.477 269.47 177.927 276.584 192.377 282.056C209.77 288.623 224.755 292.18 239.205 293.274C240.811 293.274 242.417 293.274 244.29 293.274C250.712 293.274 257.402 293 264.359 290.812C273.725 287.802 281.485 282.33 286.569 274.669C292.456 265.366 292.992 254.695 292.189 247.308C291.654 242.109 289.513 233.901 287.372 227.881L298.879 229.523L266.767 202.709L269.176 244.845L275.33 234.448C276.668 238.552 278.274 245.392 278.542 248.949C279.612 256.337 278.542 262.903 275.598 267.555C272.387 272.753 267.303 276.584 260.613 278.773C254.458 280.962 247.501 281.235 239.741 281.509C226.361 280.962 211.911 277.952 195.588 272.48C181.673 267.555 167.49 261.262 153.576 253.327C125.478 237.731 100.592 218.852 79.4523 197.784C67.6782 185.472 58.0449 173.706 50.2847 161.394C45.468 153.733 41.9893 147.166 39.581 140.599C36.1022 132.118 34.7643 124.73 34.2291 118.163C34.2291 116.795 32.8911 111.05 32.8911 111.05C32.8911 111.05 31.2856 116.795 31.2856 118.163Z" fill="url(#paint11_linear)"/>
<defs>
<linearGradient id="paint0_linear" x1="-1.12433e-06" y1="152.072" x2="920" y2="152.072" gradientUnits="userSpaceOnUse">
<stop stop-color="#FEF16E"/>
<stop offset="1" stop-color="#B1FFBF"/>
</linearGradient>
<linearGradient id="paint1_linear" x1="-1.12433e-06" y1="152.072" x2="920" y2="152.072" gradientUnits="userSpaceOnUse">
<stop stop-color="#FEF16E"/>
<stop offset="1" stop-color="#B1FFBF"/>
</linearGradient>
<linearGradient id="paint2_linear" x1="-1.12433e-06" y1="152.072" x2="920" y2="152.072" gradientUnits="userSpaceOnUse">
<stop stop-color="#FEF16E"/>
<stop offset="1" stop-color="#B1FFBF"/>
</linearGradient>
<linearGradient id="paint3_linear" x1="-1.12433e-06" y1="152.072" x2="920" y2="152.072" gradientUnits="userSpaceOnUse">
<stop stop-color="#FEF16E"/>
<stop offset="1" stop-color="#B1FFBF"/>
</linearGradient>
<linearGradient id="paint4_linear" x1="-1.12433e-06" y1="152.072" x2="920" y2="152.072" gradientUnits="userSpaceOnUse">
<stop stop-color="#FEF16E"/>
<stop offset="1" stop-color="#B1FFBF"/>
</linearGradient>
<linearGradient id="paint5_linear" x1="-1.12433e-06" y1="152.072" x2="920" y2="152.072" gradientUnits="userSpaceOnUse">
<stop stop-color="#FEF16E"/>
<stop offset="1" stop-color="#B1FFBF"/>
</linearGradient>
<linearGradient id="paint6_linear" x1="-1.12433e-06" y1="152.072" x2="920" y2="152.072" gradientUnits="userSpaceOnUse">
<stop stop-color="#FEF16E"/>
<stop offset="1" stop-color="#B1FFBF"/>
</linearGradient>
<linearGradient id="paint7_linear" x1="-1.12433e-06" y1="152.072" x2="920" y2="152.072" gradientUnits="userSpaceOnUse">
<stop stop-color="#FEF16E"/>
<stop offset="1" stop-color="#B1FFBF"/>
</linearGradient>
<linearGradient id="paint8_linear" x1="-1.12433e-06" y1="152.072" x2="920" y2="152.072" gradientUnits="userSpaceOnUse">
<stop stop-color="#FEF16E"/>
<stop offset="1" stop-color="#B1FFBF"/>
</linearGradient>
<linearGradient id="paint9_linear" x1="-1.12433e-06" y1="152.072" x2="920" y2="152.072" gradientUnits="userSpaceOnUse">
<stop stop-color="#FEF16E"/>
<stop offset="1" stop-color="#B1FFBF"/>
</linearGradient>
<linearGradient id="paint10_linear" x1="-1.12433e-06" y1="152.072" x2="920" y2="152.072" gradientUnits="userSpaceOnUse">
<stop stop-color="#FEF16E"/>
<stop offset="1" stop-color="#B1FFBF"/>
</linearGradient>
<linearGradient id="paint11_linear" x1="-1.12433e-06" y1="152.072" x2="920" y2="152.072" gradientUnits="userSpaceOnUse">
<stop stop-color="#FEF16E"/>
<stop offset="1" stop-color="#B1FFBF"/>
</linearGradient>
</defs>
</svg>
