<svg width="131" height="130" viewBox="0 0 131 130" fill="none" xmlns="http://www.w3.org/2000/svg">
<rect x="10.7114" y="9.75024" width="110.5" height="110.5" fill="white"/>
<g clip-path="url(#clip0_501_500)">
<path fill-rule="evenodd" clip-rule="evenodd" d="M19.4614 0C9.24416 0 0.961426 8.28273 0.961426 18.5V111.5C0.961426 121.717 9.24417 130 19.4614 130H112.394C122.611 130 130.894 121.717 130.894 111.5V18.5C130.894 8.28273 122.611 0 112.394 0H19.4614ZM56.6985 75.748L55.5616 92.9322C57.2264 92.9322 57.9978 92.1603 58.9317 91.226L67.0119 83.3854L83.8218 95.8165C86.9077 97.5228 89.1409 96.629 89.9124 92.9322L100.957 40.8923C102.094 36.3423 99.2513 34.2705 96.2872 35.6111L31.443 60.6358C27.0171 62.4232 27.0577 64.9013 30.6309 65.9169L47.2784 71.1981L85.7708 46.8641C87.598 45.7672 89.2627 46.3766 87.8822 47.6359L56.6985 75.748Z" fill="#2E2E2E"/>
</g>
<defs>
<clipPath id="clip0_501_500">
<rect width="129.932" height="130" fill="white" transform="translate(0.961426)"/>
</clipPath>
</defs>
</svg>
