<svg width="130" height="130" viewBox="0 0 130 130" fill="none" xmlns="http://www.w3.org/2000/svg">
<rect x="9.75" y="9.75" width="110.5" height="110.5" fill="white"/>
<path fill-rule="evenodd" clip-rule="evenodd" d="M24 0C10.7452 0 0 10.7452 0 24V106C0 119.255 10.7452 130 24 130H106C119.255 130 130 119.255 130 106V24C130 10.7452 119.255 0 106 0H24ZM95.153 51.8683C95.153 51.2202 95.1399 50.5774 95.111 49.9373C98.0259 47.8304 100.56 45.2015 102.557 42.2078C99.8835 43.3964 97.0053 44.1966 93.9854 44.5587C97.0683 42.709 99.4322 39.7862 100.55 36.3019C97.6638 38.0099 94.4708 39.2536 91.0705 39.9252C88.3445 37.0208 84.4666 35.2078 80.1743 35.2078C71.928 35.2078 65.2428 41.893 65.2428 50.134C65.2428 51.3042 65.374 52.4455 65.6285 53.5396C53.221 52.9151 42.2199 46.9751 34.8578 37.9417C33.5748 40.1482 32.8349 42.709 32.8349 45.4455C32.8349 50.6247 35.4717 55.1978 39.4781 57.8713C37.0302 57.7952 34.7292 57.1209 32.7168 56.0059C32.7142 56.0662 32.7142 56.1266 32.7142 56.1948C32.7142 63.4257 37.8619 69.4602 44.6914 70.8298C43.4373 71.1708 42.1175 71.3545 40.7558 71.3545C39.7956 71.3545 38.8589 71.26 37.9485 71.0869C39.8507 77.0164 45.3604 81.3324 51.8961 81.4557C46.7851 85.4595 40.3492 87.8444 33.3544 87.8444C32.1501 87.8444 30.9616 87.7762 29.7914 87.6372C36.4005 91.8718 44.2454 94.3433 52.6779 94.3433C80.1349 94.3433 95.153 71.5959 95.153 51.8683Z" fill="#2E2E2E"/>
</svg>
